<svg width="27" height="28" viewBox="0 0 27 28" fill="none" xmlns="http://www.w3.org/2000/svg">
<path d="M0.94206 7.29706C0.942384 7.34248 0.945618 7.38759 0.949176 7.43553L0.951441 7.4655C1.08406 9.3527 1.52138 11.2459 2.28799 13.253C3.05395 15.2578 4.11199 17.1898 5.52293 19.159C7.38219 21.754 9.442 23.7485 11.8198 25.2559C12.9525 25.9741 13.932 26.5208 15.0292 26.8551C16.8367 27.4055 18.4902 27.3333 20.0849 26.6337C21.1057 26.1861 21.8817 25.5937 22.4578 24.8231C22.8217 24.3364 22.9682 23.863 22.9055 23.3759C22.8514 22.9549 22.6726 22.5672 22.374 22.2237C21.9344 21.7174 21.5586 21.3241 21.1914 20.9856C20.3414 20.2024 19.3674 19.4829 18.2965 18.8474C17.8109 18.5594 17.3021 18.5136 16.7843 18.7124C16.4621 18.836 16.1364 19.0111 15.8165 19.2328C15.2229 19.6444 14.751 20.1952 14.2797 20.7712C14.1248 20.9601 13.9388 21.0661 13.7411 21.0774C13.5471 21.0888 13.354 21.0071 13.1832 20.8421C13.0939 20.756 13.0046 20.6702 12.915 20.5841C12.4919 20.1778 12.0546 19.7577 11.6512 19.3196C9.07552 16.5208 7.15124 13.3511 5.93147 9.89807C5.77491 9.4549 5.925 9.12654 6.36588 8.94864C6.49785 8.89533 6.63047 8.84328 6.76276 8.79092C7.06941 8.67012 7.3864 8.54521 7.69045 8.40863C8.1336 8.20928 8.63593 7.98375 9.0946 7.71847C9.57818 7.43869 9.85247 7.00561 9.88773 6.46528C9.90455 6.20695 9.89194 5.95997 9.84956 5.7316C9.64578 4.62823 9.36243 3.5766 9.00791 2.60603C8.85104 2.17642 8.63561 1.61622 8.35937 1.09009C8.03203 0.466491 7.50414 0.111005 6.78961 0.03341C6.70389 0.0239472 6.61753 0.0195312 6.53052 0.0195312C6.2229 0.0195312 5.90656 0.0778852 5.57048 0.19617C4.14692 0.697068 2.97534 1.58247 2.08841 2.82746C1.28299 3.95827 0.897099 5.28117 0.941413 6.75894V6.76115V6.91192C0.941413 7.0403 0.94109 7.16868 0.94206 7.29706Z" fill="#E5EBEE"/>
<path d="M26.5364 12.4574C26.5067 10.2583 25.9465 8.29221 24.8234 6.44665C22.9363 3.34505 20.139 1.37553 16.5088 0.592323C16.4182 0.572767 16.329 0.562988 16.2436 0.562988C15.9971 0.562988 15.7703 0.645315 15.5691 0.807129C15.2052 1.10079 15.0742 1.47047 15.18 1.90608C15.2893 2.35619 15.5895 2.63534 16.0721 2.73565C17.9818 3.13309 19.6114 3.94878 20.915 5.15971C22.2878 6.43498 23.2533 7.86859 23.7851 9.42049C24.3188 10.9787 24.4278 12.6927 24.1089 14.5153C24.07 14.737 24.0383 14.972 24.1124 15.1953C24.2732 15.6808 24.738 15.9861 25.2691 15.9558C25.7815 15.9265 26.1842 15.5565 26.2951 15.013C26.4682 14.1655 26.5494 13.3056 26.5364 12.4574Z" fill="#E5EBEE"/>
<path d="M22.1399 14.7297C22.2124 14.3298 22.2602 13.9166 22.3068 13.5169C22.3223 13.3832 22.3379 13.2482 22.3544 13.1138L22.3269 13.1103V12.9851C22.3288 11.665 22.0467 10.4279 21.4881 9.30818C20.1771 6.68036 18.0429 5.0373 15.1447 4.42537C15.0722 4.40991 14.9979 4.40234 14.9238 4.40234C14.4421 4.40234 14.0094 4.72566 13.8716 5.18839C13.7865 5.47416 13.8276 5.78518 13.9844 6.04225C14.153 6.31825 14.4415 6.51192 14.7973 6.58762C16.5243 6.95446 17.9077 7.86699 18.9098 9.29935C19.7945 10.5642 20.1807 11.9713 20.0571 13.4816C20.0429 13.6563 20.0154 13.8301 19.9892 13.9983C19.9656 14.1487 19.9416 14.302 19.9274 14.4518C19.875 15.0038 20.2949 15.5215 20.8632 15.6054C21.4836 15.6968 22.0328 15.3205 22.1399 14.7297Z" fill="#E5EBEE"/>
<path d="M15.9761 14.8161C16.1502 15.0526 16.4115 15.2088 16.7117 15.2561C17.3188 15.3517 17.8791 14.9662 17.9874 14.3779C18.0305 14.1445 18.057 13.9023 18.0829 13.6682C18.0945 13.5626 18.1061 13.4553 18.1194 13.3496C18.0861 10.9133 16.3009 8.78857 13.873 8.29587C13.7954 8.2801 13.7161 8.27222 13.6378 8.27222C13.1688 8.27222 12.758 8.5479 12.5908 8.97467C12.3935 9.47873 12.607 10.0519 13.087 10.3083C13.2083 10.3733 13.3574 10.4127 13.5013 10.4506L13.5567 10.4654C14.4928 10.7165 15.1753 11.2776 15.5848 12.1337C15.85 12.6876 15.9147 13.2872 15.7889 14.0209C15.74 14.3035 15.8067 14.5858 15.9761 14.8161Z" fill="#E5EBEE"/>
</svg>
