<svg width="360" height="242" viewBox="0 0 360 242" fill="none" xmlns="http://www.w3.org/2000/svg">
<g clip-path="url(#clip0_976_880)">
<path fill-rule="evenodd" clip-rule="evenodd" d="M151.303 126.491C151.303 126.491 160.138 125.18 166.702 120.85C172.904 116.782 178.22 107.692 178.22 107.692C178.22 107.692 173.518 123.675 166.988 129.412C160.821 134.887 152.708 134.832 152.708 134.832L151.303 126.491Z" fill="#303436"/>
<path d="M197.274 129.654C196.997 129.654 196.727 129.524 196.555 129.28C192.216 123.042 188.407 100.799 188.247 99.8562C188.167 99.3811 188.488 98.9335 188.962 98.8536C189.434 98.7736 189.888 99.0934 189.968 99.5661C190.007 99.7922 193.871 122.369 197.989 128.286C198.264 128.681 198.166 129.225 197.769 129.499C197.62 129.604 197.446 129.654 197.274 129.654Z" fill="#303436"/>
<path d="M151.606 145.982C151.395 145.982 151.182 145.907 151.015 145.751C150.66 145.425 150.637 144.874 150.962 144.52C153.302 141.985 152.234 133.654 150.456 126.704C150.336 126.238 150.618 125.765 151.086 125.644C151.553 125.525 152.028 125.806 152.149 126.272C153.325 130.869 155.69 141.965 152.248 145.697C152.078 145.888 151.842 145.982 151.606 145.982Z" fill="#303436"/>
<path fill-rule="evenodd" clip-rule="evenodd" d="M128.237 79.5225C128.227 77.5218 129.591 75.85 130.982 75.9825C132.394 75.9162 133.634 77.6337 133.643 79.6344C133.652 81.6351 132.288 83.3069 130.897 83.1744C129.288 83.2224 128.046 81.5049 128.237 79.5225Z" fill="#303436"/>
<path fill-rule="evenodd" clip-rule="evenodd" d="M150.73 81.455C150.921 79.4726 152.284 77.8031 153.875 77.9538C155.465 78.1045 156.707 79.822 156.517 81.8045C156.327 83.7869 154.963 85.4564 153.373 85.3057C151.982 85.1755 150.742 83.458 150.73 81.455Z" fill="#303436"/>
<path d="M89.7324 64.1062C90.1289 64.0377 90.5437 63.992 90.9242 64.1176C91.0204 64.1496 91.1167 64.1976 91.1717 64.2821C91.2175 64.3552 91.2267 64.4442 91.2313 64.531C91.2863 65.6341 90.8279 66.6916 90.3787 67.7011C90.2435 68.0048 90.0991 68.32 89.8493 68.5415C89.5789 68.7813 89.2145 68.8841 88.8615 68.9686C88.1855 69.1285 87.459 69.2381 86.8081 68.996C86.4781 68.875 86.187 68.6672 85.912 68.4525C85.4743 68.1122 83.7807 67.8701 83.6821 67.2831C83.5652 66.5888 85.1603 65.8397 85.6576 65.5588C86.9204 64.8462 88.3047 64.3506 89.7324 64.1062Z" fill="#303436"/>
<path d="M243.825 119.059C243.488 119.059 243.167 118.863 243.023 118.536C241.586 115.252 238.437 112.47 234.158 110.707C230.902 109.364 227.326 108.683 223.868 108.023C223.217 107.9 222.569 107.774 221.92 107.646C213.344 105.954 201.163 102.62 194.446 93.2511C194.167 92.8605 194.256 92.317 194.65 92.036C195.042 91.7574 195.588 91.8465 195.869 92.2393C202.225 101.105 213.975 104.305 222.259 105.94C222.903 106.068 223.55 106.192 224.196 106.315C227.741 106.991 231.406 107.69 234.827 109.099C239.526 111.036 243.007 114.142 244.625 117.842C244.817 118.283 244.616 118.796 244.173 118.988C244.061 119.036 243.942 119.059 243.825 119.059Z" fill="#303436"/>
<path d="M328.399 204.071C328.328 204.071 328.254 204.061 328.181 204.043C328.048 204.009 314.613 200.547 283.867 189.218C272.305 184.959 252.495 183.468 252.295 183.452C251.814 183.417 251.452 182.999 251.489 182.52C251.525 182.04 251.931 181.684 252.424 181.716C253.244 181.778 272.678 183.239 284.472 187.585C315.113 198.875 328.481 202.323 328.612 202.358C329.079 202.476 329.361 202.952 329.242 203.417C329.143 203.808 328.788 204.071 328.399 204.071Z" fill="#303436"/>
<path d="M201.503 334.906C179.369 334.906 151.379 328.847 150.068 328.561C145.822 327.632 146.919 319.179 148.436 307.476C149.809 296.897 151.517 283.733 148.964 274.963C143.711 256.924 134.415 239.827 126.114 225.217C118.689 212.146 118.817 198.891 118.939 186.069C119.04 175.654 119.143 164.883 115.203 154.204C115.036 153.752 115.27 153.252 115.721 153.087C116.173 152.92 116.677 153.153 116.842 153.603C120.892 164.582 120.786 175.513 120.683 186.085C120.557 199.256 120.435 211.696 127.632 224.358C135.981 239.053 145.333 256.258 150.639 274.476C153.295 283.596 151.56 296.961 150.167 307.698C148.982 316.829 147.756 326.273 150.439 326.86C151.888 327.175 186.175 334.593 208.612 332.919C243.502 330.311 262.015 322.093 262.198 322.011C262.636 321.812 263.156 322.006 263.356 322.443C263.555 322.881 263.36 323.397 262.922 323.594C262.737 323.678 243.979 332.019 208.745 334.652C206.439 334.828 204.008 334.906 201.503 334.906Z" fill="#303436"/>
<path d="M175.871 112.441L175.177 111.911C171.62 116.097 169.661 118.402 163.358 121.293C154.193 125.331 142.191 128.348 137.514 125.434C135.16 123.881 132.289 120.562 129.639 116.33C125.086 108.987 123.525 101.656 123.573 97.5793C123.497 94.5006 123.795 91.543 124.084 88.6813C124.258 86.9432 124.439 85.1481 124.538 83.3278C124.675 80.087 124.641 77.1179 124.604 73.973L124.586 72.2852C124.586 72.2601 124.579 72.2007 124.577 72.1756C124.538 71.7736 124.778 69.3253 124.955 67.537C125.008 66.9934 125.056 66.5001 125.102 66.0342C124.522 66.137 123.931 66.1415 123.339 66.1004C123.298 66.5298 123.257 66.9592 123.215 67.368C122.915 70.433 122.789 71.8147 122.837 72.3446L122.856 73.9913C122.892 77.1111 122.927 80.0596 122.791 83.2433C122.698 85.0133 122.519 86.7879 122.345 88.5054C122.051 91.4197 121.746 94.4321 121.824 97.5885C121.772 102.074 123.406 109.593 128.154 117.248C129.47 119.347 132.921 124.49 136.57 126.898C138.185 127.905 140.383 128.314 142.877 128.314C149.672 128.314 158.669 125.262 164.078 122.878C170.745 119.822 172.915 117.267 176.541 113.002L175.871 112.441Z" fill="#303436"/>
<path d="M183.352 102.22C182.921 102.22 182.543 101.9 182.488 101.462C182.426 100.984 182.763 100.548 183.242 100.486C188.877 99.7601 192.345 97.3575 194.155 92.9221C195.313 90.0125 194.983 86.8538 193.312 84.8828C191.873 83.1859 189.618 82.5647 186.961 83.1265C186.492 83.2247 186.026 82.9255 185.925 82.4551C185.825 81.9846 186.127 81.5232 186.599 81.4227C189.913 80.7193 192.773 81.5483 194.646 83.7592C196.759 86.2532 197.194 90.0125 195.776 93.5731C193.729 98.5862 189.702 101.411 183.464 102.215C183.425 102.218 183.388 102.22 183.352 102.22Z" fill="#303436"/>
<path d="M186.391 93.5072C186.232 93.5072 186.072 93.4638 185.925 93.3724C185.517 93.1166 185.394 92.5822 185.648 92.1757C185.692 92.1049 186.746 90.4467 188.632 89.5081C189.065 89.2934 189.588 89.467 189.805 89.8963C190.021 90.3257 189.847 90.8487 189.416 91.0657C187.983 91.7805 187.14 93.0869 187.131 93.1006C186.964 93.3633 186.679 93.5072 186.391 93.5072Z" fill="#303436"/>
<path d="M136.574 98.1843C136.306 98.1843 136.042 98.0632 135.871 97.8303C132.676 93.5183 134.03 91.9721 136.132 90.4008C137.055 89.7088 138.011 88.9962 138.442 87.6966C139.414 84.5905 139.104 80.8176 137.546 76.7956C137.372 76.348 137.596 75.8432 138.045 75.6697C138.497 75.4961 139.001 75.7199 139.175 76.1675C140.878 80.5595 141.199 84.7299 140.106 88.2265C139.501 90.0582 138.215 91.0197 137.181 91.7917C135.586 92.9861 134.858 93.5297 137.275 96.7934C137.562 97.1794 137.479 97.7252 137.092 98.0107C136.936 98.1295 136.755 98.1843 136.574 98.1843Z" fill="#303436"/>
<path d="M158.942 69.9054C158.738 69.9054 158.532 69.8346 158.367 69.6884C158.209 69.5514 154.535 66.4475 148.714 68.0805C148.246 68.2084 147.767 67.9412 147.637 67.4776C147.506 67.014 147.776 66.5343 148.242 66.4042C155.016 64.504 159.341 68.2221 159.524 68.382C159.886 68.6995 159.918 69.2499 159.6 69.6107C159.423 69.8049 159.183 69.9054 158.942 69.9054Z" fill="#303436"/>
<path d="M133.207 64.7939C133.075 64.7186 132.944 64.6637 132.811 64.5952C132.215 64.9538 131.633 65.3329 131.053 65.712C131.477 65.8742 131.91 66.066 132.355 66.315C132.49 66.3904 132.637 66.4246 132.781 66.4246C133.088 66.4246 133.384 66.2647 133.544 65.9793C133.778 65.559 133.629 65.0269 133.207 64.7939Z" fill="#303436"/>
<path d="M140.793 114.59C132.135 114.59 130.366 103.248 130.347 103.134C130.306 102.848 130.407 102.563 130.618 102.369C130.831 102.174 131.127 102.097 131.406 102.158C131.452 102.168 135.919 103.177 140.768 103.638C145.606 103.899 150.609 103.207 150.657 103.2C150.953 103.159 151.244 103.268 151.439 103.49C151.634 103.711 151.702 104.018 151.62 104.301C151.501 104.716 148.636 114.469 140.839 114.59C140.825 114.59 140.809 114.59 140.793 114.59ZM132.348 104.134C133.036 106.813 135.201 112.847 140.787 112.847C140.8 112.847 140.812 112.847 140.823 112.847C145.794 112.769 148.487 107.56 149.484 105.093C147.605 105.29 144.13 105.566 140.656 105.376C137.259 105.054 134.072 104.477 132.348 104.134Z" fill="#303436"/>
<path d="M180.217 82.1698C171.627 82.1698 164.309 72.8309 160.895 63.3916C160.12 61.3132 159.444 59.3331 158.848 57.5859L158.676 57.0858C158.52 56.6313 158.765 56.1357 159.222 55.9804C159.675 55.825 160.173 56.0694 160.331 56.5239L160.5 57.0264C161.094 58.7621 161.765 60.7309 162.533 62.7955C166.021 72.4404 173.694 81.9985 182.3 80.2148C182.774 80.1143 183.235 80.418 183.333 80.8885C183.432 81.359 183.129 81.8203 182.655 81.9185C181.835 82.0898 181.019 82.1698 180.217 82.1698Z" fill="#303436"/>
<path d="M189.567 30.807C189.285 30.807 189.01 30.6723 188.841 30.4211C181.298 19.2208 152.241 23.5397 143.644 28.6853C143.232 28.932 142.693 28.7995 142.446 28.3884C142.196 27.9773 142.331 27.4406 142.744 27.1939C151.991 21.6578 182.087 17.2613 190.291 29.4504C190.56 29.8501 190.454 30.3914 190.053 30.6586C189.904 30.7591 189.734 30.807 189.567 30.807Z" fill="#303436"/>
<path d="M122.663 95.1719C114.983 88.1694 114.092 76.0008 114.566 67.5596C113.984 67.6806 113.397 67.7925 112.804 67.8405C112.364 76.6084 113.413 89.1013 121.483 96.4577C121.65 96.6107 121.861 96.6861 122.072 96.6861C122.308 96.6861 122.544 96.5902 122.716 96.4029C123.043 96.0489 123.021 95.4962 122.663 95.1719Z" fill="#303436"/>
<path d="M118.744 48.2949C118.652 48.2949 118.559 48.2812 118.467 48.2492C118.008 48.0962 117.763 47.6028 117.915 47.1461C121.098 37.6542 125.984 31.5105 131.67 29.8456C134.965 28.8818 138.314 29.5784 141.1 31.8097C141.476 32.1112 141.536 32.6593 141.236 33.0339C140.933 33.4084 140.383 33.4701 140.007 33.1686C137.644 31.2776 134.933 30.7089 132.163 31.5174C127.116 32.9951 122.528 38.8921 119.574 47.6988C119.45 48.0642 119.109 48.2949 118.744 48.2949Z" fill="#303436"/>
<path d="M120.385 88.6402C120.064 88.6402 119.755 88.4621 119.601 88.156C113.899 76.668 117.387 71.1045 120.761 65.7236C121.018 65.3148 121.556 65.1914 121.964 65.4472C122.374 65.703 122.498 66.2398 122.241 66.6463C118.836 72.0774 115.895 76.7662 121.166 87.3841C121.38 87.8157 121.203 88.3364 120.77 88.5511C120.649 88.6105 120.516 88.6402 120.385 88.6402Z" fill="#303436"/>
<path d="M135.79 126.422C135.758 126.422 135.729 126.42 135.696 126.418C135.534 126.4 119.45 124.682 113.874 124.454C74.5197 122.853 42.586 112.639 42.2674 112.536C41.8091 112.388 41.557 111.897 41.7059 111.44C41.8549 110.983 42.3476 110.732 42.806 110.881C43.1222 110.983 74.8405 121.124 113.943 122.713C119.576 122.942 135.218 124.614 135.88 124.684C136.359 124.737 136.707 125.164 136.654 125.644C136.611 126.091 136.23 126.422 135.79 126.422Z" fill="#303436"/>
<path d="M158.85 164.349C158.208 164.349 157.576 164.228 156.957 163.94C155.825 163.408 155.064 162.408 154.441 161.51C147.68 151.801 144.455 139.484 145.594 127.722C145.64 127.243 146.06 126.891 146.548 126.939C147.029 126.984 147.38 127.412 147.334 127.889C146.234 139.249 149.348 151.141 155.878 160.519C156.396 161.263 156.964 162.019 157.702 162.367C158.93 162.942 160.514 162.383 162.043 161.693C172.922 156.778 182.996 150.312 191.987 142.472C199.101 136.271 199.93 133.667 201.986 124.698C202.094 124.23 202.559 123.933 203.033 124.043C203.503 124.15 203.799 124.616 203.691 125.087C201.58 134.297 200.639 137.244 193.14 143.783C184.021 151.735 173.802 158.294 162.765 163.28C161.483 163.853 160.152 164.349 158.85 164.349Z" fill="#303436"/>
<path d="M306.826 136.511C306.808 136.511 306.789 136.511 306.771 136.508C306.235 136.474 293.559 135.471 288.274 116.693C285.545 106.998 277.276 94.35 264.957 87.9505C260.117 85.4359 255.543 84.1569 251.12 82.9214C243.477 80.7859 236.257 78.7669 228.653 70.867C224.1 66.137 220.176 60.0093 216.383 54.0826C210.113 44.2916 204.191 35.0441 195.94 32.1458C195.484 31.9859 195.246 31.488 195.406 31.0358C195.567 30.5836 196.066 30.3438 196.52 30.5037C205.341 33.6006 211.419 43.0948 217.857 53.1462C221.606 59.0021 225.481 65.0544 229.916 69.6611C237.19 77.2185 244.187 79.1735 251.594 81.2427C256.102 82.5034 260.766 83.8052 265.766 86.4066C278.548 93.0481 287.126 106.169 289.958 116.225C294.913 133.825 306.764 134.766 306.883 134.773C307.365 134.802 307.731 135.216 307.701 135.695C307.669 136.154 307.284 136.511 306.826 136.511Z" fill="#303436"/>
<path d="M38.9695 114.727C38.5432 114.727 38.1697 114.416 38.1055 113.982C38.0345 113.507 38.3668 113.064 38.8435 112.995C41.7792 112.568 47.2268 105.136 50.1534 101.144C51.3314 99.5364 52.2641 98.2665 52.8348 97.6659C61.0531 89.0236 88.181 68.8112 89.3314 67.9547C89.7164 67.6669 90.2665 67.7469 90.5529 68.1305C90.8417 68.5165 90.7615 69.0624 90.3765 69.3479C90.0969 69.5557 62.2174 90.3277 54.1022 98.8626C53.6071 99.3834 52.6606 100.674 51.5629 102.17C46.922 108.501 42.4759 114.224 39.0956 114.715C39.0543 114.724 39.0131 114.727 38.9695 114.727Z" fill="#303436"/>
<path d="M119.842 183.364C119.714 183.364 119.583 183.337 119.462 183.278C119.462 183.278 102.193 174.909 77.1942 162.816C67.8643 158.301 58.0899 154.434 48.6363 150.696C29.2111 143.01 12.433 136.376 5.20243 126.596C-4.82412 113.036 2.01456 105.262 6.1031 100.614C15.0869 90.4031 25.9385 81.6329 36.4325 73.1528L36.5059 73.0934C40.3011 70.0261 44.3965 67.2033 48.3544 64.4763C51.4093 62.3728 54.5651 60.1963 57.5513 57.9306C59.0203 56.8161 60.4802 55.6856 61.9401 54.555C66.2142 51.248 70.6328 47.829 75.2462 44.8279C75.6495 44.5653 76.1904 44.6772 76.4562 45.0814C76.7198 45.4834 76.6052 46.0247 76.2018 46.2873C71.6504 49.2473 67.2593 52.6457 63.0126 55.9299C61.5482 57.065 60.0814 58.1979 58.6101 59.3147C55.5918 61.6054 52.4177 63.7911 49.349 65.9083C45.4163 68.617 41.3507 71.4193 37.6059 74.4455L37.5326 74.5049C27.0958 82.9393 16.3038 91.6615 7.41858 101.761C3.43546 106.288 -2.58276 113.128 6.61187 125.559C13.5468 134.937 30.9048 141.804 49.2849 149.074C58.7683 152.824 68.5725 156.705 77.9619 161.245C102.961 173.34 120.229 181.709 120.229 181.709C120.662 181.919 120.843 182.439 120.633 182.873C120.477 183.184 120.165 183.364 119.842 183.364Z" fill="#303436"/>
<path d="M198.271 126.635C197.423 126.635 196.541 126.55 195.539 126.388C195.063 126.311 194.74 125.865 194.815 125.39C194.893 124.915 195.342 124.589 195.817 124.671C198.393 125.086 200.029 124.938 202.552 124.065C203.008 123.908 203.506 124.148 203.664 124.602C203.822 125.057 203.581 125.552 203.125 125.71C201.301 126.343 199.85 126.635 198.271 126.635Z" fill="#303436"/>
<path d="M326.247 291.868C321.846 291.868 315.019 290.087 313.284 289.614C305.032 287.364 301.369 284.756 302.087 281.641C302.74 278.811 309.491 254.131 312.688 243.719C315.759 233.718 317.08 216.31 317.412 211.212C317.71 206.622 317.27 202.268 317.265 202.225C317.215 201.748 317.565 201.318 318.044 201.27C318.516 201.213 318.952 201.567 319.002 202.047C319.021 202.23 319.463 206.583 319.154 211.324C318.819 216.467 317.485 234.044 314.359 244.226C311.169 254.613 304.44 279.208 303.792 282.027C303.533 283.148 304.484 285.407 313.747 287.931C322.885 290.422 327.839 290.386 328.456 289.812C329.492 288.431 341.934 260.309 346.648 244.868C350.808 231.244 358.547 205.886 358.247 195.211C357.96 185.123 357.051 181.876 349.362 175.547L349.016 175.261C341.313 168.919 335.746 164.335 303.844 151.954C294.968 148.51 287.357 144.947 279.996 141.503C266.074 134.99 254.049 129.362 240.33 128.222C227.095 127.124 218.265 126.073 212.423 125.377C206.925 124.721 202.953 124.248 202.502 124.746C202.502 124.746 202.451 124.835 202.484 125.189C202.527 125.669 202.172 126.091 201.693 126.135C201.212 126.185 200.788 125.824 200.744 125.347C200.696 124.824 200.701 124.063 201.285 123.495C202.387 122.426 204.555 122.684 212.632 123.643C218.462 124.337 227.274 125.386 240.477 126.482C254.509 127.647 266.665 133.336 280.741 139.92C288.077 143.353 295.661 146.902 304.482 150.326C336.644 162.81 342.596 167.711 350.129 173.914L350.475 174.199C358.538 180.834 359.688 184.422 359.993 195.159C360.305 206.117 352.51 231.653 348.321 245.37C343.809 260.147 331.087 289.42 329.778 290.945C329.208 291.617 327.897 291.868 326.247 291.868Z" fill="#303436"/>
<path d="M286.147 290.36C285.751 290.36 285.391 290.089 285.297 289.687C285.281 289.62 283.684 282.91 279.925 277.532C276.082 272.034 257.023 248.663 256.831 248.426C256.813 248.405 256.799 248.385 256.783 248.362C256.593 248.081 252.149 241.362 251.865 231.516C251.741 227.192 251.796 223.696 251.86 219.646C251.947 214.295 252.043 208.229 251.729 198.564C251.186 181.848 251.729 164.956 251.736 164.787C251.752 164.308 252.165 163.938 252.637 163.944C253.121 163.96 253.499 164.362 253.48 164.844C253.476 165.013 252.933 181.85 253.473 198.509C253.79 208.213 253.691 214.302 253.606 219.674C253.542 223.703 253.487 227.181 253.609 231.465C253.868 240.464 257.894 246.87 258.213 247.361C259.338 248.739 277.517 271.039 281.355 276.534C285.311 282.193 286.929 289.001 286.995 289.289C287.105 289.757 286.812 290.226 286.342 290.335C286.28 290.351 286.214 290.36 286.147 290.36Z" fill="#303436"/>
<path d="M298.58 143.865C295.459 143.865 292.264 142.508 289.853 140.117C287.493 137.776 285.893 134.555 285.226 130.805C285.141 130.332 285.46 129.88 285.934 129.796C286.409 129.714 286.862 130.029 286.947 130.501C287.369 132.87 288.428 136.245 291.086 138.881C293.408 141.183 296.541 142.38 299.476 142.076C299.944 142.028 300.384 142.375 300.434 142.853C300.485 143.33 300.134 143.759 299.655 143.807C299.298 143.846 298.94 143.865 298.58 143.865Z" fill="#303436"/>
<path d="M118.15 24.3392C117.889 24.3392 117.63 24.2228 117.458 24.0012L108.406 12.3671C108.11 11.9879 108.179 11.4398 108.562 11.1452C108.944 10.8506 109.492 10.9191 109.788 11.3005L118.84 22.9346C119.136 23.3161 119.067 23.8619 118.684 24.1565C118.524 24.2799 118.336 24.3392 118.15 24.3392Z" fill="#303436"/>
<path d="M129.777 18.7964C129.428 18.7964 129.098 18.5862 128.963 18.2437L123.016 3.21563C122.84 2.76798 123.06 2.26324 123.509 2.0851C123.958 1.90924 124.464 2.12849 124.643 2.57614L130.59 17.6042C130.767 18.0518 130.547 18.5566 130.098 18.7347C129.992 18.7758 129.882 18.7964 129.777 18.7964Z" fill="#303436"/>
<path d="M141.843 15.3545C141.419 15.3545 141.048 15.0461 140.981 14.6168L138.868 1.00475C138.795 0.5297 139.12 0.0843404 139.599 0.0112558C140.071 -0.0618289 140.523 0.262484 140.596 0.739818L142.709 14.3518C142.783 14.8269 142.457 15.2722 141.978 15.3453C141.932 15.3499 141.886 15.3545 141.843 15.3545Z" fill="#303436"/>
<path d="M88.0343 70.0992C86.7096 70.0992 85.3414 69.5373 84.2712 68.8179C82.2384 67.4521 80.7029 65.5999 79.4676 63.9692C77.0819 60.8174 75.5762 58.0539 74.7259 55.2698C73.6465 51.7435 73.7152 48.1761 74.9161 45.2298C75.143 44.6703 75.6541 44.2569 76.282 44.1244C76.9283 43.9874 77.5815 44.1656 78.0352 44.5972C78.3836 44.9307 78.3928 45.4811 78.0604 45.8282C77.7258 46.1754 77.1735 46.1868 76.8252 45.8534C76.8 45.8282 76.7289 45.81 76.6487 45.8282C76.5822 45.8419 76.5433 45.8716 76.5387 45.8853C75.4891 48.4638 75.4386 51.6156 76.4012 54.7628C77.1896 57.3459 78.6105 59.9358 80.8679 62.9209C82.0161 64.4374 83.4347 66.1526 85.2521 67.3745C86.4346 68.1693 88.2153 68.7996 89.336 67.9569C90.2642 67.258 90.64 66.381 90.5186 65.1934C90.4704 64.7138 90.8188 64.2867 91.3001 64.2387C91.7768 64.1862 92.2099 64.5379 92.258 65.0175C92.4391 66.7967 91.7928 68.2926 90.3879 69.3478C89.6706 69.8799 88.8616 70.0992 88.0343 70.0992Z" fill="#303436"/>
<path d="M135.788 55.2678C135.396 55.2678 135.039 55.0029 134.94 54.6055C134.826 54.1373 135.11 53.6668 135.58 53.5503C135.816 53.4932 159.194 47.7309 162.863 46.2624L163.12 46.1619C163.814 45.8878 165.105 45.3808 165.263 44.8669C165.316 44.6956 165.189 44.4558 165.073 44.2845C164.433 43.3459 163.2 43.4646 161.529 43.7341L161.037 43.8118C156.902 44.4261 152.679 45.4493 148.21 46.5342C144.362 47.4683 140.381 48.4344 136.267 49.1744C132.142 49.9166 119.081 48.8135 113.354 47.2353C109.068 46.0546 102.39 44.8875 96.4979 43.8574C94.8799 43.5742 93.3352 43.3047 91.9326 43.0512C89.3017 42.5739 86.6501 42.6927 84.2621 43.3938C83.2537 43.6907 82.424 44.0379 81.7938 44.4284C78.9657 46.1825 75.81 47.2536 75.6793 47.297C75.2187 47.45 74.7259 47.2056 74.5724 46.7511C74.4188 46.2966 74.6641 45.801 75.1201 45.648C75.1499 45.6366 78.2209 44.5929 80.8725 42.9507C81.6357 42.478 82.6097 42.0646 83.7693 41.7243C86.4163 40.9455 89.3498 40.813 92.2466 41.3383C93.6446 41.5918 95.187 41.8613 96.8004 42.1445C102.732 43.1814 109.453 44.3576 113.821 45.5589C119.26 47.0572 132.087 48.1603 135.958 47.4614C140.021 46.7283 143.974 45.7691 147.797 44.8418C152.307 43.7478 156.565 42.7132 160.78 42.0874L161.252 42.0143C162.923 41.7471 165.206 41.3794 166.519 43.3047C167.119 44.1863 167.076 44.9172 166.934 45.3785C166.528 46.6918 164.928 47.3221 163.762 47.7812L163.514 47.8794C159.733 49.3913 136.966 55.0029 135.999 55.2404C135.928 55.2609 135.859 55.2678 135.788 55.2678Z" fill="#303436"/>
<path d="M104.267 69.0513C99.0464 69.0513 96.9311 67.3087 95.6454 66.2489C95.2604 65.9315 94.9258 65.6574 94.6805 65.5843C93.1955 65.1458 87.7456 64.3305 87.6906 64.3236C87.2139 64.2528 86.8839 63.8097 86.9549 63.3324C87.026 62.8574 87.4706 62.5308 87.9496 62.5993C88.1787 62.6335 93.5782 63.442 95.1778 63.9125C95.7645 64.0861 96.2252 64.4652 96.7592 64.906C97.983 65.9155 99.8347 67.4411 104.897 67.2995C109.589 67.1694 114.986 66.322 119.748 65.5752C122.34 65.1687 124.788 64.785 126.786 64.5726C127.808 64.4652 128.844 64.3784 129.866 64.2939C133.943 63.9559 138.16 63.6065 138.937 61.8616C139.024 61.6629 138.985 61.6012 138.955 61.5533C138.486 60.8201 135.635 60.2788 133.267 60.2354C132.786 60.2263 132.401 59.8289 132.41 59.3493C132.419 58.8674 132.83 58.4974 133.299 58.4951C134.273 58.5134 139.201 58.6984 140.429 60.6169C140.8 61.1947 140.837 61.889 140.535 62.5673C139.338 65.2577 135.016 65.614 130.011 66.0297C129.002 66.1142 127.978 66.1987 126.969 66.3038C125.017 66.5093 122.59 66.8907 120.021 67.295C115.206 68.0509 109.749 68.9074 104.945 69.0399C104.714 69.049 104.487 69.0513 104.267 69.0513Z" fill="#303436"/>
<path d="M117.896 65.9746C117.571 65.9746 117.259 65.7942 117.108 65.4813C116.897 65.0473 117.08 64.5266 117.513 64.3188C117.805 64.1795 124.668 60.8792 127.288 60.0707C127.975 59.8583 130.366 59.2303 133.675 58.3624C142.76 55.978 159.671 51.5404 164.227 49.6356C166.762 48.5759 170.199 46.9954 170.784 45.4904C170.894 45.2072 170.887 44.9514 170.765 44.6659C170.307 44.385 168.233 44.6453 166.351 45.2254C165.888 45.3647 165.4 45.1089 165.258 44.6499C165.116 44.1908 165.373 43.7021 165.836 43.5605C167.907 42.921 171.506 42.117 172.331 43.8893C172.674 44.627 172.702 45.3784 172.413 46.1207C171.76 47.8039 169.583 49.2862 164.903 51.2435C160.235 53.1939 143.887 57.4854 134.122 60.0479C130.836 60.9112 128.459 61.5347 127.808 61.7357C125.315 62.5054 118.348 65.8536 118.279 65.8878C118.153 65.9472 118.022 65.9746 117.896 65.9746Z" fill="#303436"/>
<path d="M102.583 61.377C102.11 61.377 101.723 61.0025 101.709 60.532C101.696 60.0501 102.074 59.6504 102.557 59.6367C102.642 59.6344 111 59.3855 115.909 58.7939C120.591 58.2275 124.641 54.9524 124.682 54.9205C125.053 54.6144 125.606 54.6692 125.911 55.0392C126.218 55.4115 126.163 55.9596 125.791 56.2634C125.61 56.4118 121.318 59.8948 116.118 60.5206C111.129 61.1235 102.693 61.3725 102.608 61.3748C102.601 61.377 102.592 61.377 102.583 61.377Z" fill="#303436"/>
<path d="M138.339 61.0391C137.945 61.0391 137.585 60.7696 137.491 60.3722C137.378 59.904 137.667 59.4358 138.137 59.3217C138.204 59.3057 144.87 57.7092 149.046 56.5536C153.63 55.2837 167.58 51.4171 168.389 49.6722C168.535 49.2291 168.595 48.9482 168.618 48.7815C168.499 48.6719 168.409 48.528 168.368 48.3612C168.249 47.8953 168.531 47.4226 168.998 47.3015C169.289 47.2261 169.716 47.2695 170.036 47.6144C170.488 48.0963 170.49 48.8774 170.043 50.2272C169.413 52.132 164.231 54.1509 149.513 58.23C145.308 59.3947 138.611 60.998 138.545 61.014C138.474 61.0323 138.405 61.0391 138.339 61.0391Z" fill="#303436"/>
</g>
<defs>
<clipPath id="clip0_976_880">
<rect width="360" height="242" fill="white"/>
</clipPath>
</defs>
</svg>
