<svg width="89" height="37" viewBox="0 0 89 37" fill="none" xmlns="http://www.w3.org/2000/svg">
<path d="M1 11.3867C4.49439 7.03067 17.0776 -3.82505 22.5519 3.43985C27.5224 10.0362 24.8026 23.3519 19.9453 28.9969C16.7635 32.6947 2.7164 40.9581 3.92444 29.6327C4.429 24.9024 7.96155 21.1572 11.6488 18.5707C15.2408 16.0508 22.6312 11.7379 27.3518 12.4993C31.5552 13.1772 28.8614 23.4663 27.2882 25.5639C25.7047 27.6752 29.2185 19.7997 31.7384 19.0157C33.5499 18.4521 35.3735 19.0023 37.1741 19.27C41.1223 19.8569 45.0387 19.9307 49.0308 19.8104C61.8665 19.4234 74.6116 17.6018 87.3982 16.5363" stroke="#577BFA" stroke-width="2" stroke-linecap="round"/>
</svg>
