<svg width="62" height="21" viewBox="0 0 62 21" fill="none" xmlns="http://www.w3.org/2000/svg">
<path d="M1.21875 15.0804C4.8834 13.1071 12.7558 7.1948 11.1364 2.17473C10.3243 -0.342912 7.293 3.39894 7.03585 3.7641C4.81104 6.92333 3.71373 11.4147 5.22396 15.1122C7.01108 19.4876 12.2532 21.1831 16.0953 18.4817C18.2061 16.9975 19.7134 14.9557 21.0541 12.7917C21.8197 11.5561 21.9353 10.7457 22.3892 12.5374C23.4524 16.7346 25.1946 19.7645 30.0817 17.1148C32.7865 15.6484 34.8489 13.2698 36.6617 10.8527C36.8733 10.5705 38.2107 7.98146 38.3782 9.74013C38.6335 12.4205 40.1564 12.1546 42.5742 12.2513C48.5934 12.4921 54.4348 13.9373 60.1526 15.6526" stroke="#577BFA" stroke-width="2" stroke-linecap="round"/>
</svg>
