<svg width="140" height="78" viewBox="0 0 140 78" fill="none" xmlns="http://www.w3.org/2000/svg">
<rect width="7.35344" height="76.1375" rx="3.67672" transform="matrix(1 0 -0.0089606 0.99996 0.682129 1)" fill="#303436"/>
<rect width="7.35344" height="76.1375" rx="3.67672" transform="matrix(1 0 -0.0089606 0.99996 62.9248 1)" fill="#303436"/>
<rect width="20.5896" height="76.1375" rx="10.2948" transform="matrix(1 0 -0.0089606 0.99996 38.2119 1)" fill="#303436"/>
<rect width="20.5896" height="76.1375" rx="10.2948" transform="matrix(1 0 -0.0089606 0.99996 100.456 1)" fill="#303436"/>
<rect width="11.7655" height="76.1375" rx="5.88275" transform="matrix(1 0 -0.0089606 0.99996 12.6821 1)" fill="#303436"/>
<rect width="11.7655" height="76.1375" rx="5.88275" transform="matrix(1 0 -0.0089606 0.99996 74.4712 1)" fill="#303436"/>
<rect width="7.35344" height="76.1375" rx="3.67672" transform="matrix(1 0 -0.0089606 0.99996 124.682 1)" fill="#303436"/>
<rect width="5.88275" height="76.1375" rx="2.94138" transform="matrix(1 0 -0.0089606 0.99996 28.1982 1)" fill="#303436"/>
<rect width="5.88275" height="76.1375" rx="2.94138" transform="matrix(1 0 -0.0089606 0.99996 90.4375 1)" fill="#303436"/>
<rect width="4.41206" height="76.1375" rx="2.20603" transform="matrix(1 0 -0.0089606 0.99996 135.324 0.93457)" fill="#303436"/>
</svg>
