<svg width="48" height="20" viewBox="0 0 48 20" fill="none" xmlns="http://www.w3.org/2000/svg">
<path d="M39.2826 2.47221C43.1154 2.47221 46.1942 5.85971 46.1942 10C46.1942 14.1745 43.084 17.5278 39.2826 17.5278H8.68372C4.85099 17.5278 1.77226 14.1403 1.77226 10C1.77226 5.8255 4.88241 2.47221 8.68372 2.47221H39.2826ZM39.2826 0.658691H8.68372C3.93994 0.658691 0.107178 4.8332 0.107178 10C0.107178 15.1668 3.93994 19.3413 8.68372 19.3413H39.2826C44.0264 19.3413 47.8592 15.1668 47.8592 10C47.8592 4.8332 44.0264 0.658691 39.2826 0.658691Z" fill="#41454C"/>
<path d="M38.4095 15.2609H9.0308C6.39143 15.2609 4.22339 12.9227 4.22339 10C4.22339 7.11168 6.36001 4.73914 9.0308 4.73914H38.4095C41.0488 4.73914 43.2169 7.0773 43.2169 10C43.1855 12.8883 41.0488 15.2609 38.4095 15.2609Z" fill="url(#paint0_linear_826_474)"/>
<defs>
<linearGradient id="paint0_linear_826_474" x1="4.2303" y1="10.0003" x2="43.1889" y2="10.0003" gradientUnits="userSpaceOnUse">
<stop stop-color="#464B4D"/>
<stop offset="1" stop-color="#1A1D1E"/>
</linearGradient>
</defs>
</svg>
