<svg width="52" height="20" viewBox="0 0 52 20" fill="none" xmlns="http://www.w3.org/2000/svg">
<path d="M42.196 1.89595C46.3242 1.89595 49.6404 5.43743 49.6404 9.76591C49.6404 14.1302 46.2904 17.6359 42.196 17.6359H9.23781C5.10958 17.6359 1.79346 14.0944 1.79346 9.76591C1.79346 5.40166 5.14341 1.89595 9.23781 1.89595H42.196M42.196 0H9.23781C4.12827 0 0 4.36425 0 9.76591C0 15.1676 4.12827 19.5318 9.23781 19.5318H42.196C47.3055 19.5318 51.4338 15.1676 51.4338 9.76591C51.4338 4.36425 47.3055 0 42.196 0Z" fill="#41454C"/>
<path d="M41.8219 16H10.1781C7.33521 16 5 13.5556 5 10.5C5 7.48039 7.30137 5 10.1781 5H41.8219C44.6648 5 47 7.44444 47 10.5C46.9662 13.5196 44.6648 16 41.8219 16Z" fill="url(#paint0_linear_327_14)"/>
<defs>
<linearGradient id="paint0_linear_327_14" x1="5.00745" y1="10.5004" x2="46.9699" y2="10.5004" gradientUnits="userSpaceOnUse">
<stop stopColor="#464B4D"/>
<stop offset="1" stopColor="#1A1D1E"/>
</linearGradient>
</defs>
</svg>
