<svg width="19" height="15" viewBox="0 0 19 15" fill="none" xmlns="http://www.w3.org/2000/svg">
<path d="M0.883597 0.802246V2.6136L8.37473 7.79492H8.41458C8.49427 7.83704 8.57397 7.87917 8.69351 7.87917C8.93259 7.96342 9.2912 8.04767 9.64982 8.04767C10.128 8.04767 10.6061 7.92129 11.0843 7.5843C12.2398 6.74181 15.9456 4.04584 18.2965 2.31873V0.802246H0.883597ZM9.64982 9.85902C8.45443 9.85902 7.6575 9.39565 7.5778 9.39565L7.53796 9.35353L0.84375 4.71983V14.3242H18.2965V4.50921C15.9854 6.19419 13.0368 8.34254 12.0406 9.05866C11.2437 9.6484 10.4069 9.85902 9.64982 9.85902Z" fill="#41454C"/>
</svg>
