<svg width="82" height="44" viewBox="0 0 82 44" fill="none" xmlns="http://www.w3.org/2000/svg">
<path opacity="0.8" d="M18.194 43.8721C14.874 43.8721 11.8815 43.0321 9.21657 41.3522C6.59163 39.6722 4.53349 37.2323 3.04216 34.0325C1.5512 30.7926 0.826321 26.8727 0.86754 22.2729C0.908759 17.6731 1.70371 13.7733 3.25238 10.5734C4.80141 7.33353 6.90345 4.87363 9.55851 3.19369C12.2536 1.51376 15.2611 0.673794 18.5811 0.673794C21.9411 0.673794 24.9336 1.51376 27.5585 3.19369C30.1835 4.87363 32.2414 7.33353 33.7324 10.5734C35.2637 13.7733 36.0088 17.6731 35.9675 22.2729C35.9263 26.8727 35.1112 30.7926 33.5222 34.0325C31.9735 37.2323 29.8716 39.6722 27.2166 41.3522C24.5615 43.0321 21.554 43.8721 18.194 43.8721ZM18.2547 37.0923C20.2147 37.0923 21.9194 36.5724 23.3687 35.5324C24.8184 34.4524 25.9531 32.8125 26.7728 30.6126C27.6325 28.4127 28.0774 25.6328 28.1075 22.2729C28.138 18.8731 27.7429 16.0932 26.9223 13.9333C26.142 11.7334 25.0365 10.1134 23.6058 9.07346C22.1755 7.9935 20.4803 7.45352 18.5203 7.45352C16.6403 7.45352 14.9555 7.9935 13.4658 9.07346C12.0165 10.1134 10.862 11.7334 10.0023 13.9333C9.18292 16.0932 8.75801 18.8731 8.72754 22.2729C8.69743 25.6328 9.07252 28.4127 9.85281 30.6126C10.6731 32.8125 11.7984 34.4524 13.2287 35.5324C14.6994 36.5724 16.3747 37.0923 18.2547 37.0923ZM46.2105 43.2721L46.5868 1.27377H63.8668C69.3868 1.27377 73.7161 2.47372 76.8546 4.87363C80.0334 7.23353 81.602 10.7334 81.5605 15.3732C81.5192 19.973 79.8879 23.4729 76.6664 25.8728C73.4852 28.2327 69.1347 29.4126 63.6147 29.4126H50.6547L54.1669 25.8128L54.0105 43.2721H46.2105ZM54.1594 26.6528L50.7111 23.1129H63.6111C66.8111 23.1129 69.277 22.4529 71.0089 21.133C72.781 19.773 73.6781 17.8731 73.6999 15.4332C73.7218 12.9933 72.8585 11.1334 71.1099 9.85343C69.4018 8.53348 66.9477 7.87351 63.7477 7.87351L50.8477 7.87351L54.3621 4.03366L54.1594 26.6528ZM40.2664 37.0323L40.304 32.8325H67.304L67.2664 37.0323H40.2664Z" fill="#303436"/>
</svg>
