<svg width="568" height="170" viewBox="0 0 568 170" fill="none" xmlns="http://www.w3.org/2000/svg">
<path d="M15.0182 169.018C15.8567 170.115 17.4257 170.325 18.5226 169.486L36.3977 155.821C37.4946 154.983 37.704 153.414 36.8655 152.317C36.0269 151.22 34.4579 151.01 33.361 151.849L17.4721 163.996L5.32541 148.107C4.48686 147.01 2.91786 146.8 1.82096 147.639C0.72406 148.478 0.514626 150.047 1.35318 151.143L15.0182 169.018ZM19.4823 167.831C19.7148 166.089 19.9632 164.374 20.2274 162.683L15.2874 161.911C15.0173 163.639 14.7636 165.392 14.5263 167.169L19.4823 167.831ZM22.0002 152.84C22.6641 149.605 23.3913 146.472 24.1801 143.438L19.341 142.18C18.5296 145.301 17.7829 148.518 17.1023 151.835L22.0002 152.84ZM27.0146 133.749C28.0364 130.627 29.1312 127.622 30.2965 124.732L25.6591 122.862C24.4507 125.86 23.3179 128.97 22.2626 132.194L27.0146 133.749ZM34.4086 115.572C35.8793 112.621 37.4344 109.807 39.0707 107.122L34.8014 104.52C33.0893 107.328 31.4658 110.268 29.9336 113.342L34.4086 115.572ZM44.6077 98.9342C46.5832 96.2976 48.6523 93.8088 50.8111 91.4607L47.1303 88.0767C44.8572 90.5491 42.6812 93.1668 40.6063 95.936L44.6077 98.9342ZM57.7795 84.6304C60.2305 82.4671 62.7772 80.4485 65.4156 78.5672L62.5128 74.4961C59.7358 76.4762 57.0534 78.6022 54.4708 80.8818L57.7795 84.6304ZM73.6458 73.3024C76.4582 71.693 79.3594 70.212 82.3452 68.8525L80.2732 64.302C77.1526 65.7229 74.1139 67.2738 71.1624 68.9627L73.6458 73.3024ZM91.4361 65.1729C94.4965 64.0782 97.6334 63.0917 100.843 62.2069L99.5147 57.3867C96.1915 58.3027 92.9357 59.3263 89.7522 60.465L91.4361 65.1729ZM110.389 59.9134C113.602 59.248 116.879 58.6709 120.216 58.1764L119.483 53.2304C116.058 53.738 112.687 54.3315 109.375 55.0173L110.389 59.9134ZM129.952 56.9792C133.227 56.6546 136.553 56.3997 139.926 56.2095L139.645 51.2174C136.206 51.4114 132.809 51.6716 129.459 52.0036L129.952 56.9792ZM149.784 55.8359C153.085 55.7687 156.425 55.7561 159.803 55.7935L159.858 50.7938C156.432 50.7558 153.039 50.7686 149.683 50.8369L149.784 55.8359ZM169.704 56.0386C173.016 56.1636 176.358 56.3309 179.73 56.5365L180.035 51.5458C176.627 51.338 173.245 51.1687 169.893 51.0421L169.704 56.0386ZM189.63 57.2401C192.945 57.5075 196.286 57.8073 199.65 58.1357L200.136 53.1594C196.746 52.8284 193.378 52.5261 190.031 52.2563L189.63 57.2401ZM209.53 59.1726C212.844 59.5431 216.177 59.9375 219.527 60.3525L220.141 55.3904C216.773 54.9733 213.421 54.5765 210.086 54.2035L209.53 59.1726ZM229.402 61.6253C232.705 62.0666 236.022 62.5242 239.351 62.9952L240.052 58.0445C236.711 57.5719 233.381 57.1125 230.064 56.6694L229.402 61.6253ZM249.251 64.4266C252.547 64.9125 255.854 65.4083 259.169 65.911L259.919 60.9676C256.598 60.464 253.285 59.9671 249.98 59.48L249.251 64.4266ZM269.087 67.4293C272.384 67.9377 275.687 68.45 278.994 68.9632L279.761 64.0224C276.453 63.5091 273.148 62.9966 269.849 62.4877L269.087 67.4293ZM288.922 70.5019C292.226 71.0125 295.533 71.5212 298.841 72.0252L299.594 67.0822C296.291 66.579 292.987 66.0708 289.685 65.5605L288.922 70.5019ZM308.768 73.52C312.087 74.0132 315.406 74.4987 318.722 74.9736L319.431 70.0241C316.125 69.5506 312.815 69.0664 309.503 68.5743L308.768 73.52ZM328.664 76.364C331.997 76.818 335.326 77.2584 338.649 77.6821L339.281 72.7223C335.974 72.3005 332.659 71.862 329.339 71.4097L328.664 76.364ZM348.627 78.904C351.97 79.2954 355.305 79.6668 358.63 80.0152L359.151 75.0424C355.848 74.6963 352.533 74.3272 349.209 73.938L348.627 78.904ZM368.663 80.996C372.013 81.2989 375.352 81.575 378.677 81.821L379.046 76.8346C375.75 76.5907 372.438 76.3169 369.113 76.0163L368.663 80.996ZM388.772 82.4745C392.128 82.6593 395.469 82.8096 398.791 82.9219L398.96 77.9248C395.675 77.8138 392.37 77.6651 389.047 77.482L388.772 82.4745ZM408.945 83.1437C412.309 83.1752 415.652 83.1632 418.971 83.1039L418.882 78.1047C415.61 78.1631 412.313 78.175 408.992 78.1439L408.945 83.1437ZM429.151 82.766C432.521 82.6004 435.864 82.3805 439.177 82.1022L438.758 77.1198C435.506 77.393 432.221 77.6092 428.906 77.7721L429.151 82.766ZM449.322 81.0514C452.678 80.6352 456 80.1522 459.285 79.5979L458.453 74.6676C455.243 75.2092 451.993 75.6818 448.706 76.0894L449.322 81.0514ZM469.317 77.6527C472.628 76.9236 475.898 76.1133 479.122 75.2168L477.782 70.3995C474.649 71.2707 471.468 72.0592 468.242 72.7697L469.317 77.6527ZM488.892 72.1826C492.107 71.0741 495.271 69.8691 498.381 68.5621L496.444 63.9527C493.439 65.2156 490.377 66.3816 487.262 67.4556L488.892 72.1826ZM507.658 64.2721C510.691 62.7345 513.663 61.0868 516.573 59.3235L513.981 55.0475C511.182 56.7438 508.32 58.3305 505.397 59.8126L507.658 64.2721ZM525.099 53.6874C527.845 51.7117 530.525 49.6182 533.135 47.4017L529.899 43.5904C527.391 45.7194 524.817 47.7305 522.179 49.6289L525.099 53.6874ZM540.665 40.4669C543.038 38.0986 545.343 35.6127 547.577 33.0048L543.78 29.7517C541.63 32.2614 539.413 34.6518 537.133 36.9278L540.665 40.4669ZM553.945 24.9742C555.912 22.2936 557.813 19.5018 559.647 16.5954L555.418 13.9274C553.646 16.7365 551.81 19.4314 549.914 22.0162L553.945 24.9742ZM564.807 7.77992C565.634 6.2553 566.444 4.70277 567.238 3.12191L562.77 0.878536C561.999 2.41262 561.213 3.91817 560.412 5.39564L564.807 7.77992Z" fill="#577BFA"/>
</svg>
