<svg width="694" height="378" viewBox="0 0 694 378" fill="none" xmlns="http://www.w3.org/2000/svg">
<path d="M322.477 189.618C287.88 156.434 258.326 120.287 233.977 89.3004L231.878 86.6288C230.987 85.4905 228.896 82.8262 226.126 83.8168C225.977 83.8702 225.84 83.9529 225.724 84.0631C216.196 92.9161 206.979 102.105 198.064 110.991C185.092 123.923 171.676 137.294 157.316 149.604C153.992 152.453 150.936 153.964 148.914 154.962C148.232 155.302 147.691 155.565 147.257 155.826C146.893 156.043 146.652 156.414 146.601 156.843C146.422 158.299 149.82 162.431 160.442 173.33C160.929 172.716 161.425 172.102 161.97 171.544C155.27 164.663 150.415 159.43 149.194 157.448C149.425 157.333 149.679 157.205 149.949 157.07C152.076 156.021 155.291 154.432 158.839 151.39C173.269 139.02 186.713 125.618 199.717 112.656C208.554 103.85 217.687 94.7445 227.108 85.9779C228.081 85.8037 229.086 86.875 230.029 88.0784L232.127 90.753C256.527 121.802 286.146 158.031 320.849 191.315C321.315 191.762 322.058 191.747 322.509 191.28C322.959 190.809 322.944 190.066 322.477 189.618Z" fill="#303436"/>
<path d="M511.219 267.74C510.764 267.685 510.366 267.363 510.23 266.894C510.051 266.27 510.415 265.619 511.038 265.442L534.95 258.625C535.576 258.45 536.224 258.81 536.4 259.434C536.576 260.057 536.215 260.709 535.592 260.885L511.679 267.702C511.525 267.745 511.369 267.758 511.219 267.74Z" fill="#303436"/>
<path d="M247.974 120.284C247.477 120.702 247.41 121.439 247.827 121.936C260.098 136.62 272.776 151.782 285.841 166.841C287.759 168.879 289.647 170.914 291.514 172.93C299.551 181.602 307.14 189.795 315.953 196.807C316.129 196.946 316.332 197.03 316.54 197.055C316.931 197.102 317.337 196.953 317.6 196.621C318.003 196.111 317.918 195.375 317.412 194.969C308.74 188.067 301.206 179.937 293.233 171.331C291.359 169.311 289.47 167.27 287.579 165.263C274.557 150.252 261.887 135.101 249.625 120.424C249.211 119.93 248.474 119.866 247.974 120.284Z" fill="#303436"/>
<path d="M214.341 107.585C211.815 110.008 209.281 112.48 206.77 114.946C207.433 115.386 208.084 115.843 208.725 116.315C211.127 113.957 213.549 111.596 215.962 109.28C216.243 109.01 216.37 108.622 216.305 108.238C216.15 107.31 215.021 106.932 214.341 107.585Z" fill="#303436"/>
<path d="M508.766 268.824C504.457 268.304 498.16 263.126 495.974 261.223C495.486 260.798 495.433 260.056 495.859 259.564C496.286 259.076 497.025 259.022 497.516 259.448C502.347 263.651 508.699 267.528 510.096 266.359C511.02 265.589 512.538 260.546 493.283 228.045C487.325 217.982 479.145 203.954 471.926 191.572C463.772 177.584 456.727 165.503 455.358 163.385C455.172 163.102 455.122 162.751 455.214 162.424C455.306 162.097 455.534 161.829 455.84 161.683L477.793 151.274C478.378 150.997 479.077 151.246 479.356 151.832C479.633 152.418 479.383 153.121 478.798 153.398L458.033 163.243C460.373 167.095 466.727 177.991 473.951 190.386C481.165 202.761 489.344 216.789 495.301 226.846C514.594 259.416 514.144 266.035 511.596 268.164C510.851 268.785 509.875 268.958 508.766 268.824Z" fill="#303436"/>
<path d="M541.716 292.131C539.366 291.847 535.21 287.114 523.957 267.577C523.347 266.52 522.868 265.686 522.716 265.45C522.364 264.905 522.52 264.179 523.064 263.826C523.609 263.472 524.334 263.631 524.687 264.174C524.87 264.457 525.29 265.187 525.99 266.402C536.444 284.55 540.248 288.89 541.633 289.666C542.666 283.396 529.316 232.973 506.127 196.027C485.471 163.115 477.955 153.088 475.484 151.014C475.114 152.918 475.198 153.586 475.2 153.593C475.347 154.225 474.948 154.829 474.317 154.976C473.685 155.126 473.051 154.702 472.901 154.069C472.84 153.801 472.689 152.694 473.37 149.65C473.533 148.912 474.029 148.404 474.691 148.289C476.394 147.998 478.522 147.628 508.111 194.777C531.572 232.159 545.826 284.93 543.792 290.703C543.372 291.897 542.473 292.101 542.106 292.138C541.984 292.148 541.854 292.148 541.716 292.131Z" fill="#303436"/>
<path d="M168.774 150.408C168.499 150.633 168.34 150.971 168.341 151.325C168.342 151.678 168.503 152.015 168.78 152.237C171.176 154.166 172.366 157.119 171.987 160.155C172.849 159.486 173.638 158.728 174.34 157.9C174.086 155.455 173.042 153.165 171.306 151.369C178.721 145.247 185.898 138.575 192.907 131.811C194.063 129.889 195.017 127.875 195.91 125.819C195.962 125.698 196.02 125.575 196.075 125.454C187.263 134.077 178.196 142.716 168.774 150.408Z" fill="#303436"/>
<path d="M474.376 151.069C474.022 151.027 473.693 150.822 473.5 150.492C473.177 149.931 473.37 149.213 473.93 148.886C478.543 146.222 564.87 108.559 630.422 81.3605C631.019 81.1129 631.707 81.3948 631.954 81.9957C632.201 82.5936 631.917 83.2824 631.319 83.53C562.284 112.176 479.161 148.578 475.104 150.921C474.874 151.055 474.621 151.099 474.376 151.069Z" fill="#303436"/>
<path d="M542.549 291.477C542.142 291.428 541.777 291.17 541.605 290.767C541.355 290.169 541.634 289.48 542.231 289.229L672.66 234.363C673.254 234.112 673.946 234.391 674.196 234.989C674.446 235.588 674.168 236.277 673.57 236.528L543.142 291.394C542.949 291.476 542.744 291.501 542.549 291.477Z" fill="#303436"/>
<path d="M321.817 192.158C321.554 192.126 321.302 192.006 321.107 191.799C302.912 172.594 274.046 130.567 260.175 110.37C256.268 104.683 253.447 100.574 252.764 99.7586C252.217 99.1027 251.702 98.7705 251.229 98.763C250.117 98.7528 248.699 100.376 247.447 101.807C246.918 102.414 246.371 103.04 245.826 103.573C245.362 104.026 244.622 104.018 244.167 103.553C243.715 103.088 243.724 102.345 244.188 101.892C244.669 101.422 245.162 100.858 245.681 100.259C247.343 98.3556 249.06 96.3902 251.255 96.4133C252.447 96.427 253.557 97.0422 254.568 98.2477C255.321 99.1488 257.876 102.869 262.113 109.036C275.95 129.183 304.747 171.109 322.815 190.18C323.261 190.65 323.242 191.396 322.769 191.842C322.503 192.095 322.153 192.199 321.817 192.158Z" fill="#303436"/>
<path d="M231.668 261.293C231.463 261.269 231.262 261.188 231.089 261.056C229.222 259.601 224.936 256.606 220.787 253.712C216.85 250.964 213.13 248.366 211.354 247.003C199.403 237.837 188.993 232.128 177.973 226.078C168.706 220.995 159.123 215.736 148.44 208.207L146 206.49C143.817 204.954 141.631 203.417 139.455 201.869C139.195 201.686 138.876 201.482 138.53 201.267C137.077 200.356 135.267 199.221 134.918 197.596C134.765 196.882 134.915 196.159 135.35 195.503C135.933 194.63 137.007 193.928 137.953 193.31C138.361 193.043 138.748 192.791 139.015 192.575C141.334 190.711 143.68 188.716 146.19 186.471C164.507 170.1 180.15 150.97 192.676 129.613C194.734 126.103 196.712 122.515 198.554 118.944C198.736 118.591 198.974 118.011 199.225 117.396C200.387 114.553 201.98 110.661 204.766 111.513C205.858 111.846 206.929 113.04 207.874 114.098C208.193 114.456 208.496 114.794 208.703 114.984C215.668 121.363 223.021 127.963 231.183 135.157C259.531 160.148 285.459 181.523 310.455 200.507C310.972 200.899 311.072 201.637 310.681 202.155C310.29 202.673 309.552 202.776 309.038 202.382C283.997 183.364 258.023 161.953 229.634 136.922C221.46 129.717 214.096 123.107 207.12 116.717C206.827 116.449 206.502 116.087 206.128 115.666C205.576 115.05 204.549 113.901 204.082 113.761C203.802 113.671 203.09 114.15 201.396 118.285C201.114 118.977 200.868 119.575 200.638 120.022C198.776 123.627 196.778 127.256 194.697 130.801C182.043 152.369 166.249 171.689 147.748 188.223C145.208 190.493 142.83 192.515 140.481 194.407C140.123 194.696 139.69 194.975 139.232 195.277C138.511 195.749 137.612 196.335 137.298 196.807C137.181 196.982 137.2 197.058 137.207 197.103C137.348 197.756 138.864 198.706 139.769 199.275C140.155 199.517 140.515 199.744 140.806 199.95C142.979 201.494 145.159 203.03 147.339 204.566L149.779 206.286C160.353 213.737 169.879 218.964 179.091 224.016C190.192 230.106 200.677 235.858 212.773 245.136C214.507 246.466 218.204 249.048 222.121 251.781C226.293 254.694 230.607 257.707 232.523 259.199C233.036 259.596 233.126 260.337 232.727 260.847C232.472 261.186 232.062 261.341 231.668 261.293Z" fill="#303436"/>
<path d="M390.223 222.189C385.963 221.674 381.18 220.153 376.205 217.63C363.714 210.872 357.332 202.962 352.203 196.606C347.742 191.079 344.22 186.714 338.381 185.214C337.374 185.105 331.85 187.253 328.548 188.533C324.771 190.001 322.399 190.906 321.283 191.054C320.641 191.138 320.05 190.685 319.967 190.041C319.883 189.398 320.336 188.807 320.979 188.723C321.87 188.608 324.968 187.402 327.7 186.341C334.255 183.794 337.495 182.639 338.911 182.925C345.555 184.628 349.481 189.495 354.028 195.125C359.024 201.319 365.246 209.027 377.294 215.545C390.046 222.012 399.242 220.671 402.686 216.472C405.86 212.603 404.719 206.418 399.637 199.931C395.35 194.459 391.626 188.792 388.022 183.309C380.712 172.189 374.401 162.583 366.125 158.662C350.043 150.84 324.604 150.197 304.164 149.683C298.742 149.546 293.623 149.418 289.015 149.168C288.382 149.145 287.871 148.58 287.906 147.933C287.941 147.285 288.494 146.787 289.141 146.822C293.718 147.067 298.821 147.197 304.225 147.331C324.891 147.854 350.614 148.504 367.141 156.541C376.001 160.737 382.48 170.596 389.983 182.013C393.558 187.454 397.256 193.079 401.484 198.475C407.294 205.891 408.42 213.173 404.5 217.954C401.568 221.539 396.46 222.942 390.223 222.189Z" fill="#303436"/>
<path d="M422.541 165.358C420.13 165.067 417.976 164.67 416.264 164.143C416.216 164.128 416.171 164.11 416.127 164.093C371.708 144.044 357.782 154.175 357.648 154.28C357.139 154.674 356.402 154.586 356.005 154.078C355.607 153.571 355.686 152.841 356.191 152.437C356.774 151.967 371.046 141.183 417.026 161.917C427.433 165.077 455.791 163.136 456.076 163.115C456.726 163.069 457.284 163.559 457.327 164.204C457.373 164.852 456.884 165.413 456.24 165.456C455.239 165.531 435.271 166.896 422.541 165.358Z" fill="#303436"/>
<path d="M267.865 314.769C262.888 314.167 258.864 312.058 256.597 308.727C253.711 304.485 253.879 298.714 257.072 292.476C260.039 287.346 267.34 282.241 267.648 282.027C268.183 281.66 268.914 281.791 269.281 282.323C269.65 282.858 269.518 283.59 268.984 283.957C268.913 284.008 261.804 288.981 259.132 293.6C256.379 298.985 256.156 303.906 258.537 307.403C261.148 311.241 266.739 313.134 273.489 312.462C282.304 311.59 292.48 309.219 303.254 306.709C309.188 305.325 315.326 303.897 321.77 302.577C322.406 302.446 323.023 302.856 323.153 303.492C323.284 304.129 322.874 304.75 322.239 304.878C315.827 306.189 309.705 307.616 303.787 308.996C292.937 311.525 282.69 313.912 273.722 314.8C271.669 315.008 269.702 314.991 267.865 314.769Z" fill="#303436"/>
<path d="M231.472 293.579C227.313 293.077 223.933 290.849 221.323 285.456C216.056 276.321 220.714 266.553 235.6 255.672C236.617 254.951 238.203 253.86 240.257 252.46L242.406 250.997C260.789 238.465 303.843 209.12 322.164 189.053C322.6 188.572 323.345 188.541 323.822 188.977C324.3 189.413 324.334 190.159 323.898 190.637C305.391 210.908 262.181 240.362 243.727 252.939L241.582 254.402C239.544 255.795 237.969 256.874 236.975 257.583C223.249 267.617 218.805 276.38 223.403 284.36C227.961 293.773 234.59 292.019 246.629 288.836C247.737 288.545 248.884 288.243 250.065 287.938C262.894 284.376 298.826 270.15 304.807 267.625C305.405 267.372 306.091 267.653 306.344 268.252C306.594 268.85 306.315 269.54 305.718 269.79C300.847 271.846 264.295 286.426 250.668 290.209C249.468 290.517 248.328 290.817 247.226 291.109C241.103 292.722 235.854 294.109 231.472 293.579Z" fill="#303436"/>
<path d="M307.4 327.206C298.566 326.139 291.03 318.07 289.588 310.993C289.457 310.356 289.867 309.735 290.502 309.607C291.138 309.476 291.758 309.886 291.886 310.523C293.225 317.094 300.493 324.612 308.802 324.967C311.798 324.829 318.122 324.302 324.235 323.793C327.37 323.532 330.446 323.274 332.997 323.076C333.645 323.024 334.206 323.511 334.258 324.156C334.307 324.802 333.823 325.37 333.179 325.42C330.631 325.618 327.559 325.874 324.43 326.135C318.26 326.65 311.877 327.182 308.856 327.317C308.825 327.316 308.791 327.318 308.76 327.318C308.307 327.297 307.852 327.261 307.4 327.206Z" fill="#303436"/>
<path d="M444.342 293.076C443.926 293.026 443.553 292.755 443.389 292.341C443.152 291.735 443.452 291.054 444.054 290.819C459.029 284.94 486.84 271.824 504.848 250.056C505.262 249.556 506.002 249.488 506.501 249.899C507 250.313 507.069 251.054 506.658 251.553C488.312 273.728 460.096 287.043 444.912 293.006C444.723 293.079 444.528 293.099 444.342 293.076Z" fill="#303436"/>
<path d="M334.89 333.474C334.667 333.447 334.452 333.355 334.269 333.2C332.912 332.036 329.394 329.82 326.565 328.038C325.292 327.236 324.128 326.502 323.284 325.944C322.744 325.587 322.593 324.858 322.95 324.317C323.307 323.774 324.035 323.626 324.575 323.983C325.407 324.534 326.557 325.256 327.813 326.047C330.856 327.964 334.304 330.137 335.793 331.413C336.285 331.836 336.341 332.578 335.922 333.07C335.658 333.383 335.266 333.519 334.89 333.474Z" fill="#303436"/>
<path d="M431.028 313.587C424.238 312.767 420.414 306.103 416.68 299.593L416.086 298.559C411.196 289.274 403.048 273.806 414.076 267.415C418.432 264.72 424.387 263.648 435.514 276.052C435.645 276.195 449.542 291.529 447.613 302.955C447.026 306.428 445.035 309.106 441.694 310.912C437.433 313.209 433.955 313.941 431.028 313.587ZM420.49 268.113C418.415 267.862 416.769 268.507 415.294 269.422C406.871 274.289 412.346 286.426 418.136 297.422L418.713 298.423C424.153 307.902 428.447 315.392 440.577 308.84C443.287 307.377 444.831 305.322 445.298 302.563C446.74 294.012 437.468 281.664 433.773 277.63C427.77 270.936 423.638 268.493 420.49 268.113Z" fill="#303436"/>
<path d="M404.5 328.525C403.77 328.437 403.05 328.288 402.343 328.081C396.923 326.495 392.24 321.351 388.797 313.206C381.571 300.882 375.344 290.244 377.555 282.717C378.419 279.773 380.561 277.421 383.916 275.725C391.178 272.049 398.443 274.684 406.131 283.776C414.399 292.991 424.034 306.09 422.853 316.017C422.436 319.521 420.695 322.352 417.676 324.43C413.012 327.644 408.589 329.019 404.5 328.525ZM391.467 276.529C388.83 276.21 386.681 276.959 384.977 277.821C382.183 279.234 380.494 281.054 379.81 283.38C377.879 289.945 383.897 300.204 390.861 312.083C390.887 312.127 390.909 312.173 390.931 312.222C393.138 317.461 397.02 324.076 403.003 325.827C406.965 326.985 411.459 325.868 416.353 322.495C418.825 320.792 420.19 318.582 420.53 315.739C421.368 308.677 415.629 297.874 404.366 285.32C399.169 279.17 394.902 276.944 391.467 276.529Z" fill="#303436"/>
<path d="M373.998 338.329C371.914 338.077 369.983 337.437 368.219 336.408C360.483 331.891 357.724 320.933 356.244 315.043C355.795 313.238 355.34 311.491 354.902 309.802C351.378 296.244 348.595 285.534 359.351 281.681C365.433 279.504 370.334 282.517 378.084 293.197C381.84 298.832 388.054 310.962 389.547 318.266C390.882 323.279 392.003 328.576 389.653 332.579C388.221 335.013 385.725 336.651 382.022 337.585C379.148 338.38 376.464 338.627 373.998 338.329ZM363.591 283.388C362.319 283.234 361.213 283.511 360.144 283.893C351.799 286.88 353.387 294.63 357.178 309.208C357.618 310.903 358.076 312.66 358.524 314.471C359.921 320.022 362.522 330.359 369.404 334.375C372.688 336.29 376.73 336.607 381.422 335.315C384.511 334.537 386.533 333.254 387.629 331.387C389.522 328.164 388.485 323.405 387.265 318.803C385.871 311.989 379.861 300.095 376.161 294.539C370.135 286.24 366.442 283.733 363.591 283.388Z" fill="#303436"/>
<path d="M345.044 340.092C342.655 339.803 340.557 338.997 338.782 337.681C332.883 333.309 331.731 324.109 331.044 318.609C329.718 306.663 330.429 299.958 337.995 296.408C342.403 294.548 345.838 294.261 348.546 295.51C350.992 296.641 352.806 299.027 353.934 302.596C356.814 311.713 358.772 319.268 359.597 324.446C360.149 330.038 360.97 338.385 350.913 339.867C348.8 340.236 346.841 340.309 345.044 340.092ZM338.968 298.547C333.228 301.252 331.971 305.697 333.374 318.335C334.013 323.444 335.085 332.02 340.179 335.792C342.794 337.731 346.182 338.302 350.542 337.55C357.853 336.472 357.94 331.565 357.269 324.752C356.474 319.755 354.542 312.317 351.696 303.31C350.774 300.395 349.386 298.489 347.562 297.648C345.493 296.687 342.682 296.984 338.968 298.547Z" fill="#303436"/>
<path d="M388.875 320.618C388.508 320.574 388.168 320.359 387.981 320.007C387.675 319.436 387.888 318.723 388.462 318.417L391.151 316.973C391.725 316.663 392.433 316.882 392.739 317.453C393.045 318.024 392.832 318.737 392.259 319.043L389.57 320.488C389.351 320.604 389.107 320.646 388.875 320.618Z" fill="#303436"/>
<path d="M405.132 120.379C404.927 120.354 404.726 120.274 404.55 120.138C404.043 119.738 403.949 119.01 404.345 118.499C404.599 118.169 405.638 117.109 407.964 114.746C413.291 109.327 424.376 98.052 427.035 93.8787C427.552 93.0659 427.556 92.6721 427.514 92.5894C427.193 91.9609 424.302 91.7916 422.914 91.7077C420.267 91.5492 417.982 91.416 417.219 89.9022C415.508 86.5108 426.962 73.6753 431.966 68.314C432.408 67.8397 433.149 67.8113 433.625 68.2569C434.099 68.699 434.124 69.4438 433.682 69.9181C425.79 78.3758 419.288 86.9737 419.345 88.8646C419.767 89.164 421.82 89.2879 423.058 89.3629C425.945 89.5349 428.678 89.6975 429.608 91.5233C430.114 92.5156 429.915 93.7331 429.016 95.1423C426.223 99.523 415.435 110.499 409.641 116.395C407.979 118.087 406.41 119.683 406.198 119.943C405.935 120.274 405.526 120.426 405.132 120.379Z" fill="#303436"/>
<path d="M342.118 112.281C341.656 112.225 341.25 111.893 341.125 111.416C341.056 111.159 334.243 85.5879 331.005 79.774C330.598 78.9891 330.336 78.8178 330.254 78.8078C329.622 78.778 328.085 81.1593 327.348 82.3057C325.844 84.6383 324.544 86.6539 322.756 86.4379C318.777 85.9572 313.34 69.7616 311.19 62.8189C310.998 62.1997 311.344 61.5401 311.963 61.3479C312.581 61.1557 313.24 61.5022 313.432 62.1214C316.923 73.3824 321.277 83.357 323.009 84.0877C323.562 83.8442 324.695 82.0907 325.378 81.0309C326.924 78.632 328.385 76.3658 330.367 76.4594C331.449 76.5094 332.346 77.2509 333.075 78.6582C336.435 84.6949 343.112 109.744 343.396 110.809C343.562 111.434 343.19 112.078 342.562 112.244C342.411 112.288 342.261 112.298 342.118 112.281Z" fill="#303436"/>
<path d="M377.192 110.332C376.548 110.254 376.091 109.669 376.169 109.026C376.208 108.705 376.379 107.642 376.663 105.882C377.907 98.1827 381.211 77.7356 380.942 71.703C380.87 70.7569 380.628 70.2962 380.429 70.1977C379.613 69.7918 377.025 71.4284 375.478 72.4024C372.961 73.9886 370.79 75.3559 369.187 74.38C366.773 72.9088 366.65 63.045 368.824 45.0592C368.902 44.4136 369.487 43.9567 370.129 44.0342C370.773 44.1121 371.23 44.698 371.152 45.3405C369.232 61.2337 369.335 71.0518 370.408 72.3609C371.049 72.4166 373.029 71.1691 374.227 70.4167C376.817 68.7866 379.495 67.1019 381.483 68.0994C382.541 68.6308 383.147 69.7967 383.284 71.5608C383.566 77.8742 380.354 97.7645 378.98 106.259C378.721 107.869 378.533 109.035 378.5 109.311C378.42 109.95 377.837 110.41 377.192 110.332Z" fill="#303436"/>
<path d="M260.961 290.341C260.915 290.336 260.872 290.328 260.824 290.316C259.797 290.067 256.9 288.587 256.122 287.969C255.613 287.566 255.525 286.829 255.928 286.319C256.331 285.809 257.07 285.721 257.576 286.124C258.151 286.578 260.741 287.878 261.373 288.029C262.003 288.18 262.391 288.816 262.241 289.447C262.101 290.035 261.544 290.412 260.961 290.341Z" fill="#303436"/>
<path d="M215.305 94.5716C215.11 94.548 214.92 94.4754 214.752 94.3526C209.736 90.655 206.632 88.4456 205.534 87.7821C201.85 85.5553 139.6 39.833 137.561 36.7713C136.732 35.7027 126.261 26.96 106.454 10.8068C105.951 10.3984 105.877 9.65686 106.285 9.15365C106.696 8.65081 107.434 8.57543 107.936 8.9838C134.822 30.9059 138.987 34.6714 139.514 35.4646C141.511 37.9222 199.967 81.6681 206.749 85.7653C207.925 86.4755 210.999 88.6659 216.144 92.4566C216.664 92.8424 216.777 93.5761 216.392 94.0976C216.131 94.4572 215.712 94.6207 215.305 94.5716Z" fill="#303436"/>
<path d="M153.561 252.048C152.843 251.961 152.18 251.67 151.623 251.172L141.844 242.404C141.36 241.97 141.319 241.229 141.753 240.745C142.186 240.263 142.929 240.222 143.41 240.653L153.19 249.421C153.931 250.085 155.014 249.514 155.445 249.234C155.879 248.951 156.322 248.672 156.775 248.389C161.556 245.378 167.506 241.631 177.744 226.028C178.098 225.485 178.826 225.334 179.369 225.691C179.912 226.048 180.063 226.774 179.706 227.318C169.19 243.346 162.999 247.244 158.026 250.378C157.579 250.659 157.146 250.932 156.719 251.207C155.66 251.889 154.56 252.169 153.561 252.048Z" fill="#303436"/>
<path d="M225.072 266.44C224.892 266.419 224.716 266.357 224.556 266.248C210.866 256.995 199.933 246.483 190.148 233.164C189.765 232.643 189.876 231.905 190.399 231.522C190.92 231.137 191.657 231.248 192.04 231.773C201.663 244.87 212.412 255.208 225.873 264.302C226.409 264.665 226.55 265.396 226.187 265.933C225.931 266.311 225.494 266.491 225.072 266.44Z" fill="#303436"/>
<path d="M132.42 250.295C132.249 250.274 132.079 250.213 131.93 250.118C131.584 249.899 97.1946 227.803 70.7034 204.488C56.8816 192.327 34.3351 175.163 17.8519 162.909C17.3315 162.52 17.2251 161.784 17.6102 161.266C17.9956 160.744 18.7339 160.638 19.2517 161.023C35.7686 173.306 58.3691 190.51 72.2496 202.726C96.6163 224.173 127.726 244.597 132.553 247.728C138.392 243.744 149.333 232.64 161.378 216.083C161.761 215.558 162.495 215.442 163.019 215.825C163.543 216.208 163.659 216.942 163.276 217.467C150.609 234.884 139.037 246.417 133.188 250.124C132.953 250.269 132.683 250.327 132.42 250.295Z" fill="#303436"/>
<path d="M506.115 248.94C504.743 251.388 503.023 253.641 501.24 255.8C499.888 257.44 498.47 259.02 497.023 260.574C499.774 262.902 521.731 280.895 506.115 248.94Z" fill="#303436"/>
<path d="M536.263 260.588C536.263 260.588 532.49 261.333 529.037 262.198C526.166 262.916 523.514 263.722 523.45 264.251L523.702 264.812C524.903 266.677 540.799 295.665 542.686 290.312C543.526 287.902 541.187 276.162 536.263 260.588Z" fill="#303436"/>
<path d="M235.303 255.717C215.304 236.381 198.948 227.104 183.128 218.134C176.489 214.367 169.659 210.494 162.558 205.88C162.006 205.522 161.268 205.684 160.921 206.244C160.582 206.787 160.741 207.504 161.278 207.852C168.437 212.5 175.299 216.393 181.972 220.179C198.387 229.488 213.89 238.28 233.675 257.411C233.867 257.595 234.105 257.701 234.349 257.731C234.701 257.773 235.068 257.656 235.334 257.381C235.782 256.911 235.766 256.167 235.303 255.717Z" fill="#303436"/>
<path d="M192.36 143.627C191.764 145.013 191.13 146.315 190.511 147.255C190.491 147.287 190.472 147.319 190.452 147.354C183.012 161.276 171.627 171.829 160.615 182.039C159.965 182.644 159.316 183.242 158.673 183.844C158.041 184.432 158.237 185.477 159.038 185.797C159.458 185.966 159.937 185.875 160.272 185.568C160.915 184.969 161.561 184.37 162.211 183.766C173.352 173.438 184.873 162.758 192.498 148.513C193.187 147.457 193.878 146.045 194.513 144.56C194.681 144.171 194.618 143.719 194.358 143.384C193.811 142.672 192.71 142.809 192.36 143.627Z" fill="#303436"/>
<path d="M222.884 139.39C222.459 139.882 222.515 140.621 223.003 141.047C225.33 143.06 227.654 145.073 229.978 147.088C235.183 151.604 240.388 156.125 245.587 160.649C254.713 168.589 263.835 176.542 272.953 184.494L277.449 188.415C283.642 193.816 290.461 198.454 297.053 202.939C299.17 204.38 301.29 205.822 303.398 207.293C303.995 207.71 304.846 207.493 305.152 206.785C305.375 206.272 305.172 205.667 304.715 205.345C302.608 203.874 300.491 202.432 298.373 200.994C291.839 196.547 285.081 191.947 278.991 186.639L274.495 182.719C265.376 174.766 256.254 166.814 247.125 158.873C241.924 154.349 236.722 149.828 231.513 145.309C229.19 143.293 226.866 141.28 224.539 139.267C224.05 138.845 223.309 138.898 222.884 139.39Z" fill="#303436"/>
</svg>
