<svg width="304" height="372" viewBox="0 0 304 372" fill="none" xmlns="http://www.w3.org/2000/svg">
<g clip-path="url(#clip0_1974_1278)">
<path d="M111.076 117.909C110.975 117.909 110.875 117.9 110.772 117.883C110.237 117.787 109.776 117.435 109.535 116.939L101.198 99.6602C100.978 99.2072 101.167 98.6607 101.621 98.4402C102.075 98.2197 102.617 98.4115 102.837 98.8644L111.104 115.997L124.903 102.675C125.264 102.325 125.842 102.337 126.191 102.699C126.54 103.064 126.53 103.641 126.167 103.991L112.244 117.432C111.922 117.741 111.508 117.909 111.076 117.909Z" fill="#303436"/>
<path d="M106.631 86.948C106.39 86.948 106.151 86.8522 105.972 86.6652C105.625 86.3009 105.64 85.7209 106.003 85.3734C106.479 84.918 106.825 84.5561 107.176 84.187C107.563 83.7819 107.96 83.3673 108.526 82.8256C108.889 82.4781 109.465 82.4924 109.814 82.8591C110.161 83.2234 110.146 83.8035 109.781 84.151C109.238 84.6687 108.861 85.0642 108.49 85.4501C108.12 85.8383 107.757 86.2194 107.257 86.6964C107.083 86.8642 106.858 86.948 106.631 86.948Z" fill="#303436"/>
<path d="M114.705 79.2493C114.464 79.2493 114.225 79.1534 114.046 78.964C113.699 78.5973 113.714 78.0197 114.079 77.6722C118.177 73.7654 124.356 67.8741 124.827 67.3636C125.116 67.0041 125.637 66.9154 126.031 67.1719C126.454 67.4475 126.573 68.0132 126.299 68.435C126.179 68.6195 126.119 68.7106 115.331 78.9976C115.157 79.1654 114.93 79.2493 114.705 79.2493Z" fill="#303436"/>
<path d="M109.618 118.583C108.784 118.583 108.005 118.104 107.623 117.33L98.9209 99.7085C98.6986 99.2555 98.8826 98.709 99.3318 98.4837C99.7834 98.2608 100.328 98.4454 100.553 98.896L109.253 116.517C109.334 116.68 109.499 116.778 109.661 116.752L110.717 116.618C111.219 116.551 111.671 116.91 111.735 117.411C111.797 117.912 111.444 118.37 110.944 118.432L109.888 118.566C109.8 118.578 109.709 118.583 109.618 118.583Z" fill="#303436"/>
<path d="M104.416 86.7298C104.178 86.7298 103.941 86.6363 103.762 86.4517C103.413 86.0898 103.42 85.5098 103.783 85.1599L106.545 82.4779C106.906 82.1279 107.484 82.1351 107.833 82.4994C108.182 82.8614 108.175 83.4414 107.812 83.7913L105.05 86.4733C104.873 86.6435 104.646 86.7298 104.416 86.7298Z" fill="#303436"/>
<path d="M112.638 78.7412C112.399 78.7412 112.163 78.6477 111.984 78.4632C111.635 78.1013 111.642 77.5212 112.005 77.1713L121.419 68.0228C121.78 67.6729 122.358 67.68 122.707 68.0444C123.056 68.4063 123.049 68.9863 122.686 69.3362L113.272 78.4847C113.095 78.6549 112.865 78.7412 112.638 78.7412Z" fill="#303436"/>
<path fill-rule="evenodd" clip-rule="evenodd" d="M142.353 123.204C142.353 123.204 152.219 122.648 159.473 120.347C166.321 118.195 174.731 110.76 174.731 110.76C174.731 110.76 165.888 123.798 158.292 127.427C151.103 130.905 142.506 129.388 142.506 129.388L142.353 123.204Z" fill="#303436"/>
<path fill-rule="evenodd" clip-rule="evenodd" d="M130.413 76.1409C130.437 74.1947 131.782 72.5913 133.125 72.7423C134.489 72.7015 135.66 74.3913 135.639 76.3399C135.615 78.286 134.27 79.8895 132.927 79.7385C131.369 79.7577 130.198 78.0655 130.413 76.1409Z" fill="#303436"/>
<path fill-rule="evenodd" clip-rule="evenodd" d="M154.393 76.0235C154.608 74.0989 155.953 72.4955 157.49 72.668C159.024 72.8406 160.197 74.5327 159.979 76.4573C159.764 78.3819 158.419 79.9854 156.883 79.8128C155.54 79.6618 154.369 77.9697 154.393 76.0235Z" fill="#303436"/>
<path d="M144.764 123.933C142.291 123.933 140.054 123.506 138.377 122.416C135.404 120.369 131.744 116.359 129.653 112.869C125.185 105.331 123.725 97.978 123.849 93.6063C123.825 90.5336 124.17 87.6071 124.502 84.7765C124.698 83.1084 124.898 81.3851 125.02 79.6666C125.204 76.5699 125.218 73.6986 125.233 70.6595L125.242 69.092C125.185 68.6102 125.192 68.0997 125.199 67.558C125.204 67.129 125.211 66.664 125.185 66.1535C125.159 65.6502 125.543 65.2188 126.045 65.1924C126.547 65.1637 126.977 65.5519 127.003 66.0553C127.034 66.6161 127.027 67.129 127.02 67.5796C127.013 68.0949 127.008 68.5407 127.056 68.9074C127.058 68.953 127.063 68.9937 127.065 69.0393L127.056 70.6667C127.039 73.7322 127.025 76.6275 126.839 79.784C126.714 81.5553 126.509 83.3025 126.313 84.9898C125.988 87.7653 125.651 90.6343 125.675 93.6254C125.563 97.5849 126.948 104.727 131.221 111.932C133.19 115.22 136.628 118.993 139.392 120.896C143.963 123.868 155.318 120.812 163.645 117.286C169.417 114.741 171.463 112.632 174.61 109.044C174.937 108.67 175.501 108.627 175.881 108.946C176.273 109.274 176.318 109.864 175.979 110.25C172.751 113.931 170.49 116.263 164.366 118.964C161.052 120.366 151.918 123.933 144.764 123.933Z" fill="#303436"/>
<path d="M183.317 99.1907C182.858 99.1907 182.466 98.8456 182.413 98.3782C182.356 97.8773 182.717 97.4243 183.216 97.3691C188.65 96.758 192.021 94.4882 193.835 90.2291C194.991 87.4393 194.728 84.3882 193.161 82.4636C191.816 80.8122 189.67 80.1746 187.118 80.6756C186.621 80.7714 186.146 80.4479 186.05 79.9541C185.954 79.458 186.275 78.9786 186.769 78.8828C190.012 78.25 192.781 79.1105 194.573 81.3107C196.59 83.789 196.95 87.48 195.514 90.9434C193.445 95.8112 189.488 98.5052 183.422 99.1883C183.383 99.1883 183.35 99.1907 183.317 99.1907Z" fill="#303436"/>
<path d="M186.396 90.7635C186.227 90.7635 186.052 90.7156 185.9 90.6149C185.479 90.3393 185.36 89.776 185.632 89.3542C185.675 89.2871 186.733 87.6741 188.585 86.7848C189.037 86.5667 189.584 86.7585 189.799 87.2139C190.016 87.6693 189.825 88.2157 189.371 88.4338C187.995 89.0953 187.166 90.3393 187.156 90.3537C186.984 90.6197 186.693 90.7635 186.396 90.7635Z" fill="#303436"/>
<path d="M139.634 93.7666C139.349 93.7666 139.07 93.6324 138.891 93.3831C135.839 89.0857 137.192 87.5853 139.282 86.0681C140.178 85.4162 141.106 84.7451 141.533 83.5084C142.52 80.5196 142.283 76.8573 140.847 72.9361C140.673 72.4616 140.917 71.9367 141.39 71.7641C141.858 71.5916 142.384 71.8336 142.558 72.3082C144.138 76.6224 144.379 80.6993 143.258 84.098C142.637 85.8908 141.368 86.8111 140.35 87.5517C138.778 88.6926 138.128 89.1648 140.374 92.3261C140.666 92.7384 140.57 93.3088 140.162 93.6012C140.002 93.7115 139.818 93.7666 139.634 93.7666Z" fill="#303436"/>
<path d="M160.381 63.864C160.197 63.864 160.01 63.8089 159.848 63.6914C159.683 63.574 155.889 60.928 150.474 63.0275C150.006 63.2097 149.478 62.9772 149.296 62.505C149.115 62.0353 149.349 61.5056 149.817 61.3234C156.195 58.8451 160.727 62.0736 160.916 62.2126C161.322 62.5098 161.413 63.0803 161.117 63.4901C160.94 63.7322 160.663 63.864 160.381 63.864Z" fill="#303436"/>
<path d="M135.034 63.5411C134.879 63.5411 134.721 63.5003 134.578 63.4164C130.516 61.0484 127.221 62.858 127.187 62.8772C126.748 63.124 126.193 62.9706 125.947 62.5296C125.701 62.091 125.854 61.5326 126.294 61.2857C126.466 61.1898 130.54 58.9488 135.493 61.8346C135.928 62.0886 136.076 62.6471 135.823 63.0833C135.653 63.3781 135.347 63.5411 135.034 63.5411Z" fill="#303436"/>
<path d="M143.359 110.189C136.96 110.189 133.856 103.294 133.099 99.5451C133.039 99.2503 133.13 98.9435 133.338 98.7278C133.548 98.5121 133.851 98.4115 134.145 98.4642C134.188 98.4714 138.551 99.2144 143.249 99.4061C147.925 99.4061 152.708 98.469 152.756 98.4594C153.055 98.3995 153.37 98.4953 153.585 98.7182C153.8 98.9387 153.889 99.2551 153.822 99.5571C153.729 99.9694 151.466 109.64 143.901 110.172C143.717 110.184 143.536 110.189 143.359 110.189ZM135.244 100.48C136.076 103.085 138.477 108.672 143.784 108.349C148.47 108.018 150.78 102.985 151.638 100.509C149.812 100.799 146.544 101.232 143.249 101.232C143.232 101.232 143.213 101.232 143.196 101.232C139.959 101.101 136.938 100.724 135.244 100.48Z" fill="#303436"/>
<path d="M180.796 79.6379C172.376 79.6379 165.351 70.3408 162.175 61.0077C161.463 58.9824 160.847 57.053 160.3 55.3489C158.577 49.9777 157.334 46.0949 155.174 45.1985C154.078 44.7455 152.587 45.0211 150.613 46.0422C150.166 46.2747 149.617 46.0973 149.385 45.6491C149.155 45.2009 149.33 44.6496 149.777 44.4172C152.29 43.1157 154.228 42.8281 155.87 43.5088C158.813 44.7287 160.094 48.7314 162.034 54.788C162.577 56.4802 163.191 58.3976 163.896 60.4085C167.1 69.823 174.328 79.2256 182.636 77.6342C183.135 77.5383 183.608 77.8643 183.701 78.3604C183.797 78.8565 183.472 79.3335 182.977 79.4294C182.241 79.5708 181.513 79.6379 180.796 79.6379Z" fill="#303436"/>
<path d="M112.571 73.2117C112.096 73.2117 111.697 72.8426 111.663 72.3609C110.951 61.9876 116.132 43.2831 122.32 33.8757C124.905 29.2763 127.173 26.2228 130.389 25.3887C133.899 24.4803 138.033 26.4074 143.564 29.8156C143.992 30.0792 144.128 30.6425 143.863 31.0715C143.6 31.5029 143.039 31.6347 142.608 31.3711C136.635 27.692 133.338 26.5104 130.843 27.1576C128.604 27.7376 126.65 29.8899 123.873 34.8297C117.826 44.0285 112.791 62.1817 113.479 72.2386C113.513 72.742 113.135 73.1782 112.634 73.2141C112.614 73.2093 112.593 73.2117 112.571 73.2117Z" fill="#303436"/>
<path d="M117.809 71.0643C117.424 71.0643 117.068 70.8198 116.944 70.4339C116.789 69.9545 117.049 69.4392 117.527 69.2811C117.94 69.1468 118.354 69.0246 118.767 68.9048C121.314 68.1618 123.72 67.4571 126.59 63.0207C129.376 58.5962 131.517 54.2029 133.787 49.5531C134.563 47.9617 135.352 46.3462 136.181 44.6973C136.793 43.4701 139.063 39.4315 142.482 39.0361C144.286 38.8251 145.994 39.6688 147.55 41.5407C147.872 41.929 147.82 42.5042 147.433 42.8278C147.046 43.1513 146.472 43.0986 146.15 42.7103C145.012 41.3418 143.853 40.721 142.69 40.8504C140.695 41.0829 138.86 43.4126 137.806 45.5194C136.979 47.1635 136.195 48.7718 135.421 50.3561C133.13 55.0514 130.967 59.4854 128.124 64.0033C124.879 69.0198 121.902 69.8898 119.276 70.6568C118.882 70.7719 118.485 70.8869 118.091 71.0163C117.998 71.0475 117.905 71.0643 117.809 71.0643Z" fill="#303436"/>
<path d="M86.4602 115.714C86.3216 115.714 86.1806 115.683 86.0492 115.616C85.6 115.388 85.4208 114.837 85.6478 114.389C86.7923 112.121 87.5641 109.71 87.8771 107.417L88.6059 101.111C88.6632 100.61 89.1148 100.245 89.6166 100.308C90.116 100.365 90.4744 100.821 90.417 101.322L89.6859 107.647C89.3442 110.158 88.5103 112.769 87.275 115.216C87.1125 115.53 86.7923 115.714 86.4602 115.714Z" fill="#303436"/>
<path d="M93.3607 90.6843C93.1672 90.6843 92.9713 90.622 92.8064 90.495C92.4074 90.1882 92.3309 89.6153 92.6367 89.2127C93.6021 87.9472 94.694 86.5666 95.7836 85.1885C96.5338 84.2394 97.2817 83.2902 97.9914 82.3795C98.6676 81.5094 99.4513 80.7209 100.323 80.033C101.399 79.1845 102.147 78.5782 103.098 77.7896C104.304 76.7926 106.464 76.143 108.02 76.318C112.923 76.8621 114.199 77.1257 114.839 77.4229C115.362 77.665 115.757 78.0509 116.074 78.3577L120.726 82.866C121.238 83.3621 122.595 84.678 121.601 86.2838C121.183 86.9573 120.406 87.3887 119.522 87.4343C116.889 87.5781 114.206 86.6673 112.149 84.9416C111.697 84.5629 111.176 84.3304 110.646 84.2681C110.426 84.2418 107.188 83.736 106.541 83.6354C106.044 83.5587 105.704 83.0913 105.781 82.5928C105.857 82.0942 106.323 81.7539 106.82 81.8306C108.345 82.0703 110.677 82.4322 110.858 82.4538C111.74 82.5568 112.591 82.9331 113.315 83.5419C115.023 84.9728 117.247 85.7278 119.422 85.6127C119.709 85.5983 119.95 85.4857 120.053 85.3203C120.148 85.1645 120.27 84.9704 119.46 84.1842L114.808 79.6759C114.567 79.441 114.316 79.1989 114.072 79.0863C113.436 78.7915 110.397 78.4248 107.819 78.1395C106.748 78.0173 105.085 78.5182 104.259 79.2037C103.296 80.0018 102.538 80.613 101.451 81.4735C100.696 82.0703 100.015 82.7534 99.4298 83.5059C98.7177 84.4215 97.9651 85.373 97.2124 86.3246C96.1276 87.6979 95.0453 89.0689 94.0847 90.3272C93.9055 90.5621 93.6331 90.6843 93.3607 90.6843Z" fill="#303436"/>
<path d="M65.0536 122.434C64.8433 122.434 64.6307 122.36 64.4563 122.212C64.0763 121.881 64.0357 121.303 64.3655 120.922C66.4036 118.564 67.7679 116.042 68.9722 113.818C69.9208 112.064 70.8192 110.407 71.9135 109.053C72.6328 108.166 73.3806 107.301 74.1046 106.467C76.5179 103.684 78.6062 101.417 80.6253 99.2216C82.6085 97.0669 84.6586 94.8403 87.0121 92.1295C87.1077 91.9737 87.2463 91.8491 87.4183 91.7748C90.4433 89.8933 93.485 90.5812 96.173 91.1876C97.3462 91.4536 98.4549 91.7029 99.4417 91.7077C100.572 91.7125 102.995 92.7718 107.176 94.6413C109.558 95.7055 112.261 96.9135 114.586 97.7955C115.279 98.0591 115.807 98.6536 115.998 99.3846C116.191 100.132 116.015 100.928 115.525 101.513C114.87 102.292 113.599 103.155 111.267 102.824C111.076 102.798 110.882 102.771 110.691 102.747C109.934 102.649 109.15 102.551 108.366 102.297L101.693 100.149C101.253 100.008 99.4728 100.082 97.75 100.154C95.9699 100.228 93.755 100.319 91.5496 100.267C91.0454 100.255 90.6488 99.8352 90.6607 99.3318C90.6727 98.8261 91.0836 98.4043 91.5926 98.4402C93.7359 98.4906 95.9198 98.4019 97.6736 98.3276C100.187 98.2245 101.532 98.179 102.247 98.4091L108.92 100.557C109.546 100.758 110.213 100.844 110.92 100.935C111.119 100.962 111.319 100.986 111.518 101.014C112.724 101.185 113.606 100.957 114.127 100.336C114.287 100.147 114.254 99.931 114.23 99.8447C114.206 99.7489 114.134 99.5787 113.938 99.5044C111.563 98.6032 108.837 97.3856 106.431 96.3095C103.525 95.0104 100.233 93.5388 99.4298 93.534C98.2446 93.5292 97.0428 93.256 95.7692 92.9684C93.3201 92.4147 90.7873 91.8419 88.398 93.3111C86.0205 96.0482 83.9585 98.2892 81.9609 100.458C79.9515 102.642 77.8703 104.902 75.4761 107.663C74.7617 108.488 74.0234 109.338 73.3233 110.201C72.3341 111.424 71.4763 113.008 70.5683 114.686C69.3211 116.991 67.9065 119.604 65.737 122.116C65.5625 122.329 65.3093 122.434 65.0536 122.434Z" fill="#303436"/>
<path d="M116.619 96.9759C116.34 96.9759 116.055 96.9471 115.771 96.8872C114.648 96.6475 112.017 95.43 108.696 93.8625C107.353 93.2273 105.838 92.5131 105.422 92.3717C104.844 92.4052 102.393 93.0236 100.369 93.5988C99.8838 93.7378 99.382 93.455 99.2434 92.9685C99.1048 92.4819 99.3868 91.9786 99.8718 91.8396C104.973 90.3871 105.563 90.5214 105.783 90.5741C106.194 90.67 107.121 91.0966 109.47 92.2063C111.864 93.3352 115.142 94.8835 116.148 95.0968C117.037 95.2862 117.847 94.8787 117.993 94.5264C118.089 94.2915 117.709 93.944 117.357 93.7187C116.213 92.9853 115.147 92.2734 114.144 91.6071C109.253 88.3547 106.015 86.2 102.655 86.883C101.693 87.2282 92.1875 91.2236 90.9642 92.0433C90.546 92.3237 89.9797 92.2111 89.7002 91.7917C89.4206 91.3722 89.5329 90.8042 89.9511 90.5238C91.4707 89.5051 101.819 85.1909 102.233 85.1046C106.349 84.2322 110.043 86.6865 115.15 90.0851C116.146 90.7491 117.204 91.4537 118.339 92.1823C120.237 93.4023 119.845 94.8188 119.677 95.2238C119.24 96.2904 117.986 96.9759 116.619 96.9759Z" fill="#303436"/>
<path d="M78.7926 134.955C78.5274 134.955 78.2669 134.84 78.0853 134.62C77.7675 134.229 77.8249 133.654 78.2144 133.335C79.1319 132.585 80.0351 131.919 81.0792 131.149C81.6431 130.735 82.2524 130.284 82.9286 129.774C84.5343 128.561 86.5056 127.832 88.6249 127.664C91.4253 127.444 93.117 126.612 96.1922 125.105L97.2674 124.577C98.6222 123.918 99.9602 123.146 101.255 122.401C102.204 121.855 104.025 120.702 105.783 119.587C107.558 118.463 109.394 117.301 110.376 116.735C110.813 116.483 111.37 116.634 111.62 117.073C111.871 117.512 111.721 118.07 111.286 118.322C110.337 118.868 108.517 120.021 106.758 121.136C104.983 122.26 103.148 123.422 102.166 123.988C100.844 124.75 99.4776 125.538 98.0654 126.224L96.995 126.746C93.829 128.299 91.9151 129.237 88.7707 129.486C86.9954 129.627 85.3563 130.231 84.0254 131.236C83.342 131.751 82.7279 132.204 82.1593 132.623C81.1342 133.381 80.2477 134.033 79.3661 134.754C79.1988 134.888 78.9933 134.955 78.7926 134.955Z" fill="#303436"/>
<path d="M108.041 78.0579C107.733 78.0579 107.434 77.9022 107.262 77.6193C106.999 77.1879 107.136 76.6271 107.566 76.3634C108.99 75.4934 110.378 74.2974 111.85 73.0319C112.727 72.2769 113.632 71.498 114.622 70.719C115.417 70.091 116.146 69.7052 117.056 69.4247C118.203 69.0724 119.338 69.1132 120.256 69.5374C120.712 69.7483 120.91 70.2924 120.7 70.7502C120.49 71.2079 119.947 71.4093 119.491 71.196C118.982 70.9611 118.306 70.9515 117.589 71.172C116.896 71.3853 116.363 71.6681 115.747 72.1547C114.791 72.9097 113.898 73.6766 113.035 74.4172C111.506 75.7307 110.063 76.9746 108.514 77.9213C108.369 78.0148 108.204 78.0579 108.041 78.0579Z" fill="#303436"/>
<path d="M90.4552 117.037C90.1446 117.037 89.8412 116.877 89.6715 116.589C89.4159 116.155 89.5592 115.594 89.9917 115.338C93.9103 113.011 98.6532 112.781 101.012 113.358C101.456 113.19 102.199 112.876 102.871 112.594C103.8 112.201 104.677 111.831 105.114 111.69C105.594 111.539 106.106 111.803 106.259 112.282C106.412 112.764 106.146 113.277 105.668 113.43C105.308 113.545 104.388 113.933 103.575 114.276C102.641 114.669 101.762 115.043 101.322 115.182C101.148 115.24 100.959 115.24 100.785 115.187C98.9209 114.626 94.4981 114.784 90.9188 116.91C90.773 116.996 90.6153 117.037 90.4552 117.037Z" fill="#303436"/>
<path d="M104.101 86.4495C103.867 86.4495 103.633 86.3584 103.454 86.1787C103.1 85.8192 103.102 85.2415 103.458 84.8868C105.303 83.0533 105.8 82.4133 105.929 82.2216C106.211 81.8045 106.777 81.6943 107.195 81.9795C107.611 82.2623 107.721 82.8304 107.437 83.2498C107.088 83.7651 106.18 84.7526 104.741 86.1859C104.565 86.3608 104.333 86.4495 104.101 86.4495Z" fill="#303436"/>
<path d="M141.144 138.402C141.063 138.402 140.979 138.39 140.898 138.368C140.413 138.232 140.131 137.728 140.264 137.242C141.478 132.882 141.82 128.834 141.442 123.266C141.409 122.763 141.787 122.327 142.288 122.293C142.8 122.26 143.225 122.641 143.258 123.142C143.65 128.932 143.292 133.16 142.018 137.733C141.908 138.138 141.543 138.402 141.144 138.402Z" fill="#303436"/>
<path d="M137.101 23.9892C136.831 23.9892 136.566 23.8693 136.387 23.6416C136.074 23.2461 136.14 22.6709 136.537 22.3569C145.122 15.5477 167.363 11.3653 182.679 20.3125C183.113 20.5665 183.262 21.125 183.008 21.5612C182.755 21.9974 182.196 22.1436 181.763 21.892C165.994 12.6811 144.675 18.2297 137.67 23.7902C137.498 23.9244 137.299 23.9892 137.101 23.9892Z" fill="#303436"/>
<path d="M226.976 153.665C226.961 153.665 226.945 153.665 226.93 153.665C226.428 153.641 226.041 153.212 226.065 152.706C226.273 148.457 223.989 142.028 221.095 133.891C218.861 127.609 216.331 120.489 214.343 112.644C211.612 101.863 210.749 90.9483 209.918 80.3928C208.202 58.6492 206.58 38.1112 188.134 25.1997C187.723 24.9121 187.62 24.3417 187.909 23.927C188.198 23.5124 188.764 23.4117 189.178 23.7017C208.329 37.107 209.982 58.0644 211.734 80.249C212.56 90.7278 213.416 101.564 216.109 112.193C218.075 119.954 220.591 127.032 222.811 133.275C225.771 141.602 228.111 148.181 227.884 152.792C227.862 153.284 227.458 153.665 226.976 153.665Z" fill="#303436"/>
<path d="M185.078 209.551C184.836 209.551 184.595 209.455 184.418 209.265C184.072 208.899 184.086 208.321 184.452 207.974C184.616 207.815 188.473 204.033 186.604 199.35C185.606 196.848 184.222 195.091 182.468 192.864C180.473 190.331 177.988 187.177 175.288 181.798C174.751 180.727 174.311 179.648 173.976 178.594C173.451 176.93 172.975 175.519 172.552 174.26C170.211 167.317 169.422 164.978 170.698 151.695C172.409 133.884 174.234 127.257 178.638 111.247C179.783 107.083 181.08 102.364 182.605 96.6286C182.734 96.1421 183.231 95.8521 183.72 95.9815C184.205 96.1109 184.495 96.6119 184.366 97.1008C182.839 102.844 181.541 107.568 180.394 111.733C176.019 127.636 174.208 134.217 172.512 151.87C171.272 164.762 172.031 167.008 174.28 173.673C174.708 174.941 175.188 176.365 175.716 178.043C176.019 179.006 176.423 179.994 176.918 180.976C179.534 186.189 181.854 189.132 183.9 191.731C185.673 193.981 187.202 195.923 188.298 198.669C190.633 204.52 185.911 209.107 185.708 209.299C185.529 209.467 185.302 209.551 185.078 209.551Z" fill="#303436"/>
<path d="M113.962 149.53C113.632 149.53 113.317 149.35 113.154 149.039C110.603 144.123 111.668 139.183 112.904 133.46C114.074 128.033 115.403 121.883 114.266 113.923C114.194 113.425 114.54 112.96 115.037 112.89C115.539 112.814 115.998 113.166 116.067 113.665C117.25 121.95 115.826 128.546 114.681 133.848C113.472 139.444 112.519 143.866 114.767 148.195C114.999 148.643 114.827 149.194 114.38 149.427C114.249 149.496 114.105 149.53 113.962 149.53Z" fill="#303436"/>
<path d="M53.6968 168.654C53.3432 168.654 53.0087 168.448 52.8605 168.1C52.6622 167.638 52.8749 167.099 53.3384 166.9C69.4334 159.961 80.6253 152.907 88.797 147.754C94.6486 144.066 98.8754 141.4 102.369 140.348C104.636 139.665 107.255 139.358 110.88 138.934L111.506 138.86C112.005 138.807 112.459 139.159 112.516 139.66C112.574 140.161 112.218 140.617 111.718 140.674L111.092 140.748C107.558 141.163 105.007 141.463 102.892 142.098C99.6353 143.078 95.4945 145.688 89.7647 149.3C81.5428 154.484 70.2816 161.584 54.0552 168.577C53.9381 168.633 53.8163 168.654 53.6968 168.654Z" fill="#303436"/>
<path d="M18.6683 212.935C13.3065 212.935 8.84554 211.164 5.41198 207.669C1.38824 203.573 -0.0430022 198.187 6.81297e-06 195.755C0.138592 188.025 6.61146 178.122 9.39032 174.222C13.8609 167.945 31.0406 150.434 60.454 122.174C61.8733 120.812 63.9497 120.469 65.7465 121.299C72.2982 124.333 78.9192 131.919 79.9156 137.534C80.004 138.031 79.6743 138.505 79.1797 138.594C78.6827 138.683 78.212 138.352 78.1236 137.856C77.2323 132.832 70.9697 125.73 64.9843 122.96C63.8732 122.444 62.5901 122.655 61.7156 123.494C32.3834 151.676 15.2778 169.1 10.8741 175.284C5.2949 183.116 1.91152 190.781 1.82311 195.788C1.78966 197.591 2.94135 202.55 6.70942 206.384C9.78696 209.517 13.8107 211.106 18.6683 211.106C18.6946 211.106 18.7209 211.106 18.7472 211.106C41.5993 211.027 56.1579 207.806 73.0151 204.074C79.2036 202.705 85.6048 201.289 92.8183 199.94C93.3106 199.846 93.7884 200.174 93.8816 200.671C93.9748 201.167 93.6475 201.644 93.1529 201.737C85.9679 203.082 79.5835 204.493 73.4093 205.86C56.4494 209.613 41.8024 212.853 18.7543 212.932C18.7257 212.935 18.697 212.935 18.6683 212.935Z" fill="#303436"/>
<path d="M30.1971 199.469C29.9319 199.469 29.6691 199.354 29.4875 199.131C29.1721 198.738 29.2318 198.163 29.6237 197.847C38.2637 190.834 42.1728 184.25 46.6983 176.626C48.2538 174.008 49.8595 171.3 51.7471 168.433C52.0242 168.012 52.5905 167.894 53.0087 168.175C53.4292 168.453 53.5439 169.018 53.2667 169.44C51.403 172.273 49.8069 174.962 48.2633 177.563C43.6494 185.338 39.6615 192.051 30.7706 199.268C30.6009 199.402 30.4002 199.469 30.1971 199.469Z" fill="#303436"/>
<path d="M52.5069 169.848C52.342 169.848 52.1772 169.804 52.0266 169.711C51.5989 169.445 51.4675 168.882 51.7327 168.453C53.9931 164.8 59.3836 158.921 65.0918 152.696C70.4919 146.807 76.0735 140.717 78.2454 137.211C78.5107 136.782 79.0722 136.65 79.4999 136.916C79.9276 137.182 80.059 137.745 79.7938 138.174C77.5334 141.827 72.1405 147.706 66.4347 153.931C61.037 159.819 55.453 165.907 53.2835 169.414C53.109 169.694 52.8104 169.848 52.5069 169.848Z" fill="#303436"/>
<path d="M181.926 176.13C181.505 176.13 181.128 175.837 181.037 175.408C179.47 168.108 179.811 159.863 182.115 149.466C182.908 145.89 183.861 142.299 184.784 138.826C186.028 134.138 187.314 129.292 188.208 124.46C190.057 114.434 190.427 105.935 189.445 96.0413C189.395 95.538 189.761 95.0922 190.263 95.0418C190.755 94.9939 191.209 95.3582 191.259 95.8591C192.258 105.935 191.883 114.588 190 124.791C189.094 129.692 187.799 134.574 186.545 139.294C185.627 142.747 184.679 146.321 183.895 149.859C181.651 159.992 181.309 167.988 182.82 175.022C182.925 175.516 182.612 176.003 182.122 176.108C182.055 176.125 181.99 176.13 181.926 176.13Z" fill="#303436"/>
<path d="M101.972 382.879C102.12 352.226 110.144 297.965 113.319 295.281C113.704 294.955 113.754 294.38 113.429 293.994C113.104 293.608 112.531 293.56 112.146 293.884C107.926 297.45 100.302 354.278 100.149 382.879H101.972Z" fill="#303436"/>
<path d="M238.841 382.878H240.681C238.23 364.533 235.484 348.396 232.517 334.909C232.409 334.418 231.924 334.106 231.432 334.214C230.94 334.322 230.631 334.811 230.739 335.302C233.68 348.681 236.404 364.687 238.841 382.878Z" fill="#303436"/>
<path d="M223.647 307.653C223.279 307.653 222.935 307.43 222.796 307.064C219.451 298.236 217.387 296.444 217.301 296.372C216.651 295.828 216.379 295.641 216.285 295.581C216.087 295.514 215.913 295.377 215.798 295.18C215.542 294.747 215.688 294.186 216.121 293.929C216.744 293.56 217.258 293.956 218.469 294.967C219.666 295.969 221.879 299.502 224.5 306.414C224.679 306.886 224.443 307.414 223.972 307.593C223.865 307.634 223.755 307.653 223.647 307.653ZM217.04 295.509C216.959 295.557 216.873 295.59 216.787 295.609C216.868 295.59 216.954 295.559 217.04 295.509Z" fill="#303436"/>
<path d="M115.166 114.708C114.705 114.708 114.311 114.36 114.261 113.89C114.208 113.389 114.571 112.939 115.071 112.886C117.295 112.651 122.105 111.218 124.072 110.321L124.184 110.271C124.96 109.919 125.931 109.478 125.947 108.936C125.95 108.852 125.935 108.72 125.78 108.555C125.503 108.26 124.951 108.047 124.437 108.035C123.458 108.016 122.753 108.176 121.558 108.553C121.08 108.704 120.566 108.438 120.416 107.956C120.265 107.474 120.531 106.961 121.011 106.81C122.346 106.388 123.25 106.177 124.48 106.209C125.489 106.233 126.492 106.652 127.104 107.302C127.558 107.786 127.787 108.37 127.766 108.998C127.708 110.676 126.038 111.434 124.932 111.937L124.822 111.987C122.698 112.956 117.678 114.449 115.26 114.705C115.231 114.705 115.197 114.708 115.166 114.708Z" fill="#303436"/>
<path d="M114.015 297.824C113.539 297.824 113.138 297.453 113.107 296.968L113.064 296.295C111.888 285.143 109.042 273.168 106.292 261.59C104.954 255.955 103.688 250.634 102.598 245.382C100.93 237.339 98.8468 230.616 97.0093 224.686C95.0094 218.229 93.2819 212.657 92.4599 206.821C91.1792 197.737 93.2962 189.595 96.5004 177.273C97.7333 172.53 99.1311 167.154 100.581 160.81C100.694 160.318 101.184 160.009 101.673 160.124C102.163 160.237 102.469 160.728 102.357 161.219C100.902 167.59 99.4991 172.978 98.2614 177.736C95.1122 189.844 93.031 197.845 94.2615 206.567C95.0644 212.254 96.7704 217.764 98.7464 224.145C100.596 230.115 102.691 236.881 104.378 245.011C105.463 250.236 106.725 255.545 108.06 261.168C110.825 272.802 113.685 284.833 114.875 296.142L114.923 296.853C114.956 297.357 114.574 297.79 114.072 297.824C114.055 297.824 114.034 297.824 114.015 297.824Z" fill="#303436"/>
<path d="M151.409 309.748C137.309 309.748 123.051 306.879 113.384 297.57C112.712 296.923 112.514 296.29 112.304 295.621L112.215 295.346C112.06 294.866 112.321 294.351 112.798 294.195C113.279 294.037 113.79 294.301 113.948 294.783L114.041 295.077C114.232 295.686 114.32 295.945 114.643 296.257C135.464 316.303 179.085 305.242 193.419 301.606C193.909 301.479 194.401 301.779 194.525 302.268C194.649 302.757 194.353 303.255 193.866 303.377C185.83 305.412 168.737 309.748 151.409 309.748Z" fill="#303436"/>
<path d="M206.228 299.71C205.846 299.71 205.49 299.468 205.363 299.085C205.206 298.605 205.464 298.088 205.942 297.929C210.881 296.283 214.118 294.933 215.387 294.279L215.738 294.111C216.228 289.299 213.929 284.764 211.502 279.975C209.308 275.647 207.041 271.174 206.912 266.357C206.587 254.116 210.95 222.632 216.536 209.831C216.653 209.562 216.892 209.366 217.177 209.304C217.461 209.241 217.76 209.32 217.977 209.515C229.68 219.979 243.159 227.253 256.193 234.29C257.717 235.115 259.242 235.937 260.759 236.761C266.592 239.934 267.641 241.742 268.205 242.712C268.269 242.825 268.35 242.964 268.384 243C268.692 243.137 269.046 243.302 269.342 243.321C269.66 243.345 270.042 243.208 270.448 243.069C275.234 241.413 283.038 240.649 286.901 240.455C287.43 240.433 287.831 240.819 287.857 241.322C287.884 241.826 287.496 242.255 286.992 242.281C282.108 242.528 275.045 243.415 271.081 244.786C270.51 244.982 269.908 245.191 269.227 245.147C268.589 245.107 268.032 244.848 267.586 244.639C267.074 244.4 266.85 244.014 266.632 243.638C266.193 242.88 265.277 241.301 259.894 238.372C258.377 237.547 256.855 236.725 255.333 235.903C242.559 229.008 229.36 221.882 217.729 211.729C212.618 224.66 208.427 254.61 208.737 266.313C208.854 270.716 211.026 275.004 213.129 279.151C215.655 284.136 218.269 289.289 217.487 294.852C217.444 295.154 217.255 295.415 216.981 295.547L216.202 295.921C214.833 296.628 211.552 297.992 206.52 299.669C206.422 299.696 206.324 299.71 206.228 299.71Z" fill="#303436"/>
<path d="M144.797 148.174C144.618 148.174 144.434 148.121 144.276 148.008C138.656 144.066 139.096 134.081 139.414 132.278C139.6 131.224 140.133 130.744 140.546 130.529C141.442 130.061 142.386 130.476 142.491 130.526C142.948 130.74 143.146 131.281 142.933 131.739C142.723 132.192 142.188 132.391 141.734 132.187C141.626 132.142 141.447 132.115 141.387 132.149C141.356 132.166 141.263 132.278 141.208 132.597C140.938 134.121 140.551 143.164 145.32 146.51C145.731 146.8 145.832 147.368 145.545 147.783C145.366 148.037 145.084 148.174 144.797 148.174Z" fill="#303436"/>
<path d="M156.973 151.319C156.782 151.319 156.591 151.259 156.426 151.136C156.022 150.834 155.941 150.262 156.245 149.857C158.424 146.944 160.894 145.859 164.022 144.483L165.26 143.937C168.13 142.671 169.319 142.146 172.366 140.569C172.813 140.339 173.362 140.514 173.592 140.962C173.823 141.41 173.647 141.962 173.2 142.194C170.103 143.798 168.899 144.33 165.991 145.612L164.753 146.158C161.759 147.477 159.595 148.428 157.702 150.957C157.523 151.194 157.248 151.319 156.973 151.319Z" fill="#303436"/>
<path d="M134.821 136.561C134.47 136.561 134.133 136.355 133.985 136.01C133.784 135.547 133.999 135.008 134.461 134.809C135.686 134.277 137.682 132.853 139.937 130.897C140.319 130.569 140.893 130.61 141.223 130.991C141.552 131.372 141.509 131.95 141.129 132.28C139.414 133.766 136.991 135.703 135.185 136.487C135.065 136.537 134.943 136.561 134.821 136.561Z" fill="#303436"/>
<path d="M148.491 163.827C148.463 163.827 148.434 163.824 148.405 163.822C147.903 163.774 147.535 163.328 147.583 162.827C147.71 161.468 147.55 158.309 147.433 156.001C147.387 155.107 147.347 154.324 147.33 153.784C147.263 151.613 146.343 149.413 145.141 148.55C144.628 148.181 144.114 148.082 143.564 148.253C142.011 148.73 140.348 150.671 138.477 154.185C137.598 155.838 134.303 159.726 131.904 159.757C131.154 159.786 130.513 159.405 130.136 158.734C129.706 157.974 127.562 153.899 127.562 148.36C127.562 147.855 127.971 147.447 128.473 147.447C128.977 147.447 129.383 147.857 129.383 148.36C129.383 152.298 130.642 155.925 131.72 157.833C131.773 157.928 131.787 157.928 131.88 157.928C133.065 157.914 135.909 155.129 136.867 153.322C139.003 149.302 140.962 147.136 143.027 146.501C144.121 146.165 145.218 146.357 146.197 147.059C147.875 148.262 149.06 150.942 149.146 153.722C149.163 154.252 149.203 155.023 149.246 155.903C149.373 158.398 149.531 161.502 149.392 162.993C149.354 163.472 148.957 163.827 148.491 163.827Z" fill="#303436"/>
<path d="M146.295 309.479C145.827 309.479 145.428 309.12 145.39 308.645C141.911 268.07 137.677 248.946 134.874 236.289C132.979 227.727 131.727 222.071 132.009 214.945C132.432 204.306 137.395 191.737 141.77 180.645C144.709 173.201 147.244 166.772 147.583 162.832C147.626 162.329 148.063 161.957 148.57 162C149.072 162.044 149.442 162.487 149.399 162.99C149.038 167.199 146.455 173.742 143.466 181.319C139.357 191.73 134.243 204.69 133.832 215.017C133.557 221.903 134.723 227.169 136.654 235.891C139.466 248.594 143.717 267.79 147.206 308.487C147.249 308.99 146.878 309.434 146.377 309.477C146.345 309.479 146.319 309.479 146.295 309.479Z" fill="#303436"/>
<path d="M170.825 161.006C170.366 160.593 169.762 158.774 169.229 157.168C167.68 152.514 165.346 145.482 159.549 147.385C155.941 148.569 150.646 157.279 148.539 160.962C148.642 161.888 148.747 162.813 148.878 163.733C149.048 163.654 149.196 163.527 149.292 163.35C151.253 159.735 157.026 150.136 160.116 149.122C163.884 147.888 165.69 152.296 167.501 157.746C168.251 160.001 168.794 161.631 169.611 162.365C169.984 162.7 170.562 162.669 170.897 162.293C171.231 161.919 171.2 161.341 170.825 161.006Z" fill="#303436"/>
<path d="M216.5 156.284C214.885 156.284 213.284 155.752 211.793 154.71C208.943 152.718 206.804 149.022 206.346 145.297C205.956 142.134 206.341 138.96 206.716 135.895C207.007 133.51 207.308 131.044 207.225 128.649C207.208 128.146 207.6 127.722 208.104 127.705C208.608 127.681 209.029 128.081 209.046 128.587C209.134 131.123 208.826 133.661 208.525 136.118C208.147 139.212 207.791 142.134 208.154 145.075C208.553 148.31 210.393 151.505 212.835 153.214C213.939 153.986 215.695 154.801 217.8 154.307C218.285 154.192 218.78 154.496 218.895 154.988C219.009 155.479 218.706 155.97 218.216 156.085C217.645 156.217 217.072 156.284 216.5 156.284Z" fill="#303436"/>
<path d="M202.002 191.807C201.813 191.807 201.624 191.75 201.459 191.627C196.657 188.061 199.347 183.044 201.949 178.196C203.485 175.332 205.074 172.369 205.368 169.519C205.923 164.16 205.148 159.206 203.132 155.189C202.905 154.738 203.086 154.19 203.536 153.962C203.985 153.734 204.532 153.916 204.759 154.367C206.933 158.696 207.77 164 207.179 169.709C206.847 172.918 205.172 176.041 203.552 179.061C200.735 184.315 199.18 187.661 202.544 190.158C202.948 190.458 203.034 191.031 202.735 191.436C202.556 191.68 202.281 191.807 202.002 191.807Z" fill="#303436"/>
<path d="M200.621 201.754C200.446 201.754 200.272 201.703 200.114 201.6C193.469 197.138 189.68 188.792 190.681 180.835C190.743 180.334 191.209 179.979 191.699 180.041C192.198 180.106 192.552 180.561 192.489 181.062C191.572 188.351 195.044 195.994 201.129 200.081C201.548 200.361 201.66 200.929 201.38 201.349C201.204 201.612 200.914 201.754 200.621 201.754Z" fill="#303436"/>
<path d="M124.007 183.418C123.921 183.418 123.833 183.406 123.744 183.38C114.88 180.715 110.88 170.6 110.708 165.778C110.552 161.433 113.138 150.371 117.028 143.994C117.29 143.562 117.85 143.428 118.28 143.692C118.71 143.955 118.844 144.518 118.581 144.947C114.858 151.052 112.38 161.588 112.526 165.711C112.677 169.941 116.383 179.257 124.265 181.628C124.748 181.772 125.02 182.282 124.877 182.764C124.762 183.164 124.399 183.418 124.007 183.418Z" fill="#303436"/>
<path d="M127.259 181.197C127.003 181.197 126.748 181.089 126.569 180.878C124.44 178.39 123.35 174.96 123.14 170.085C122.851 163.348 124.06 156.493 126.64 150.266C127.742 147.603 129.104 145.027 130.418 142.534C132.071 139.402 133.782 136.161 134.946 132.794C135.111 132.317 135.627 132.063 136.105 132.23C136.58 132.396 136.831 132.916 136.666 133.393C135.457 136.895 133.713 140.197 132.026 143.39C130.731 145.844 129.39 148.382 128.32 150.966C125.842 156.948 124.681 163.532 124.958 170.006C125.149 174.45 126.098 177.527 127.947 179.687C128.275 180.07 128.232 180.648 127.849 180.976C127.68 181.125 127.469 181.197 127.259 181.197Z" fill="#303436"/>
<path d="M68.198 145.908C67.8922 145.908 67.5935 145.755 67.4215 145.475C64.7406 141.105 60.6141 137.743 55.8019 136.003C55.3288 135.832 55.0827 135.307 55.2547 134.833C55.4244 134.358 55.9452 134.111 56.4207 134.284C61.6201 136.163 66.0763 139.797 68.9746 144.518C69.2374 144.947 69.106 145.511 68.6759 145.777C68.5278 145.865 68.3629 145.908 68.198 145.908Z" fill="#303436"/>
<path d="M242.433 339.468C238.815 339.468 234.717 337.57 230.751 335.734C226.318 333.682 221.738 331.559 218.015 332.141C215.509 332.474 212.309 334.14 209.488 335.612C205.512 337.685 202.37 339.324 200.881 337.584C200.171 336.757 199.875 335.897 199.997 335.025C200.25 333.237 202.209 331.825 204.745 330.166C208.178 327.77 209.187 327.386 213.44 325.771C217.774 324.124 224.001 324.555 224.266 324.575C224.768 324.613 225.145 325.049 225.107 325.553C225.071 326.056 224.643 326.435 224.132 326.399C224.072 326.391 218.039 325.977 214.087 327.48C209.901 329.071 209.031 329.402 205.76 331.684C204.231 332.683 201.956 334.174 201.799 335.283C201.782 335.406 201.729 335.777 202.257 336.393C202.807 337.033 206.46 335.128 208.644 333.992C211.6 332.45 214.95 330.706 217.752 330.334C221.989 329.673 226.832 331.909 231.511 334.075C235.396 335.873 239.424 337.716 242.667 337.64C245.732 337.546 246.719 336.511 249.108 334.004C250.42 332.628 252.052 330.914 254.568 328.783C254.953 328.457 255.526 328.508 255.851 328.894C256.176 329.28 256.129 329.855 255.741 330.181C253.299 332.247 251.706 333.922 250.425 335.267C247.916 337.901 246.535 339.351 242.722 339.466C242.628 339.466 242.53 339.468 242.433 339.468Z" fill="#303436"/>
<path d="M192.413 329.619C191.902 329.619 191.452 329.545 191.073 329.385C190.487 329.138 190.071 328.699 189.868 328.114C188.774 324.974 193.505 321.54 204.329 317.616C209.323 315.8 218.352 315.838 221.943 316.138C222.445 316.181 222.818 316.622 222.775 317.125C222.732 317.628 222.311 318 221.791 317.959C218.331 317.667 209.657 317.621 204.948 319.335C194.325 323.184 191.111 326.146 191.586 327.51C191.615 327.592 191.653 327.647 191.777 327.697C193.405 328.392 199.17 325.677 202.611 324.056C205.304 322.789 206.866 322.07 207.722 321.988C209.705 321.806 211.456 322.233 214.357 322.94C216.295 323.414 218.708 324.004 222.053 324.62C222.548 324.711 222.875 325.188 222.785 325.684C222.694 326.18 222.221 326.506 221.724 326.417C218.328 325.792 215.886 325.195 213.925 324.716C211.21 324.054 209.569 323.651 207.889 323.807C207.311 323.86 205.225 324.843 203.385 325.708C198.731 327.903 194.862 329.619 192.413 329.619Z" fill="#303436"/>
<path d="M190.456 321.748C188.939 321.748 187.73 321.533 186.96 321.022C186.459 320.689 186.126 320.231 185.993 319.692C185.759 319.246 185.716 318.769 185.871 318.302C186.351 316.842 188.549 315.955 192.093 314.63L193.077 314.259C195.103 313.54 197.271 312.926 199.182 312.384C200.195 312.097 201.127 311.833 201.906 311.591C205.636 310.472 211.261 308.779 220.617 309.453C221.119 309.489 221.497 309.925 221.461 310.428C221.425 310.932 220.997 311.31 220.488 311.275C211.468 310.627 206.25 312.195 202.439 313.338C201.655 313.583 200.707 313.851 199.677 314.141C197.791 314.673 195.655 315.28 193.703 315.972L192.728 316.339C191.008 316.984 187.806 318.182 187.601 318.875C187.67 318.983 187.737 319.09 187.756 319.217C187.766 319.273 187.78 319.373 187.969 319.498C190.157 320.95 200.279 318.419 203.607 317.588C204.933 317.257 205.533 317.108 205.837 317.075C206.329 317.02 206.785 317.384 206.838 317.885C206.893 318.386 206.53 318.836 206.03 318.892C205.839 318.913 204.929 319.141 204.047 319.359C198.919 320.644 193.892 321.748 190.456 321.748Z" fill="#303436"/>
<path d="M238.026 317.475C236.901 317.475 235.857 317.178 234.908 316.581C234.884 316.567 234.861 316.55 234.839 316.533C227.408 310.858 214.369 301.433 211.022 300.302C208.353 299.377 205.963 299.78 203.435 300.204C202.709 300.326 201.987 300.446 201.261 300.535L200.535 300.645C198.363 300.976 195.39 301.426 195.008 302.222C194.924 302.399 195.077 302.713 195.177 302.886C195.928 304.312 199.67 303.849 202.675 303.475C205.395 303.138 207.741 302.847 209.167 303.504C212.209 304.909 216.307 309.453 216.479 309.645C216.816 310.019 216.785 310.596 216.412 310.934C216.039 311.27 215.463 311.241 215.127 310.867C215.086 310.824 211.108 306.411 208.408 305.165C207.452 304.724 205.034 305.024 202.9 305.29C198.967 305.779 194.903 306.282 193.584 303.768C192.984 302.728 193.135 301.918 193.369 301.429C194.167 299.765 196.993 299.334 200.265 298.838L201.012 298.723C201.739 298.632 202.436 298.514 203.134 298.399C205.777 297.956 208.51 297.495 211.609 298.569C216.328 300.163 234.963 314.33 235.907 315.049C237.064 315.759 238.399 315.836 239.991 315.28C240.466 315.114 240.985 315.368 241.149 315.845C241.314 316.322 241.061 316.842 240.586 317.008C239.692 317.319 238.836 317.475 238.026 317.475Z" fill="#303436"/>
<path d="M234.691 316.145C234.466 316.145 234.242 316.063 234.065 315.896C231.785 313.741 230.39 311.922 229.04 310.165C227.2 307.77 225.466 305.508 221.604 302.637C221.2 302.337 221.117 301.764 221.416 301.359C221.714 300.954 222.285 300.87 222.691 301.17C226.753 304.194 228.567 306.553 230.483 309.053C231.79 310.752 233.14 312.511 235.315 314.57C235.68 314.915 235.697 315.495 235.353 315.862C235.176 316.049 234.932 316.145 234.691 316.145Z" fill="#303436"/>
<path d="M217.337 210.49C217.172 210.49 217.002 210.444 216.852 210.348C216.18 209.924 215.889 209.234 215.671 208.62C215.559 208.306 215.423 207.937 215.265 207.515C213.079 201.638 207.273 186.023 213.108 170.26C213.282 169.788 213.808 169.548 214.278 169.721C214.749 169.895 214.99 170.423 214.816 170.895C209.215 186.021 214.849 201.171 216.971 206.873C217.131 207.302 217.27 207.678 217.385 208C217.468 208.237 217.626 208.675 217.822 208.798C218.247 209.066 218.376 209.632 218.106 210.058C217.934 210.339 217.638 210.49 217.337 210.49Z" fill="#303436"/>
<path d="M257.83 331.652C257.039 331.652 255.314 330.943 251.042 327.736C247.725 325.245 237.123 316.73 239.905 311.67C240.163 311.263 262.63 276.008 268.389 244.069C268.479 243.573 268.948 243.247 269.447 243.333C269.942 243.424 270.271 243.899 270.181 244.395C264.355 276.696 241.694 312.25 241.465 312.605C241.094 313.283 241.2 314.304 241.809 315.589C244.466 321.183 255.264 328.826 257.519 329.751C269.641 317.398 281.977 299.708 290.574 282.333C300.213 262.855 304.022 246.255 301.295 235.599C300.222 231.404 289.946 218.332 283.621 211.525C270.362 197.264 262.167 189.54 254.934 182.723C248.126 176.309 242.249 170.768 234.287 161.615C227.176 153.434 217.542 149.916 207.344 146.189L206.936 146.04C206.463 145.868 206.219 145.343 206.391 144.868C206.563 144.394 207.089 144.149 207.559 144.322L207.968 144.471C218.393 148.281 228.242 151.879 235.661 160.412C243.563 169.5 249.132 174.747 256.184 181.391C263.435 188.224 271.657 195.97 284.957 210.277C290.772 216.535 301.799 230.194 303.066 235.141C309.5 260.302 281.449 308.135 258.506 331.35C258.377 331.487 258.212 331.652 257.83 331.652Z" fill="#303436"/>
<path d="M261.772 322.142C261.689 322.142 261.605 322.13 261.521 322.106C257.703 321.006 246.576 311.864 246.576 308.567C246.576 308.063 246.982 307.656 247.486 307.653C247.99 307.653 248.396 308.063 248.399 308.567C248.404 310.426 258.138 319.23 262.026 320.349C262.511 320.488 262.788 320.994 262.649 321.478C262.532 321.881 262.169 322.142 261.772 322.142Z" fill="#303436"/>
<path d="M183.288 60.0966C183.111 60.0966 182.932 60.0438 182.774 59.936C179.374 57.5991 177.405 52.7528 175.498 48.0671C173.85 44.0117 172.146 39.8174 169.597 37.447C166.88 34.9207 161.382 35.0837 157.633 36.7016C157.169 36.9005 156.634 36.6872 156.436 36.2246C156.238 35.762 156.45 35.2227 156.914 35.0238C161.136 33.1975 167.449 32.9578 170.837 36.1072C173.683 38.7532 175.465 43.1369 177.188 47.3768C178.992 51.8133 180.855 56.4007 183.804 58.4284C184.22 58.7136 184.325 59.2816 184.041 59.6987C183.866 59.9575 183.579 60.0966 183.288 60.0966Z" fill="#303436"/>
<path d="M140.329 134.229C140.448 134.896 140.618 135.598 141.091 136.08C140.506 135.483 142.561 132.635 141.662 131.665C140.46 130.37 140.21 133.568 140.329 134.229Z" fill="#303436"/>
</g>
<defs>
<clipPath id="clip0_1974_1278">
<rect width="304" height="372" fill="white"/>
</clipPath>
</defs>
</svg>
