<svg width="249" height="231" viewBox="0 0 249 231" fill="none" xmlns="http://www.w3.org/2000/svg">
<path d="M90.3429 8.66301L90.8118 7.23818L89.5089 6.80943L88.9656 8.06883L90.3429 8.66301ZM88.3476 13.2882L86.9703 12.694L86.9699 12.6949L88.3476 13.2882ZM75.6855 35.7736L76.898 36.6566L76.8981 36.6565L75.6855 35.7736ZM60.7176 52.213L59.7228 51.0903L59.7223 51.0907L60.7176 52.213ZM25.5578 75.4658L26.2815 76.7797L26.2819 76.7794L25.5578 75.4658ZM21.113 77.9139L20.3894 76.6L19.1774 77.2676L19.7451 78.5294L21.113 77.9139ZM72.1846 161.351C72.7553 161.951 73.7047 161.975 74.3052 161.404C74.9057 160.834 74.9298 159.884 74.3591 159.284L72.1846 161.351ZM123.212 196.564L123.821 195.193L123.821 195.193L123.212 196.564ZM177.719 206.103L177.984 207.58L177.987 207.579L177.719 206.103ZM179.071 205.858L179.338 207.334L179.705 207.268L179.998 207.038L179.071 205.858ZM180.15 205.01L181.077 206.189L181.08 206.187L180.15 205.01ZM209.166 157.891L207.736 157.437L207.736 157.438L209.166 157.891ZM215.165 96.4756L216.66 96.3474L216.659 96.3474L215.165 96.4756ZM188.094 2.78461L189.462 2.16915L188.895 0.907342L187.591 1.37155L188.094 2.78461ZM183.314 4.48707L183.817 5.90014L183.817 5.90012L183.314 4.48707ZM142.593 15.3793L142.413 13.8902L142.413 13.8902L142.593 15.3793ZM120.362 15.6766L120.219 17.1697L120.219 17.1697L120.362 15.6766ZM95.1277 10.2376L95.5971 8.81296L95.5966 8.81279L95.1277 10.2376ZM82.8405 169.702L83.8148 168.562C83.1922 168.03 82.258 168.095 81.716 168.709C81.174 169.323 81.2246 170.258 81.8296 170.81L82.8405 169.702ZM68.0857 151.843C67.5374 151.222 66.5895 151.163 65.9684 151.711C65.3473 152.259 65.2883 153.207 65.8365 153.828L68.0857 151.843ZM57.5334 144.174C58.0384 144.831 58.9801 144.953 59.6368 144.448C60.2935 143.943 60.4165 143.002 59.9115 142.345L57.5334 144.174ZM88.9656 8.06883L86.9703 12.694L89.7249 13.8824L91.7202 9.25719L88.9656 8.06883ZM86.9699 12.6949C83.3906 21.0064 79.2978 28.2642 74.4728 34.8906L76.8981 36.6565C81.8659 29.8338 86.0659 22.3787 89.7252 13.8815L86.9699 12.6949ZM74.4729 34.8905C70.1534 40.8218 65.3317 46.1208 59.7228 51.0903L61.7123 53.3357C67.4805 48.225 72.4488 42.7659 76.898 36.6566L74.4729 34.8905ZM59.7223 51.0907C49.1886 60.4324 37.2689 67.2977 24.8337 74.1522L26.2819 76.7794C38.7171 69.925 50.9036 62.9213 61.7128 53.3352L59.7223 51.0907ZM24.8341 74.1519L20.3894 76.6L21.8367 79.2278L26.2815 76.7797L24.8341 74.1519ZM19.7451 78.5294L21.8252 83.1526L24.5611 81.9217L22.481 77.2985L19.7451 78.5294ZM122.604 197.935C153.632 211.71 176.834 207.786 177.984 207.58L177.455 204.627C176.683 204.765 154.133 208.651 123.821 195.193L122.604 197.935ZM177.987 207.579L179.338 207.334L178.803 204.382L177.452 204.627L177.987 207.579ZM179.998 207.038L181.077 206.189L179.223 203.83L178.144 204.679L179.998 207.038ZM181.08 206.187C181.997 205.463 200.324 190.702 210.595 158.345L207.736 157.438C197.701 189.048 179.836 203.347 179.22 203.833L181.08 206.187ZM210.595 158.345C216.55 139.592 218.579 118.727 216.66 96.3474L213.67 96.6038C215.561 118.648 213.555 139.11 207.736 157.437L210.595 158.345ZM216.659 96.3474C214.284 68.6601 205.822 38.5291 191.542 6.79237L188.806 8.02329C202.981 39.5274 211.33 69.3271 213.67 96.6038L216.659 96.3474ZM191.542 6.79237L189.462 2.16915L186.726 3.40008L188.806 8.02329L191.542 6.79237ZM187.591 1.37155L182.811 3.07401L183.817 5.90012L188.598 4.19767L187.591 1.37155ZM182.811 3.07399C169.432 7.83833 156.39 12.1999 142.413 13.8902L142.773 16.8685C157.115 15.1341 170.437 10.665 183.817 5.90014L182.811 3.07399ZM142.413 13.8902C134.973 14.7914 127.81 14.885 120.506 14.1834L120.219 17.1697C127.742 17.8924 135.123 17.7952 142.773 16.8685L142.413 13.8902ZM120.506 14.1834C112.338 13.3986 104.195 11.6459 95.5971 8.81296L94.6583 11.6623C103.448 14.5582 111.809 16.3616 120.219 17.1697L120.506 14.1834ZM95.5966 8.81279L90.8118 7.23818L89.874 10.0878L94.6588 11.6625L95.5966 8.81279ZM90.5219 178.237C100.751 186.402 111.482 192.998 122.604 197.935L123.821 195.193C112.952 190.368 102.439 183.911 92.3934 175.892L90.5219 178.237ZM81.8296 170.81C84.6839 173.414 87.5822 175.89 90.5219 178.237L92.3934 175.892C89.5066 173.588 86.6583 171.154 83.8514 168.594L81.8296 170.81ZM92.432 175.924L83.8148 168.562L81.8661 170.843L90.4833 178.205L92.432 175.924ZM65.8365 153.828C66.6436 154.743 67.7709 156.134 68.9436 157.564C70.0928 158.966 71.2914 160.411 72.1846 161.351L74.3591 159.284C73.5561 158.439 72.4301 157.085 71.2633 155.662C70.12 154.268 68.94 152.811 68.0857 151.843L65.8365 153.828ZM21.8252 83.1526C32.3467 106.538 44.3093 126.978 57.5334 144.174L59.9115 142.345C46.8524 125.364 35.0037 105.131 24.5611 81.9217L21.8252 83.1526Z" fill="#303436"/>
<path d="M67.6842 28.4185C63.3151 34.4488 58.4341 39.8348 52.7594 44.879C42.1139 54.3507 30.0821 61.2819 17.6683 68.132" stroke="#303436" stroke-width="3" stroke-miterlimit="10" stroke-linecap="round"/>
<path d="M47.8852 35.4148C40.3476 42.4316 32.0299 47.9993 23.3544 53.1447" stroke="#303436" stroke-width="3" stroke-miterlimit="10" stroke-linecap="round"/>
<mask id="path-4-inside-1_1974_1211" fill="white">
<path fill-rule="evenodd" clip-rule="evenodd" d="M111.838 62.2916C100.879 67.2225 95.9916 80.104 100.922 91.0633C101.262 91.8188 100.926 92.7068 100.17 93.0467C99.4146 93.3866 98.5266 93.0497 98.1866 92.2942C92.576 79.824 98.1367 65.1665 110.607 59.5558C111.362 59.2159 112.25 59.5528 112.59 60.3082C112.93 61.0637 112.593 61.9517 111.838 62.2916ZM137.468 92.7453C141.006 88.0254 141.939 81.5754 139.347 75.8154C135.552 67.3808 125.638 63.6196 117.203 67.4145C108.769 71.2095 105.008 81.1235 108.803 89.5582C111.394 95.3182 116.839 98.8987 122.718 99.3817L123.762 138.939L166.379 119.764L137.468 92.7453Z"/>
</mask>
<path d="M137.468 92.7453L135.068 90.946L133.454 93.0995L135.42 94.9372L137.468 92.7453ZM122.718 99.3817L125.717 99.3026L125.646 96.6122L122.964 96.3918L122.718 99.3817ZM123.762 138.939L120.763 139.018L120.882 143.525L124.993 141.675L123.762 138.939ZM166.379 119.764L167.61 122.5L171.721 120.651L168.428 117.573L166.379 119.764ZM103.658 89.8324C99.4073 80.384 103.62 69.2785 113.069 65.0275L110.607 59.5558C98.1367 65.1665 92.576 79.824 98.1866 92.2942L103.658 89.8324ZM101.401 95.7825C103.667 94.7628 104.678 92.0988 103.658 89.8324L98.1866 92.2942C97.8467 91.5387 98.1836 90.6507 98.9391 90.3108L101.401 95.7825ZM95.4508 93.5251C96.4705 95.7916 99.1345 96.8022 101.401 95.7825L98.9391 90.3108C99.6946 89.9709 100.583 90.3078 100.922 91.0633L95.4508 93.5251ZM109.376 56.8199C95.3948 63.1105 89.1603 79.5439 95.4508 93.5251L100.922 91.0633C95.9916 80.104 100.879 67.2225 111.838 62.2916L109.376 56.8199ZM115.326 59.0773C114.306 56.8109 111.642 55.8002 109.376 56.8199L111.838 62.2916C111.082 62.6315 110.194 62.2946 109.855 61.5392L115.326 59.0773ZM113.069 65.0275C115.335 64.0077 116.346 61.3438 115.326 59.0773L109.855 61.5392C109.515 60.7837 109.851 59.8957 110.607 59.5558L113.069 65.0275ZM139.869 94.5447C144.035 88.9863 145.14 81.38 142.083 74.5845L136.611 77.0463C138.737 81.7708 137.977 87.0644 135.068 90.946L139.869 94.5447ZM142.083 74.5845C137.608 64.6389 125.918 60.2039 115.973 64.6787L118.434 70.1504C125.358 67.0352 133.496 70.1226 136.611 77.0463L142.083 74.5845ZM115.973 64.6787C106.027 69.1535 101.592 80.8435 106.067 90.7891L111.538 88.3272C108.423 81.4036 111.511 73.2655 118.434 70.1504L115.973 64.6787ZM106.067 90.7891C109.124 97.5846 115.549 101.803 122.473 102.372L122.964 96.3918C118.129 95.9946 113.664 93.0517 111.538 88.3272L106.067 90.7891ZM126.761 138.86L125.717 99.3026L119.719 99.4608L120.763 139.018L126.761 138.86ZM165.149 117.029L122.531 136.203L124.993 141.675L167.61 122.5L165.149 117.029ZM135.42 94.9372L164.331 121.956L168.428 117.573L139.517 90.5535L135.42 94.9372Z" fill="#303436" mask="url(#path-4-inside-1_1974_1211)"/>
<path d="M146.676 91.3579L165.082 108.892" stroke="#303436" stroke-width="3" stroke-linecap="round"/>
<path d="M118.135 25.7983C128.413 26.4278 153.401 25.7911 171.131 18.2081" stroke="#303436" stroke-width="3" stroke-linecap="round"/>
<path d="M198.536 1.27881C202.721 10.2755 211.709 31.4462 214.179 44.1555" stroke="#303436" stroke-width="3" stroke-linecap="round"/>
<path d="M204.361 107.359C204.831 119.902 203.156 141.812 195.683 158.619" stroke="#303436" stroke-width="3" stroke-linecap="round" stroke-linejoin="round"/>
<path d="M203.323 96.0636C202.906 89.5229 202.057 83.0388 201.002 78.3403" stroke="#303436" stroke-width="3" stroke-linecap="round" stroke-linejoin="round"/>
</svg>
