<svg width="37" height="24" viewBox="0 0 37 24" fill="none" xmlns="http://www.w3.org/2000/svg">
<path d="M20.1449 23.713C7.5547 23.713 0.373438 14.8154 0.0742188 0.00976562H6.38084C6.58799 10.8767 11.2374 15.4797 14.9201 16.4288V0.00976562H20.8584V9.38191C24.4951 8.97855 28.3159 4.7077 29.6049 0.00976562H35.5432C35.0575 2.44625 34.0893 4.75321 32.6992 6.78635C31.3091 8.81949 29.527 10.5351 27.4643 11.8258C29.7667 13.0052 31.8004 14.6744 33.431 16.7235C35.0617 18.7725 36.2523 21.1548 36.9242 23.713H30.3874C29.7842 21.491 28.5583 19.502 26.8631 17.9951C25.168 16.4883 23.0792 15.5308 20.8584 15.2425V23.713H20.1449Z" fill="#E5EBEE"/>
</svg>
