<svg width="36" height="36" viewBox="0 0 36 36" fill="none" xmlns="http://www.w3.org/2000/svg">
<path d="M30.4756 5.42238C27.1171 2.08912 22.639 0.237305 17.9122 0.237305C8.08536 0.237305 0.124388 8.13838 0.124388 17.8913C0.124388 20.9776 0.995122 24.064 2.4878 26.6565L0 35.7921L9.45366 33.3231C12.0659 34.6811 14.9268 35.4218 17.9122 35.4218C27.739 35.4218 35.7 27.5207 35.7 17.7678C35.5756 13.2 33.8341 8.75565 30.4756 5.42238ZM26.4951 24.1874C26.122 25.1751 24.3805 26.1627 23.5098 26.2862C22.7634 26.4096 21.7683 26.4096 20.7732 26.1627C20.1512 25.9158 19.2805 25.6689 18.2854 25.1751C13.8073 23.3233 10.9463 18.8789 10.6976 18.5085C10.4488 18.2616 8.83171 16.1629 8.83171 13.9407C8.83171 11.7186 9.95122 10.7309 10.3244 10.2371C10.6976 9.74328 11.1951 9.74328 11.5683 9.74328C11.8171 9.74328 12.1902 9.74328 12.439 9.74328C12.6878 9.74328 13.061 9.61983 13.4341 10.484C13.8073 11.3482 14.678 13.5704 14.8024 13.6938C14.9268 13.9407 14.9268 14.1876 14.8024 14.4345C14.678 14.6815 14.5537 14.9284 14.3049 15.1753C14.0561 15.4222 13.8073 15.7925 13.6829 15.916C13.4341 16.1629 13.1854 16.4098 13.4341 16.7802C13.6829 17.274 14.5537 18.632 15.922 19.8665C17.6634 21.348 19.0317 21.8418 19.5293 22.0887C20.0268 22.3356 20.2756 22.2122 20.5244 21.9653C20.7732 21.7183 21.6439 20.7307 21.8927 20.2369C22.1415 19.7431 22.5146 19.8665 22.8878 19.99C23.261 20.1134 25.5 21.2245 25.8732 21.4714C26.3707 21.7184 26.6195 21.8418 26.7439 21.9653C26.8683 22.3356 26.8683 23.1998 26.4951 24.1874Z" fill="#E5EBEE"/>
</svg>
