<svg width="560" height="356" viewBox="0 0 560 356" fill="none" xmlns="http://www.w3.org/2000/svg">
<path d="M558.521 343.009C559.351 342.28 559.433 341.017 558.705 340.187L546.831 326.658C546.103 325.828 544.839 325.746 544.009 326.474C543.178 327.203 543.096 328.467 543.825 329.297L554.379 341.322L542.354 351.876C541.524 352.605 541.441 353.869 542.17 354.699C542.899 355.529 544.162 355.611 544.992 354.883L558.521 343.009ZM270.684 99.4089L269.964 101.275L270.684 99.4089ZM0.332589 1.86727C28.6771 60.7668 112.421 154.016 258.214 180.064L258.917 176.127C114.516 150.327 31.7824 57.9952 3.93694 0.13273L0.332589 1.86727ZM271.405 97.5432L264.854 95.0136L263.413 98.7451L269.964 101.275L271.405 97.5432ZM208.532 124.837C213.015 166.288 246.761 217.476 305.861 259.964C365.043 302.51 449.878 336.518 557.072 343.502L557.332 339.51C450.843 332.573 366.735 298.801 308.196 256.716C249.575 214.573 216.822 164.28 212.509 124.407L208.532 124.837ZM264.854 95.0136C251.61 89.8995 236.906 89.9587 225.782 94.9666C220.202 97.4791 215.474 101.262 212.345 106.313C209.206 111.379 207.75 117.601 208.532 124.837L212.509 124.407C211.814 117.979 213.115 112.664 215.745 108.42C218.385 104.16 222.438 100.859 227.425 98.6141C237.436 94.107 251.016 93.9582 263.413 98.7451L264.854 95.0136ZM258.214 180.064C273.25 182.751 285.347 180.464 294.089 174.93C302.841 169.389 308.041 160.708 309.442 151.017C312.246 131.624 299.893 108.544 271.405 97.5432L269.964 101.275C297.056 111.737 307.971 133.24 305.483 150.444C304.239 159.052 299.653 166.673 291.949 171.55C284.236 176.433 273.207 178.68 258.917 176.127L258.214 180.064Z" fill="#577BFA"/>
</svg>
