<svg width="572" height="229" viewBox="0 0 572 229" fill="none" xmlns="http://www.w3.org/2000/svg">
<path d="M15.0131 227.518C15.8517 228.615 17.4207 228.825 18.5176 227.986L36.3926 214.321C37.4895 213.482 37.699 211.913 36.8604 210.817C36.0218 209.72 34.4529 209.51 33.3559 210.349L17.467 222.495L5.32034 206.606C4.48178 205.51 2.91279 205.3 1.81589 206.139C0.718984 206.977 0.509549 208.546 1.3481 209.643L15.0131 227.518ZM19.4772 226.331C19.7056 224.62 19.9496 222.931 20.209 221.264L15.2685 220.495C15.0034 222.198 14.7543 223.923 14.5212 225.669L19.4772 226.331ZM21.9486 211.524C22.5955 208.331 23.3035 205.226 24.071 202.205L19.2251 200.974C18.4368 204.076 17.7108 207.261 17.0482 210.531L21.9486 211.524ZM26.8026 192.59C27.7829 189.485 28.8322 186.478 29.9484 183.567L25.2797 181.777C24.1266 184.785 23.0443 187.887 22.0345 191.085L26.8026 192.59ZM33.809 174.435C35.1816 171.481 36.631 168.636 38.1544 165.896L33.7845 163.467C32.2012 166.314 30.6971 169.267 29.2746 172.328L33.809 174.435ZM43.2683 157.499C45.0684 154.794 46.9509 152.205 48.9126 149.727L44.9918 146.624C42.9446 149.211 40.9817 151.911 39.1062 154.728L43.2683 157.499ZM55.2964 142.334C57.5197 139.974 59.8271 137.727 62.2153 135.59L58.8806 131.864C56.3877 134.095 53.9783 136.441 51.6565 138.906L55.2964 142.334ZM69.7218 129.42C72.3 127.475 74.9582 125.636 77.693 123.896L75.0092 119.677C72.1655 121.486 69.3979 123.401 66.7107 125.428L69.7218 129.42ZM86.109 118.979C88.9443 117.46 91.8507 116.032 94.825 114.691L92.7692 110.133C89.6957 111.519 86.6871 112.997 83.7476 114.572L86.109 118.979ZM103.903 110.937C106.903 109.803 109.964 108.744 113.082 107.757L111.573 102.99C108.372 104.004 105.225 105.092 102.135 106.26L103.903 110.937ZM122.554 105.02C125.666 104.202 128.827 103.446 132.036 102.749L130.975 97.8631C127.699 98.5748 124.468 99.347 121.283 100.184L122.554 105.02ZM141.732 100.842C144.913 100.278 148.135 99.7643 151.396 99.298L150.688 94.3483C147.376 94.8221 144.098 95.3441 140.859 95.9183L141.732 100.842ZM161.22 98.0444C164.441 97.6806 167.695 97.3574 170.98 97.0713L170.546 92.0901C167.221 92.3797 163.925 92.7071 160.659 93.0759L161.22 98.0444ZM180.88 96.3239C184.123 96.115 187.391 95.9379 190.685 95.7896L190.46 90.7946C187.136 90.9443 183.835 91.1231 180.559 91.3342L180.88 96.3239ZM200.631 95.4277C203.885 95.3362 207.161 95.269 210.455 95.2233L210.386 90.2237C207.069 90.2697 203.77 90.3374 200.491 90.4297L200.631 95.4277ZM220.393 95.1478C223.666 95.1423 226.956 95.1549 230.26 95.1827L230.302 90.1829C226.983 90.1549 223.676 90.1423 220.385 90.1478L220.393 95.1478ZM240.18 95.3088C243.47 95.3637 246.772 95.4309 250.084 95.5077L250.2 90.509C246.878 90.432 243.565 90.3646 240.264 90.3095L240.18 95.3088ZM259.992 95.7627C263.293 95.8551 266.602 95.9545 269.918 96.0582L270.075 91.0607C266.754 90.9568 263.439 90.8573 260.132 90.7646L259.992 95.7627ZM279.824 96.3778C283.131 96.4868 286.442 96.5976 289.757 96.7077L289.923 91.7105C286.61 91.6005 283.297 91.4896 279.989 91.3805L279.824 96.3778ZM299.676 97.032C302.984 97.1376 306.293 97.2401 309.602 97.3367L309.748 92.3388C306.445 92.2423 303.14 92.1401 299.835 92.0345L299.676 97.032ZM319.543 97.6072C322.857 97.69 326.168 97.7644 329.476 97.8281L329.572 92.829C326.275 92.7656 322.973 92.6913 319.668 92.6088L319.543 97.6072ZM339.423 97.9844C342.747 98.0241 346.065 98.0502 349.376 98.0601L349.391 93.0601C346.096 93.0502 342.793 93.0243 339.483 92.9848L339.423 97.9844ZM359.312 98.0387C362.649 98.0133 365.977 97.9687 369.293 97.9021L369.193 92.9031C365.899 92.9692 362.592 93.0136 359.274 93.0388L359.312 98.0387ZM379.207 97.634C382.557 97.5189 385.893 97.3782 389.213 97.2093L388.959 92.2157C385.668 92.3832 382.359 92.5227 379.035 92.6369L379.207 97.634ZM399.132 96.6142C402.477 96.3816 405.805 96.1167 409.113 95.8165L408.661 90.837C405.39 91.1338 402.097 91.396 398.785 91.6262L399.132 96.6142ZM419.022 94.8013C422.355 94.4193 425.665 93.9973 428.95 93.5321L428.249 88.5815C425.01 89.0402 421.744 89.4566 418.453 89.8338L419.022 94.8013ZM438.819 91.988C442.127 91.4193 445.406 90.8019 448.655 90.1323L447.646 85.2352C444.453 85.8932 441.228 86.5005 437.972 87.0603L438.819 91.988ZM458.426 87.9342C461.689 87.1361 464.917 86.2794 468.108 85.3603L466.724 80.5556C463.601 81.4552 460.438 82.2946 457.238 83.0774L458.426 87.9342ZM477.69 82.3708C480.876 81.2969 484.021 80.1537 487.12 78.937L485.293 74.2827C482.273 75.4684 479.205 76.5839 476.093 77.6327L477.69 82.3708ZM496.381 75.0179C499.441 73.6246 502.451 72.151 505.41 70.5928L503.08 66.1689C500.209 67.681 497.284 69.1126 494.309 70.4676L496.381 75.0179ZM514.176 65.6292C517.043 63.8866 519.853 62.0542 522.605 60.1278L519.737 56.0319C517.076 57.8952 514.356 59.6687 511.579 61.3567L514.176 65.6292ZM530.677 54.0632C533.276 51.969 535.814 49.7789 538.288 47.4891L534.892 43.8197C532.503 46.031 530.051 48.1463 527.54 50.1697L530.677 54.0632ZM545.472 40.3608C547.742 37.9458 549.949 35.4339 552.089 32.8213L548.222 29.6524C546.153 32.1771 544.021 34.6037 541.829 36.936L545.472 40.3608ZM558.242 24.7743C560.155 22.0916 562.005 19.3149 563.79 16.4409L559.543 13.8026C557.813 16.5874 556.022 19.2759 554.171 21.8714L558.242 24.7743ZM568.852 7.70466C569.664 6.20116 570.459 4.67368 571.238 3.12187L566.77 0.878496C566.013 2.38644 565.24 3.86998 564.452 5.32952L568.852 7.70466Z" fill="#577BFA"/>
</svg>
