<svg width="87" height="42" viewBox="0 0 87 42" fill="none" xmlns="http://www.w3.org/2000/svg">
<g opacity="0.8">
<rect width="4.48775" height="41.6778" rx="2.24387" transform="matrix(1 0 -0.00896056 0.99996 0.661621 0.32373)" fill="#303436"/>
<rect width="4.48775" height="41.6778" rx="2.24387" transform="matrix(1 0 -0.00896056 0.99996 39.2559 0.32373)" fill="#303436"/>
<rect width="12.5657" height="41.6778" rx="6.28285" transform="matrix(1 0 -0.00896056 0.99996 23.9976 0.32373)" fill="#303436"/>
<rect width="12.5657" height="41.6778" rx="6.28285" transform="matrix(1 0 -0.00896056 0.99996 62.5918 0.323242)" fill="#303436"/>
<rect width="7.1804" height="41.6778" rx="3.5902" transform="matrix(1 0 -0.00896056 0.99996 7.84131 0.32373)" fill="#303436"/>
<rect width="7.1804" height="41.6778" rx="3.5902" transform="matrix(1 0 -0.00896056 0.99996 46.4355 0.323242)" fill="#303436"/>
<rect width="4.48775" height="41.6778" rx="2.24387" transform="matrix(1 0 -0.00896056 0.99996 77.8521 0.323242)" fill="#303436"/>
<rect width="3.5902" height="41.6778" rx="1.7951" transform="matrix(1 0 -0.00896056 0.99996 17.7144 0.324219)" fill="#303436"/>
<rect width="3.5902" height="41.6778" rx="1.7951" transform="matrix(1 0 -0.00896056 0.99996 56.3086 0.323242)" fill="#303436"/>
<rect width="2.69265" height="41.6778" rx="1.34632" transform="matrix(1 0 -0.00896056 0.99996 84.1333 0.32373)" fill="#303436"/>
</g>
</svg>
