<svg width="48" height="47" viewBox="0 0 48 47" fill="none" xmlns="http://www.w3.org/2000/svg">
<mask id="path-1-outside-1_2305_248" maskUnits="userSpaceOnUse" x="0" y="0" width="48" height="47" fill="black">
<rect fill="white" width="48" height="47"/>
<path fill-rule="evenodd" clip-rule="evenodd" d="M26.6635 2.07569C26.6635 1.57888 26.2966 1.15606 25.8021 1.10786C25.0702 1.03652 24.328 1 23.5773 1C11.1082 1 1 11.0736 1 23.5C1 35.9264 11.1082 46 23.5773 46C35.1437 46 44.6787 37.3321 45.9986 26.1588C46.0669 25.5811 45.605 25.0873 45.0232 25.0873V25.0873C44.4988 25.0873 44.0654 25.4918 44.0016 26.0123C42.7585 36.1441 34.0937 44 23.5773 44C12.2063 44 3 34.8154 3 23.5C3 12.1846 12.2063 3 23.5773 3C24.2321 3 24.8797 3.03045 25.5187 3.09001C26.1234 3.14636 26.6635 2.68292 26.6635 2.07569V2.07569Z"/>
</mask>
<path fill-rule="evenodd" clip-rule="evenodd" d="M26.6635 2.07569C26.6635 1.57888 26.2966 1.15606 25.8021 1.10786C25.0702 1.03652 24.328 1 23.5773 1C11.1082 1 1 11.0736 1 23.5C1 35.9264 11.1082 46 23.5773 46C35.1437 46 44.6787 37.3321 45.9986 26.1588C46.0669 25.5811 45.605 25.0873 45.0232 25.0873V25.0873C44.4988 25.0873 44.0654 25.4918 44.0016 26.0123C42.7585 36.1441 34.0937 44 23.5773 44C12.2063 44 3 34.8154 3 23.5C3 12.1846 12.2063 3 23.5773 3C24.2321 3 24.8797 3.03045 25.5187 3.09001C26.1234 3.14636 26.6635 2.68292 26.6635 2.07569V2.07569Z" fill="url(#paint0_linear_2305_248)"/>
<path d="M45.9986 26.1588L46.9917 26.2761L45.9986 26.1588ZM44.0016 26.0123L43.009 25.8905L44.0016 26.0123ZM25.8991 0.112579C25.135 0.0380947 24.3605 0 23.5773 0V2C24.2956 2 25.0054 2.03494 25.7051 2.10314L25.8991 0.112579ZM23.5773 0C10.5592 0 0 10.5181 0 23.5H2C2 11.6291 11.6573 2 23.5773 2V0ZM0 23.5C0 36.4819 10.5592 47 23.5773 47V45C11.6573 45 2 35.3709 2 23.5H0ZM23.5773 47C35.6539 47 45.6127 37.9496 46.9917 26.2761L45.0055 26.0415C43.7447 36.7147 34.6336 45 23.5773 45V47ZM23.5773 45C34.6025 45 43.69 36.7638 44.9941 26.1341L43.009 25.8905C41.827 35.5245 33.5849 43 23.5773 43V45ZM2 23.5C2 35.3708 11.6572 45 23.5773 45V43C12.7554 43 4 34.26 4 23.5H2ZM23.5773 2C11.6572 2 2 11.6292 2 23.5H4C4 12.74 12.7554 4 23.5773 4V2ZM25.6115 2.09433C24.9417 2.0319 24.2631 2 23.5773 2V4C24.2011 4 24.8177 4.02901 25.4259 4.0857L25.6115 2.09433ZM25.4259 4.0857C26.5794 4.1932 27.6635 3.30897 27.6635 2.07569H25.6635C25.6635 2.07724 25.6635 2.07524 25.6644 2.07327C25.6648 2.07243 25.6636 2.07535 25.6584 2.07991C25.6469 2.09002 25.6305 2.09609 25.6115 2.09433L25.4259 4.0857ZM46.9917 26.2761C47.134 25.0716 46.1709 24.0873 45.0232 24.0873V26.0873C45.026 26.0873 45.0254 26.0877 45.0234 26.0868C45.0221 26.0862 45.0203 26.0852 45.0181 26.0828C45.0158 26.0803 45.0119 26.0749 45.0088 26.0658C45.0053 26.0555 45.005 26.0461 45.0055 26.0415L46.9917 26.2761ZM45.0232 24.0873C43.9653 24.0873 43.1309 24.8972 43.009 25.8905L44.9941 26.1341C44.9964 26.1154 45.005 26.1013 45.0143 26.0928C45.0185 26.0889 45.0215 26.0876 45.0221 26.0874C45.0223 26.0873 45.0223 26.0873 45.0221 26.0874C45.0218 26.0874 45.022 26.0873 45.0232 26.0873V24.0873ZM25.7051 2.10314C25.699 2.10255 25.6908 2.10036 25.683 2.09629C25.6758 2.09253 25.6713 2.08842 25.6687 2.08551C25.6638 2.08001 25.6635 2.07561 25.6635 2.07569H27.6635C27.6635 1.08842 26.9297 0.213033 25.8991 0.112579L25.7051 2.10314Z" fill="url(#paint1_linear_2305_248)" mask="url(#path-1-outside-1_2305_248)"/>
<defs>
<linearGradient id="paint0_linear_2305_248" x1="4.12749" y1="23.0212" x2="46.0053" y2="23.0212" gradientUnits="userSpaceOnUse">
<stop stop-color="#577BFA"/>
<stop offset="1" stop-color="#A4DBF8" stop-opacity="0"/>
</linearGradient>
<linearGradient id="paint1_linear_2305_248" x1="4.12749" y1="23.0212" x2="46.0053" y2="23.0212" gradientUnits="userSpaceOnUse">
<stop stop-color="#577BFA"/>
<stop offset="1" stop-color="#A4DBF8" stop-opacity="0"/>
</linearGradient>
</defs>
</svg>
