<svg width="37" height="37" viewBox="0 0 37 37" fill="none" xmlns="http://www.w3.org/2000/svg">
<mask id="path-1-outside-1_2268_318" maskUnits="userSpaceOnUse" x="0" y="0" width="37" height="37" fill="black">
<rect fill="white" width="37" height="37"/>
<path fill-rule="evenodd" clip-rule="evenodd" d="M20.9605 2.02747C20.9605 1.53174 20.5944 1.10918 20.1005 1.0664C19.5929 1.02244 19.0792 1 18.5601 1C8.86194 1 1 8.83502 1 18.5C1 28.165 8.86194 36 18.5601 36C27.4736 36 34.8359 29.3817 35.969 20.8071C36.0453 20.2297 35.5823 19.7346 34.9999 19.7346V19.7346C34.4758 19.7346 34.0432 20.1388 33.9706 20.6579C32.9168 28.1922 26.4241 34 18.5601 34C9.96003 34 3 27.054 3 18.5C3 9.94605 9.96003 3 18.5601 3C18.9818 3 19.3996 3.0167 19.8127 3.04947C20.4185 3.09751 20.9605 2.6351 20.9605 2.02747V2.02747Z"/>
</mask>
<path fill-rule="evenodd" clip-rule="evenodd" d="M20.9605 2.02747C20.9605 1.53174 20.5944 1.10918 20.1005 1.0664C19.5929 1.02244 19.0792 1 18.5601 1C8.86194 1 1 8.83502 1 18.5C1 28.165 8.86194 36 18.5601 36C27.4736 36 34.8359 29.3817 35.969 20.8071C36.0453 20.2297 35.5823 19.7346 34.9999 19.7346V19.7346C34.4758 19.7346 34.0432 20.1388 33.9706 20.6579C32.9168 28.1922 26.4241 34 18.5601 34C9.96003 34 3 27.054 3 18.5C3 9.94605 9.96003 3 18.5601 3C18.9818 3 19.3996 3.0167 19.8127 3.04947C20.4185 3.09751 20.9605 2.6351 20.9605 2.02747V2.02747Z" fill="url(#paint0_linear_2268_318)" fill-opacity="0.5"/>
<path d="M35.969 20.8071L36.9604 20.9381L35.969 20.8071ZM33.9706 20.6579L34.961 20.7964L33.9706 20.6579ZM20.1868 0.0701333C19.6506 0.0236889 19.108 0 18.5601 0V2C19.0503 2 19.5353 2.02119 20.0142 2.06267L20.1868 0.0701333ZM18.5601 0C8.31289 0 0 8.2795 0 18.5H2C2 9.39053 9.41099 2 18.5601 2V0ZM0 18.5C0 28.7205 8.31289 37 18.5601 37V35C9.41099 35 2 27.6095 2 18.5H0ZM18.5601 37C27.9792 37 35.7621 30.0061 36.9604 20.9381L34.9776 20.6761C33.9097 28.7573 26.968 35 18.5601 35V37ZM18.5601 35C26.9273 35 33.8386 28.8202 34.961 20.7964L32.9803 20.5193C31.9949 27.5641 25.9209 33 18.5601 33V35ZM2 18.5C2 27.6093 9.41086 35 18.5601 35V33C10.5092 33 4 26.4986 4 18.5H2ZM18.5601 2C9.41086 2 2 9.39066 2 18.5H4C4 10.5014 10.5092 4 18.5601 4V2ZM19.8918 2.0526C19.4524 2.01775 19.0082 2 18.5601 2V4C18.9554 4 19.3468 4.01565 19.7337 4.04634L19.8918 2.0526ZM19.7337 4.04634C20.8715 4.13658 21.9605 3.26712 21.9605 2.02747H19.9605C19.9605 2.02858 19.9606 2.02628 19.9615 2.02436C19.9619 2.02363 19.9603 2.02735 19.9538 2.03308C19.9391 2.04596 19.9168 2.05458 19.8918 2.0526L19.7337 4.04634ZM36.9604 20.9381C37.1213 19.7207 36.1447 18.7346 34.9999 18.7346V20.7346C35.0033 20.7346 34.9989 20.735 34.9932 20.7288C34.9901 20.7254 34.9851 20.7185 34.9813 20.707C34.9772 20.6944 34.9768 20.6825 34.9776 20.6761L36.9604 20.9381ZM34.9999 18.7346C33.9397 18.7346 33.1167 19.5442 32.9803 20.5193L34.961 20.7964C34.9644 20.7718 34.9761 20.7529 34.9882 20.7419C34.9937 20.7368 34.9976 20.7351 34.9985 20.7347C34.9988 20.7346 34.9986 20.7346 34.9999 20.7346V18.7346ZM20.0142 2.06267C20.006 2.06196 19.9957 2.05922 19.9858 2.05416C19.9766 2.04942 19.9707 2.04415 19.9672 2.04026C19.9639 2.03647 19.9623 2.03331 19.9614 2.03115C19.9605 2.02862 19.9605 2.02709 19.9605 2.02747H21.9605C21.9605 1.0442 21.2282 0.160327 20.1868 0.0701333L20.0142 2.06267Z" fill="url(#paint1_linear_2268_318)" fill-opacity="0.5" mask="url(#path-1-outside-1_2268_318)"/>
<defs>
<linearGradient id="paint0_linear_2268_318" x1="3.43062" y1="18.1276" x2="35.9773" y2="18.1276" gradientUnits="userSpaceOnUse">
<stop stop-color="#ADBFFF"/>
<stop offset="1" stop-color="#A4DBF8" stop-opacity="0"/>
</linearGradient>
<linearGradient id="paint1_linear_2268_318" x1="3.43062" y1="18.1276" x2="35.9773" y2="18.1276" gradientUnits="userSpaceOnUse">
<stop stop-color="#ADBFFF"/>
<stop offset="1" stop-color="#A4DBF8" stop-opacity="0"/>
</linearGradient>
</defs>
</svg>
