<svg width="32" height="32" viewBox="0 0 32 32" fill="none" xmlns="http://www.w3.org/2000/svg">
<mask id="path-1-outside-1_2214_1599" maskUnits="userSpaceOnUse" x="0" y="0" width="32" height="32" fill="black">
<rect fill="white" width="32" height="32"/>
<path fill-rule="evenodd" clip-rule="evenodd" d="M18.109 2.00281C18.109 1.50794 17.7435 1.08561 17.2502 1.04687C16.8547 1.01582 16.455 1 16.0515 1C7.73881 1 1 7.71573 1 16C1 24.2843 7.73881 31 16.0515 31C23.6383 31 29.9141 25.406 30.9523 18.1311C31.0347 17.554 30.5709 17.0582 29.9879 17.0582C29.464 17.0582 29.0321 17.462 28.9526 17.9799C27.9956 24.2154 22.5893 29 16.0515 29C8.8369 29 3 23.1732 3 16C3 8.82676 8.8369 3 16.0515 3C16.3566 3 16.6591 3.01042 16.9589 3.03091C17.5654 3.07237 18.109 2.61074 18.109 2.00281Z"/>
</mask>
<path fill-rule="evenodd" clip-rule="evenodd" d="M18.109 2.00281C18.109 1.50794 17.7435 1.08561 17.2502 1.04687C16.8547 1.01582 16.455 1 16.0515 1C7.73881 1 1 7.71573 1 16C1 24.2843 7.73881 31 16.0515 31C23.6383 31 29.9141 25.406 30.9523 18.1311C31.0347 17.554 30.5709 17.0582 29.9879 17.0582C29.464 17.0582 29.0321 17.462 28.9526 17.9799C27.9956 24.2154 22.5893 29 16.0515 29C8.8369 29 3 23.1732 3 16C3 8.82676 8.8369 3 16.0515 3C16.3566 3 16.6591 3.01042 16.9589 3.03091C17.5654 3.07237 18.109 2.61074 18.109 2.00281Z" fill="url(#paint0_linear_2214_1599)"/>
<path d="M16.9589 3.03091L16.9248 3.52974L16.9589 3.03091ZM30.9523 18.1311L30.4574 18.0605L30.9523 18.1311ZM28.9526 17.9799L29.4468 18.0557L28.9526 17.9799ZM17.2893 0.548403C16.8809 0.516332 16.4681 0.5 16.0515 0.5V1.5C16.4419 1.5 16.8286 1.51531 17.211 1.54533L17.2893 0.548403ZM16.0515 0.5C7.46428 0.5 0.5 7.43797 0.5 16H1.5C1.5 7.99349 8.01333 1.5 16.0515 1.5V0.5ZM0.5 16C0.5 24.562 7.46428 31.5 16.0515 31.5V30.5C8.01333 30.5 1.5 24.0065 1.5 16H0.5ZM16.0515 31.5C23.8894 31.5 30.3742 25.7208 31.4473 18.2018L30.4574 18.0605C29.4539 25.0913 23.3872 30.5 16.0515 30.5V31.5ZM16.0515 29.5C22.8387 29.5 28.4528 24.5327 29.4468 18.0557L28.4584 17.904C27.5385 23.898 22.3398 28.5 16.0515 28.5V29.5ZM2.5 16C2.5 23.4509 8.5623 29.5 16.0515 29.5V28.5C9.1115 28.5 3.5 22.8956 3.5 16H2.5ZM16.0515 2.5C8.5623 2.5 2.5 8.54908 2.5 16H3.5C3.5 9.10444 9.1115 3.5 16.0515 3.5V2.5ZM16.993 2.53207C16.6819 2.5108 16.368 2.5 16.0515 2.5V3.5C16.3452 3.5 16.6364 3.51003 16.9248 3.52974L16.993 2.53207ZM16.9248 3.52974C17.7907 3.58894 18.609 2.92903 18.609 2.00281H17.609C17.609 2.29245 17.3401 2.5558 16.993 2.53207L16.9248 3.52974ZM31.4473 18.2018C31.5761 17.2995 30.8504 16.5582 29.9879 16.5582V17.5582C30.2913 17.5582 30.4933 17.8085 30.4574 18.0605L31.4473 18.2018ZM29.9879 16.5582C29.1951 16.5582 28.5719 17.1646 28.4584 17.904L29.4468 18.0557C29.4923 17.7595 29.7329 17.5582 29.9879 17.5582V16.5582ZM17.211 1.54533C17.4264 1.56224 17.609 1.7506 17.609 2.00281H18.609C18.609 1.26528 18.0607 0.60897 17.2893 0.548403L17.211 1.54533Z" fill="url(#paint1_linear_2214_1599)" mask="url(#path-1-outside-1_2214_1599)"/>
<defs>
<linearGradient id="paint0_linear_2214_1599" x1="3.08209" y1="15.6808" x2="30.9618" y2="15.6808" gradientUnits="userSpaceOnUse">
<stop stop-color="#577BFA"/>
<stop offset="1" stop-color="#A4DBF8" stop-opacity="0"/>
</linearGradient>
<linearGradient id="paint1_linear_2214_1599" x1="3.08209" y1="15.6808" x2="30.9618" y2="15.6808" gradientUnits="userSpaceOnUse">
<stop stop-color="#577BFA"/>
<stop offset="1" stop-color="#A4DBF8" stop-opacity="0"/>
</linearGradient>
</defs>
</svg>
