<svg width="65" height="12" viewBox="0 0 65 12" fill="none" xmlns="http://www.w3.org/2000/svg">
<path d="M10.7984 6.08967C10.7984 9.24901 8.36776 11.7765 5.41912 11.7765C2.43063 11.7765 0 9.20688 0 6.08967C0 2.93033 2.43063 0.402854 5.37927 0.402854C8.36776 0.36073 10.7984 2.93033 10.7984 6.08967Z" fill="#41454C"/>
<path d="M24.1882 6.08964C24.1882 9.24899 21.7576 11.7765 18.809 11.7765C15.8603 11.7765 13.4297 9.20686 13.4297 6.08964C13.4297 2.9303 15.8603 0.402832 18.809 0.402832C21.7576 0.402832 24.1882 2.9303 24.1882 6.08964Z" fill="#41454C"/>
<path d="M37.616 6.08967C37.616 9.24901 35.1853 11.7765 32.2367 11.7765C29.2482 11.7765 26.8574 9.20688 26.8574 6.08967C26.8574 2.93033 29.2881 0.402854 32.2367 0.402854C35.2252 0.36073 37.616 2.93033 37.616 6.08967Z" fill="#41454C"/>
<path d="M45.6644 0.36084C42.6759 0.36084 40.2852 2.93044 40.2852 6.04765C40.2852 9.20699 42.7158 11.7345 45.6644 11.7345C48.6529 11.7345 51.0437 9.16487 51.0437 6.04765C51.0437 2.93044 48.6131 0.36084 45.6644 0.36084ZM45.6644 10.7235C43.2338 10.7235 41.2813 8.65937 41.2813 6.08978C41.2813 3.52018 43.2338 1.45608 45.6644 1.45608C48.0951 1.45608 50.0475 3.52018 50.0475 6.08978C50.0475 8.65937 48.0552 10.7235 45.6644 10.7235Z" fill="#41454C"/>
<path d="M59.0531 0.36084C56.0646 0.36084 53.6738 2.93044 53.6738 6.04765C53.6738 9.20699 56.1045 11.7345 59.0531 11.7345C62.0416 11.7345 64.4324 9.16487 64.4324 6.04765C64.4722 2.93044 62.0416 0.36084 59.0531 0.36084ZM59.0531 10.7235C56.6225 10.7235 54.67 8.65937 54.67 6.08978C54.67 3.52018 56.6225 1.45608 59.0531 1.45608C61.4837 1.45608 63.4362 3.52018 63.4362 6.08978C63.4362 8.65937 61.4837 10.7235 59.0531 10.7235Z" fill="#41454C"/>
</svg>
