<svg width="216" height="215" viewBox="0 0 216 215" fill="none" xmlns="http://www.w3.org/2000/svg">
<g clip-path="url(#clip0_2401_1375)">
<path d="M60.0297 42.9706C67.523 27.417 80.3477 21.3312 96.974 18.0862C105.379 16.4468 114.205 16.3579 122.485 18.7183C130.619 21.0367 137.99 25.3744 144.123 31.1932C150.343 37.1035 155.011 44.4699 158.239 52.3962C159.212 54.7884 160.832 56.3132 163.489 56.4219C164.594 56.4696 165.691 56.3552 166.789 56.2314C167.934 56.1041 168.489 56.05 169.488 56.1936C173.369 56.7583 177.033 57.846 180.606 59.5575C194.164 66.0608 201.799 80.5245 204.12 95.0412C206.727 111.319 203.963 134.199 186.194 141C184.174 141.772 182.07 142.192 179.913 142.321C178.389 142.411 177.901 144.09 178.252 145.29C181.692 157.05 177.806 170.095 170.081 179.286C161.961 188.945 149.511 194.024 137.159 195.019C130.886 195.526 124.257 195.126 118.284 193.029C116.69 192.47 115.119 191.8 113.65 190.958C112.313 190.194 111.184 189.204 109.961 188.289C107.147 186.174 103.324 186.095 100.351 187.915C99.2658 188.58 98.2796 189.401 97.194 190.071C96.344 190.596 95.1961 191.197 94.1238 191.684C91.8385 192.726 89.612 193.449 87.2645 193.967C82.1483 195.083 77.1403 195.216 72.0009 194.661C61.8152 193.56 51.6076 189.869 43.5155 183.578C39.2665 180.28 35.932 176.166 32.956 171.49C29.5384 166.11 26.8831 160.037 25.8759 153.711C25.3921 150.692 25.3085 147.648 25.7759 144.62C26.007 143.108 26.3794 141.637 26.913 140.201C27.5543 138.47 28.3858 136.729 28.0456 134.833C27.4698 131.642 24.1503 130.175 21.7413 128.533C19.5807 127.06 17.4852 125.48 15.5777 123.683C11.8395 120.154 9.15375 115.462 8.03071 110.292C6.73902 104.352 6.80001 97.8738 8.88436 92.1131C9.9085 89.2826 11.3992 86.6905 13.4344 84.4697C14.4794 83.3295 15.7367 82.4197 16.7939 81.2953C18.1722 79.8317 18.6407 78.008 18.8886 76.0573C19.4841 71.4335 21.1536 66.8393 23.5962 62.83C26.2716 58.4324 29.6252 54.66 33.8229 51.7371C37.731 49.0151 42.4522 47.2385 47.2199 47.2122C49.5517 47.1997 52.1324 47.6544 54.371 48.4267C55.463 48.8047 56.7069 48.3815 57.1677 47.2633C57.5878 46.2443 57.1109 44.8384 56.0096 44.4593C50.5346 42.5768 44.8018 42.4969 39.2893 44.2507C34.0718 45.9133 29.5052 49.1789 25.7146 53.0817C21.963 56.9373 18.9549 61.6157 16.9555 66.619C16.0059 69.0037 15.2785 71.5014 14.8542 74.0322C14.6056 75.4945 14.7003 77.1609 13.7019 78.3448C12.682 79.5497 11.3269 80.4853 10.2378 81.6389C5.72107 86.4372 3.47782 93.0931 3.01308 99.5869C2.55941 105.992 3.49149 112.807 6.44185 118.561C9.03446 123.62 13.0612 127.602 17.628 130.893C18.7641 131.713 19.9288 132.493 21.1057 133.252C21.9277 133.786 23.6258 134.533 23.8299 135.587C23.9486 136.19 23.5826 136.927 23.3685 137.469C23.056 138.269 22.7435 139.069 22.4898 139.891C21.9789 141.562 21.5954 143.273 21.3887 145.006C20.5754 151.831 22.1289 158.78 24.7685 165.055C27.3267 171.148 30.9723 176.936 35.3836 181.853C42.6331 189.935 52.9471 194.896 63.3415 197.468C73.8506 200.068 85.6641 200.205 95.6914 195.677C96.9685 195.102 98.1961 194.43 99.4016 193.708C100.505 193.044 101.498 192.211 102.589 191.536C103.552 190.94 104.786 190.71 105.881 190.984C107.389 191.362 108.494 192.695 109.74 193.542C115.587 197.524 122.795 199.077 129.765 199.397C143.121 200.011 156.959 196.347 167.449 187.809C177.775 179.407 184.079 166.374 183.719 152.998C183.632 149.792 183.076 146.669 182.174 143.599C181.62 144.587 181.066 145.58 180.513 146.568C190.822 145.958 199.397 138.712 204.028 129.818C208.483 121.262 209.587 111.197 209.102 101.669C208.287 85.8425 201.952 69.2179 188.883 59.5851C185.581 57.1488 181.892 55.1952 178.011 53.8719C175.948 53.1643 173.819 52.6142 171.676 52.2141C170.724 52.0385 169.752 51.8366 168.785 51.8203C167.625 51.7988 166.489 51.9605 165.34 52.0779C164.934 52.1173 164.275 52.1725 164.015 52.1686C163.761 52.1606 163.508 52.1432 163.258 52.1025C162.535 51.9839 163.386 52.1754 163.01 52.0385C162.675 51.9208 162.792 52.0065 162.554 51.6023C162.195 50.9934 161.99 50.2519 161.717 49.6015C160.834 47.5097 159.846 45.4618 158.756 43.4722C156.572 39.4971 154.022 35.7277 151.051 32.2993C145.181 25.513 137.831 20.0164 129.515 16.6181C120.903 13.0974 111.588 12.0255 102.364 12.9559C84.4526 14.7558 67.4098 20.3691 56.7576 39.295C55.488 41.251 56.4308 39.4851 55.4172 41.5868C54.2179 44.0778 58.8369 45.4482 60.0297 42.9706Z" fill="#303436"/>
<path d="M188.879 164.649C189.021 165.411 189.133 166.179 189.207 166.952C189.239 167.302 189.266 167.656 189.284 168.004C189.295 168.214 189.302 168.428 189.309 168.638C189.325 169.038 189.318 168.563 189.311 168.804C189.282 170.327 189.166 171.829 188.894 173.327C188.832 173.675 188.76 174.021 188.684 174.363C188.64 174.57 188.586 174.772 188.537 174.979C188.612 174.676 188.528 175.007 188.493 175.14C188.29 175.854 188.061 176.556 187.795 177.248C187.521 177.972 187.209 178.687 186.872 179.38C186.719 179.697 186.558 180.009 186.387 180.319C186.381 180.328 186.054 180.904 186.246 180.572C186.139 180.753 186.026 180.934 185.919 181.114C185.328 182.065 185.311 183.414 186.319 184.123C187.193 184.734 188.685 184.74 189.318 183.719C192.95 177.872 194.392 170.813 193.122 164.017C192.915 162.915 191.864 161.978 190.697 162.202C189.586 162.429 188.658 163.47 188.879 164.649Z" fill="#303436"/>
<path d="M206.878 69.3299C208.04 71.7173 209.203 74.1048 210.366 76.4922C210.855 77.4967 212.098 78.1401 213.175 77.6201C214.175 77.1382 214.824 75.8821 214.301 74.8024C213.138 72.415 211.976 70.0275 210.813 67.6401C210.324 66.6356 209.08 65.9922 208.004 66.5122C207.003 66.9942 206.355 68.2502 206.878 69.3299Z" fill="#303436"/>
<path d="M18.419 55.9498C18.4545 55.7409 18.4895 55.5366 18.5337 55.3336C18.5547 55.2414 18.575 55.1538 18.596 55.0616C18.6553 54.7751 18.4714 55.4917 18.5535 55.2128C18.6745 54.8107 18.7996 54.4138 18.9521 54.0252C19.097 53.6592 19.2605 53.2956 19.4415 52.9437C19.4851 52.859 19.5281 52.7791 19.5712 52.6991C19.7935 52.2812 19.3885 52.9892 19.5357 52.7563C19.6474 52.5806 19.7551 52.3997 19.8714 52.2246C20.092 51.8965 20.3299 51.5801 20.5807 51.2748C20.7145 51.1114 20.8524 50.9532 20.9897 50.7996C21.0502 50.7313 21.1154 50.6636 21.1806 50.5959C21.4098 50.3495 21.0828 50.6595 21.0886 50.6887C21.0613 50.5668 21.9235 49.9443 22.0329 49.8631C22.3628 49.6056 22.7043 49.3685 23.0586 49.1425C24.0128 48.5409 24.1304 46.9532 23.4341 46.1315C22.6226 45.1722 21.448 45.1157 20.4322 45.757C17.0722 47.8741 14.8071 51.5217 14.1692 55.4243C13.9882 56.5348 14.9026 57.7298 16.0261 57.8178C17.2245 57.9104 18.2235 57.139 18.419 55.9498Z" fill="#303436"/>
<path d="M24.4355 181.347C24.4355 184.361 21.992 186.805 18.9779 186.805C15.9638 186.805 13.5204 184.361 13.5204 181.347C13.5204 178.333 15.9638 175.89 18.9779 175.89C21.992 175.89 24.4355 178.333 24.4355 181.347Z" stroke="#303436" stroke-width="2"/>
<path d="M18.9004 200.258C18.9004 202.508 17.0765 204.332 14.8266 204.332C12.5767 204.332 10.7528 202.508 10.7528 200.258C10.7528 198.008 12.5767 196.185 14.8266 196.185C17.0765 196.185 18.9004 198.008 18.9004 200.258Z" stroke="#303436" stroke-width="2"/>
<path d="M15.7347 90.9409C14.0684 97.3106 12.5688 111.579 19.9004 117.694" stroke="#303436" stroke-width="3" stroke-linecap="round" stroke-linejoin="round"/>
<path d="M114.457 23.5981C123.068 25.7506 142.686 35.2216 152.28 55.886" stroke="#303436" stroke-width="3" stroke-linecap="round" stroke-linejoin="round"/>
<path d="M116.764 185.498C124.451 187.958 143.332 190.664 157.354 181.808" stroke="#303436" stroke-width="3" stroke-linecap="round" stroke-linejoin="round"/>
<path d="M51.7269 30.9781C56.032 24.0592 69.3469 9.94476 88.166 8.83789" stroke="#303436" stroke-width="3" stroke-linecap="round" stroke-linejoin="round"/>
</g>
<defs>
<clipPath id="clip0_2401_1375">
<rect width="214.945" height="214.022" fill="white" transform="translate(0.527679 0.535156)"/>
</clipPath>
</defs>
</svg>
