<svg width="149" height="144" viewBox="0 0 149 144" fill="none" xmlns="http://www.w3.org/2000/svg">
<g clip-path="url(#clip0_1748_1253)">
<path d="M44.1668 29.4367C49.038 20.1739 58.683 14.3544 68.8156 12.7442C73.9379 11.9308 79.2816 12.0658 84.2416 13.6729C89.1141 15.2516 93.4817 18.0373 97.0675 21.6938C100.705 25.4076 103.371 29.9704 105.153 34.8416C105.69 36.3118 106.638 37.2702 108.243 37.3929C108.911 37.4455 109.577 37.3996 110.244 37.3481C110.94 37.2955 111.277 37.2746 111.878 37.3829C114.215 37.8081 116.409 38.5455 118.535 39.6588C126.599 43.8889 130.908 52.8151 131.999 61.6596C133.225 71.5773 131.058 85.3802 120.157 89.1199C118.917 89.5444 117.635 89.754 116.327 89.786C115.403 89.8077 115.071 90.8145 115.257 91.5494C117.085 98.7475 114.451 106.568 109.577 111.971C104.454 117.649 96.8095 120.46 89.3125 120.798C85.5045 120.971 81.5013 120.587 77.9317 119.189C76.979 118.816 76.0428 118.377 75.172 117.835C74.3794 117.343 73.7174 116.72 72.9968 116.139C71.3398 114.797 69.0275 114.668 67.1889 115.706C66.5178 116.087 65.9032 116.563 65.2317 116.946C64.7059 117.245 63.9982 117.585 63.3387 117.857C61.9331 118.44 60.5699 118.83 59.138 119.093C56.0174 119.66 52.9837 119.634 49.8852 119.187C43.7445 118.303 37.6464 115.848 32.8849 111.863C30.3846 109.774 28.4555 107.21 26.7554 104.314C24.8033 100.981 23.3275 97.2452 22.8547 93.3907C22.6271 91.5515 22.6423 89.7052 22.9906 87.8808C23.1632 86.9697 23.4204 86.0867 23.7743 85.228C24.1999 84.193 24.7407 83.1564 24.5758 82.0004C24.2963 80.0546 22.319 79.0951 20.8965 78.0486C19.6207 77.1096 18.3866 76.1079 17.271 74.9779C15.0849 72.76 13.5608 69.86 12.9929 66.7037C12.3395 63.0772 12.5164 59.154 13.9024 55.7084C14.5834 54.0155 15.5416 52.477 16.8214 51.175C17.4785 50.5066 18.2591 49.9823 18.9232 49.3237C19.789 48.4665 20.1119 47.3717 20.3042 46.1951C20.7645 43.4065 21.8742 40.6589 23.4392 38.2821C25.1534 35.6751 27.2646 33.4613 29.8683 31.7803C32.2923 30.2148 35.1881 29.2395 38.0741 29.3256C39.4856 29.3679 41.0377 29.6986 42.3759 30.2144C43.0286 30.4668 43.7905 30.237 44.0936 29.5694C44.3699 28.961 44.1116 28.099 43.4533 27.8458C40.1805 26.5881 36.7126 26.4171 33.3384 27.3617C30.1448 28.2573 27.3104 30.138 24.9319 32.4215C22.5781 34.6771 20.6564 37.4471 19.3382 40.4356C18.7119 41.86 18.2177 43.3577 17.9062 44.8819C17.7242 45.7625 17.7455 46.7741 17.1157 47.47C16.4723 48.1782 15.632 48.716 14.9479 49.3916C12.1106 52.202 10.6091 56.1865 10.1875 60.1108C9.77449 63.9816 10.1913 68.1304 11.8526 71.6793C13.3123 74.8001 15.6633 77.2988 18.356 79.3903C19.0259 79.9112 19.7139 80.409 20.4098 80.8936C20.8958 81.2347 21.9074 81.724 22.0081 82.367C22.0669 82.7347 21.8295 83.1731 21.6882 83.497C21.4818 83.9751 21.2753 84.4531 21.104 84.9455C20.7587 85.9472 20.4896 86.9756 20.3271 88.0211C19.6874 92.1385 20.4773 96.382 21.9393 100.24C23.3559 103.986 25.4371 107.571 28.0006 110.644C32.2135 115.696 38.3485 118.922 44.5838 120.702C50.8878 122.503 58.0346 122.838 64.2012 120.31C64.9865 119.988 65.744 119.608 66.4891 119.196C67.1715 118.818 67.7902 118.334 68.465 117.948C69.0606 117.608 69.8124 117.495 70.4695 117.685C71.374 117.946 72.0141 118.777 72.7499 119.317C76.2023 121.854 80.5312 122.95 84.7425 123.292C92.8127 123.95 101.267 122.026 107.8 117.078C114.231 112.209 118.328 104.448 118.4 96.3361C118.416 94.3918 118.147 92.4882 117.667 90.6084C117.311 91.1953 116.954 91.7849 116.598 92.3717C122.85 92.2226 128.197 88.0164 131.191 82.7268C134.073 77.6386 134.959 71.5647 134.871 65.7819C134.72 56.1758 131.245 45.9682 123.544 39.8527C121.598 38.3059 119.407 37.0435 117.087 36.1587C115.854 35.6859 114.577 35.307 113.289 35.0188C112.717 34.892 112.133 34.7489 111.548 34.7183C110.846 34.6805 110.155 34.7542 109.457 34.8007C109.21 34.8159 108.81 34.8352 108.653 34.8273C108.5 34.817 108.347 34.8011 108.196 34.7711C107.762 34.6838 108.272 34.818 108.048 34.727C107.848 34.6485 107.917 34.703 107.781 34.453C107.577 34.0764 107.469 33.6228 107.318 33.2229C106.829 31.9367 106.275 30.6748 105.659 29.4461C104.423 26.9911 102.961 24.6528 101.237 22.5121C97.8306 18.2751 93.5012 14.7878 88.5419 12.551C83.4056 10.2337 77.7913 9.38498 72.1886 9.75133C61.3095 10.4586 50.3822 15.6471 44.0176 24.733C43.207 25.8909 42.4676 27.1065 41.8087 28.3581C41.0291 29.8416 43.3913 30.9122 44.1668 29.4367Z" fill="#303436"/>
<path d="M121.271 103.505C121.34 103.97 121.391 104.438 121.419 104.907C121.431 105.12 121.439 105.335 121.443 105.547C121.445 105.674 121.445 105.804 121.444 105.931C121.445 106.174 121.451 105.886 121.442 106.032C121.392 106.954 121.289 107.862 121.092 108.763C121.047 108.972 120.996 109.181 120.943 109.386C120.911 109.511 120.874 109.632 120.84 109.757C120.892 109.574 120.834 109.773 120.81 109.853C120.672 110.281 120.518 110.701 120.342 111.115C120.16 111.548 119.957 111.974 119.738 112.387C119.638 112.576 119.534 112.761 119.423 112.946C119.42 112.951 119.209 113.293 119.333 113.096C119.264 113.203 119.192 113.31 119.123 113.417C118.745 113.981 118.705 114.797 119.3 115.249C119.816 115.638 120.719 115.673 121.124 115.068C123.448 111.603 124.474 107.357 123.852 103.213C123.75 102.541 123.135 101.951 122.424 102.062C121.747 102.175 121.162 102.786 121.271 103.505Z" fill="#303436"/>
<path d="M134.223 46.1414C134.876 47.6128 135.528 49.0841 136.18 50.5554C136.454 51.1744 137.193 51.5908 137.855 51.2988C138.471 51.0282 138.891 50.2811 138.598 49.6158C137.946 48.1445 137.294 46.6732 136.642 45.2019C136.367 44.5829 135.629 44.1665 134.966 44.4584C134.35 44.729 133.931 45.4761 134.223 46.1414Z" fill="#303436"/>
<path d="M141.235 46.1C141.286 46.7119 141.338 47.3239 141.391 47.9363C141.417 48.2582 141.61 48.5955 141.857 48.7998C141.987 48.9162 142.139 48.9926 142.309 49.0285C142.474 49.0955 142.643 49.1141 142.823 49.0882C143.148 49.0365 143.479 48.8933 143.684 48.6201C143.896 48.3365 144.003 48.01 143.972 47.6525C143.921 47.0406 143.869 46.4286 143.816 45.8162C143.79 45.4943 143.597 45.157 143.35 44.9527C143.22 44.8363 143.068 44.7599 142.898 44.7239C142.733 44.657 142.564 44.6383 142.384 44.6643C142.059 44.716 141.729 44.8592 141.523 45.1324C141.311 45.4131 141.207 45.7401 141.235 46.1Z" fill="#303436"/>
<path d="M20.4545 34.0031C20.4805 33.8773 20.5061 33.7543 20.5372 33.6322C20.5519 33.5768 20.5661 33.5242 20.5808 33.4688C20.6229 33.2965 20.4961 33.7267 20.5518 33.5595C20.6338 33.3185 20.7181 33.0807 20.8187 32.8485C20.9143 32.6299 21.0211 32.4131 21.1383 32.2037C21.1665 32.1534 21.1943 32.1059 21.2221 32.0584C21.3656 31.8099 21.1052 32.2302 21.1994 32.0923C21.2708 31.9882 21.3398 31.8809 21.414 31.7773C21.5546 31.5832 21.7055 31.3967 21.8638 31.2171C21.9483 31.1209 22.0352 31.028 22.1216 30.9379C22.1597 30.8978 22.2006 30.8582 22.2415 30.8185C22.3856 30.6742 22.181 30.855 22.1839 30.8728C22.17 30.7984 22.7053 30.4397 22.7732 30.3928C22.9785 30.2439 23.1903 30.1075 23.4096 29.9782C24.0001 29.6341 24.1056 28.6747 23.7019 28.162C23.2315 27.5635 22.5218 27.5041 21.8932 27.8709C19.8139 29.0817 18.3642 31.2431 17.8938 33.5938C17.7602 34.2627 18.2879 35.0063 18.9659 35.0836C19.6892 35.1654 20.3105 34.7194 20.4545 34.0031Z" fill="#303436"/>
<path d="M24.6365 117.373C24.4697 117.444 24.3028 117.498 24.1326 117.555C23.8472 117.648 24.4154 117.514 24.1214 117.553C24.036 117.565 23.9529 117.581 23.8675 117.593C23.7209 117.61 23.5027 117.572 23.3656 117.619C23.594 117.54 23.5683 117.629 23.3847 117.608C23.2772 117.596 23.1674 117.581 23.0613 117.561C22.9804 117.546 22.9033 117.525 22.8224 117.509C22.5386 117.448 23.1148 117.622 22.8444 117.515C22.6928 117.456 22.5435 117.4 22.3998 117.328C22.3277 117.293 22.2593 117.253 22.1877 117.216C21.9358 117.083 22.4296 117.393 22.2008 117.224C22.0593 117.12 21.9205 117.017 21.7897 116.9C21.7395 116.855 21.6925 116.807 21.6424 116.761C21.4345 116.569 21.8237 116.993 21.6499 116.768C21.5498 116.639 21.4487 116.516 21.3584 116.38C21.3448 116.358 21.2505 116.175 21.2308 116.172C21.299 116.177 21.3587 116.432 21.2392 116.173C21.1581 115.999 21.0983 115.816 21.0386 115.633C20.948 115.355 21.0835 115.926 21.0386 115.633C21.026 115.55 21.0079 115.466 20.9986 115.381C20.9898 115.31 20.9145 114.902 20.9703 114.859C20.9697 114.917 20.9695 114.972 20.966 115.029C20.97 114.969 20.9739 114.909 20.9806 114.849C20.9895 114.758 21.0016 114.665 21.0189 114.575C21.0348 114.477 21.0619 114.38 21.0805 114.282C21.1181 114.138 21.1126 114.154 21.0603 114.336C21.0814 114.276 21.1026 114.216 21.1238 114.156C21.1815 114.012 21.2523 113.876 21.3207 113.737C21.4543 113.461 21.1476 113.955 21.3355 113.716C21.3898 113.647 21.4422 113.572 21.4966 113.502C21.5537 113.434 21.6155 113.371 21.6726 113.302C21.8699 113.077 21.4525 113.472 21.6893 113.288C21.854 113.158 22.0197 113.041 22.1938 112.924C22.4484 112.754 21.9402 113.034 22.2189 112.911C22.3023 112.875 22.3838 112.833 22.4673 112.798C22.6397 112.727 22.8155 112.672 22.9917 112.614C23.2925 112.515 22.7169 112.659 23.0309 112.603C23.1256 112.586 23.218 112.566 23.3123 112.552C23.4098 112.536 23.5097 112.524 23.6086 112.516C23.6759 112.51 24.1354 112.515 23.8019 112.496C23.9817 112.504 24.1598 112.524 24.3383 112.559C24.4444 112.579 24.5496 112.604 24.6548 112.63C24.342 112.554 24.6787 112.642 24.7325 112.666C24.9328 112.744 25.1275 112.839 25.3111 112.949C25.0465 112.788 25.3426 112.986 25.381 113.015C25.4936 113.103 25.5986 113.201 25.7033 113.301C25.5043 113.108 25.6996 113.306 25.7329 113.349C25.7856 113.416 25.8349 113.484 25.881 113.555C26.05 113.811 25.8871 113.553 25.8899 113.554C25.8988 113.552 25.9885 113.763 25.9947 113.779C26.0254 113.856 26.0562 113.933 26.0808 114.012C26.168 114.274 26.0363 114.074 26.0906 114.005C26.0535 114.057 26.1701 114.494 26.1761 114.582C26.1826 114.667 26.1835 114.751 26.1848 114.832C26.1951 115.125 26.2165 114.528 26.181 114.82C26.1577 115.018 26.1381 115.211 26.0951 115.407C26.0911 115.432 26.023 115.641 26.0352 115.654C26.0958 115.456 26.106 115.429 26.0609 115.566C26.0434 115.621 26.0236 115.672 26.0033 115.727C25.9328 115.915 25.8519 116.095 25.7575 116.271C25.745 116.295 25.6559 116.491 25.6297 116.493C25.734 116.328 25.7465 116.304 25.67 116.421C25.6366 116.468 25.606 116.515 25.5703 116.559C25.5406 116.6 25.2139 117.021 25.1848 117.005C25.1928 117.009 25.4122 116.808 25.1792 117.004C25.096 117.074 25.0071 117.144 24.9164 117.207C24.8484 117.254 24.7781 117.298 24.7078 117.341C24.5872 117.411 24.6124 117.398 24.7805 117.301C24.7386 117.329 24.6887 117.353 24.6365 117.373C24.0191 117.652 23.6043 118.388 23.8938 119.056C24.163 119.671 24.9086 120.098 25.5693 119.799C27.382 118.976 28.6356 117.104 28.7495 115.109C28.8105 114.015 28.5891 112.96 27.9812 112.036C27.2956 110.987 26.1585 110.33 24.9648 110.042C22.8351 109.529 20.312 110.495 19.1448 112.367C18.0318 114.152 18.1577 116.605 19.4972 118.239C20.9616 120.026 23.4195 120.716 25.5689 119.802C26.1924 119.539 26.5973 118.775 26.3116 118.119C26.0395 117.486 25.3034 117.09 24.6365 117.373Z" fill="#303436"/>
<path d="M12.8269 122.7C12.7895 122.7 12.7522 122.699 12.7148 122.699C12.8292 122.703 12.9469 122.705 13.0614 122.709C12.8558 122.699 12.653 122.672 12.4548 122.617C12.5647 122.649 12.6769 122.684 12.7868 122.717C12.6306 122.668 12.4827 122.604 12.3408 122.521C12.435 122.579 12.5315 122.641 12.6256 122.699C12.5108 122.626 12.4063 122.543 12.3101 122.443C12.3861 122.525 12.4622 122.606 12.5359 122.685C12.4476 122.59 12.3696 122.485 12.3046 122.37C12.3578 122.468 12.4111 122.567 12.462 122.661C12.3932 122.535 12.3426 122.402 12.305 122.261C12.3307 122.369 12.3588 122.48 12.3846 122.588C12.3431 122.417 12.325 122.244 12.3278 122.065C12.3237 122.18 12.322 122.298 12.3179 122.413C12.3238 122.197 12.3578 121.986 12.4198 121.779C12.3877 121.89 12.3523 122.002 12.3201 122.113C12.3923 121.879 12.494 121.658 12.6228 121.448C12.5644 121.543 12.5027 121.64 12.4444 121.734C12.5866 121.512 12.751 121.313 12.9439 121.133C12.8626 121.209 12.7812 121.286 12.7031 121.36C12.8142 121.259 12.9315 121.174 13.0614 121.1C12.9636 121.153 12.8658 121.207 12.7713 121.258C12.9222 121.178 13.076 121.117 13.2411 121.074C13.1334 121.1 13.0223 121.128 12.9146 121.154C13.0368 121.128 13.16 121.113 13.2838 121.112C13.1694 121.108 13.0517 121.107 12.9372 121.103C13.0629 121.109 13.1811 121.125 13.3018 121.162C13.1919 121.129 13.0796 121.094 12.9697 121.062C13.1035 121.107 13.2261 121.167 13.3465 121.241C13.2524 121.182 13.1559 121.121 13.0617 121.062C13.1976 121.148 13.3195 121.248 13.4331 121.365C13.357 121.283 13.281 121.202 13.2073 121.123C13.3326 121.256 13.4356 121.403 13.5218 121.564C13.4686 121.466 13.4153 121.368 13.3644 121.273C13.4479 121.433 13.5127 121.603 13.5561 121.78C13.5303 121.672 13.5022 121.561 13.4765 121.453C13.528 121.669 13.5533 121.887 13.5493 122.108C13.5534 121.994 13.5551 121.875 13.5592 121.76C13.5524 121.982 13.5179 122.196 13.4578 122.409C13.4899 122.298 13.5254 122.185 13.5575 122.075C13.5024 122.257 13.4257 122.429 13.327 122.595C13.3854 122.501 13.447 122.404 13.5054 122.309C13.4197 122.449 13.319 122.574 13.2028 122.688C13.2841 122.612 13.3655 122.535 13.4436 122.461C13.332 122.565 13.2115 122.652 13.0815 122.726C13.1794 122.673 13.2772 122.619 13.3717 122.568C13.2427 122.637 13.1108 122.688 12.9695 122.726C13.0772 122.7 13.1882 122.671 13.296 122.645C13.1411 122.678 12.9857 122.697 12.8269 122.7C12.521 122.706 12.1556 122.938 11.9662 123.168C11.7619 123.418 11.6294 123.813 11.6781 124.136C11.7292 124.461 11.8714 124.793 12.1433 124.999C12.4358 125.219 12.7406 125.292 13.1067 125.287C14.3036 125.269 15.4143 124.445 15.8487 123.336C16.2934 122.201 16.1938 120.942 15.5433 119.908C15.2317 119.413 14.7319 118.997 14.2035 118.759C13.273 118.338 12.1755 118.525 11.3583 119.116C10.2927 119.891 9.62058 121.297 9.76762 122.618C9.8516 123.365 10.2038 124.054 10.7657 124.549C11.421 125.125 12.2675 125.282 13.11 125.285C13.4145 125.287 13.785 125.041 13.9707 124.816C14.1749 124.566 14.3075 124.172 14.2588 123.849C14.2077 123.523 14.0655 123.191 13.7936 122.985C13.4983 122.765 13.1949 122.701 12.8269 122.7Z" fill="#303436"/>
</g>
<defs>
<clipPath id="clip0_1748_1253">
<rect width="130.167" height="124.466" fill="white" transform="translate(19.7787 0.362305) rotate(9.14354)"/>
</clipPath>
</defs>
</svg>
