<svg width="15" height="15" viewBox="0 0 15 15" fill="none" xmlns="http://www.w3.org/2000/svg">
<path fill-rule="evenodd" clip-rule="evenodd" d="M2.7978 0.661267C2.18369 0.105241 1.23511 0.152325 0.679089 0.766431C0.123063 1.38054 0.170147 2.32912 0.784253 2.88514L5.69133 7.32812L0.784401 11.771C0.170294 12.327 0.12321 13.2756 0.679237 13.8897C1.23526 14.5038 2.18384 14.5509 2.79795 13.9948L7.56533 9.67834L12.3327 13.9948C12.9468 14.5509 13.8954 14.5038 14.4514 13.8897C15.0074 13.2756 14.9604 12.327 14.3463 11.771L9.43919 7.32798L14.3461 2.88514C14.9602 2.32912 15.0073 1.38054 14.4513 0.766431C13.8952 0.152325 12.9467 0.105241 12.3326 0.661267L7.56518 4.97776L2.7978 0.661267Z" fill="#ADBFFF"/>
</svg>
