<svg width="30" height="30" viewBox="0 0 30 30" fill="none" xmlns="http://www.w3.org/2000/svg">
<circle cx="15" cy="15" r="15" fill="#577BFA"/>
<path d="M8.22066 11.4364C8.22087 11.4646 8.22287 11.4926 8.22508 11.5223L8.22648 11.5409C8.30873 12.7113 8.57995 13.8854 9.05537 15.1301C9.5304 16.3735 10.1866 17.5717 11.0616 18.7929C12.2147 20.4023 13.4921 21.6392 14.9667 22.574C15.6693 23.0195 16.2767 23.3585 16.9571 23.5658C18.0781 23.9072 19.1036 23.8624 20.0926 23.4285C20.7257 23.1509 21.2069 22.7836 21.5642 22.3057C21.7899 22.0038 21.8807 21.7102 21.8418 21.4082C21.8083 21.147 21.6974 20.9066 21.5122 20.6936C21.2396 20.3796 21.0065 20.1356 20.7788 19.9257C20.2516 19.44 19.6476 18.9938 18.9834 18.5996C18.6823 18.421 18.3668 18.3927 18.0456 18.5159C17.8458 18.5926 17.6438 18.7012 17.4454 18.8387C17.0773 19.094 16.7846 19.4355 16.4923 19.7927C16.3962 19.9099 16.2809 19.9756 16.1583 19.9827C16.038 19.9897 15.9182 19.939 15.8123 19.8367C15.7569 19.7833 15.7016 19.7301 15.646 19.6767C15.3836 19.4248 15.1124 19.1642 14.8622 18.8925C13.2648 17.1567 12.0714 15.191 11.315 13.0495C11.2179 12.7747 11.311 12.571 11.5844 12.4607C11.6662 12.4276 11.7485 12.3954 11.8305 12.3629C12.0207 12.288 12.2173 12.2105 12.4058 12.1258C12.6807 12.0022 12.9922 11.8623 13.2767 11.6978C13.5766 11.5243 13.7467 11.2557 13.7685 10.9206C13.779 10.7604 13.7712 10.6072 13.7449 10.4656C13.6185 9.7813 13.4428 9.1291 13.2229 8.52718C13.1256 8.26074 12.992 7.91332 12.8207 7.58703C12.6177 7.20029 12.2903 6.97983 11.8472 6.9317C11.794 6.92583 11.7404 6.9231 11.6865 6.9231C11.4957 6.9231 11.2995 6.95929 11.0911 7.03264C10.2082 7.34329 9.48166 7.89239 8.9316 8.6645C8.4321 9.3658 8.19278 10.1862 8.22026 11.1027V11.1041V11.1976C8.22026 11.2772 8.22006 11.3568 8.22066 11.4364Z" fill="#FAFAFB"/>
</svg>
