<svg width="25" height="30" viewBox="0 0 25 30" fill="none" xmlns="http://www.w3.org/2000/svg">
<path d="M0.982893 7.82312C0.983241 7.87195 0.986718 7.92044 0.990542 7.97197L0.992976 8.00419C1.13554 10.0329 1.60564 12.068 2.42972 14.2255C3.2531 16.3807 4.39047 18.4575 5.90719 20.5743C7.90584 23.3639 10.1201 25.5079 12.6761 27.1283C13.8938 27.9004 14.9467 28.488 16.1261 28.8474C18.0691 29.4391 19.8466 29.3615 21.5608 28.6094C22.6582 28.1282 23.4924 27.4915 24.1116 26.6631C24.5028 26.1399 24.6603 25.631 24.5929 25.1074C24.5348 24.6548 24.3425 24.238 24.0216 23.8688C23.5491 23.3246 23.145 22.9018 22.7504 22.5379C21.8366 21.696 20.7896 20.9226 19.6383 20.2393C19.1164 19.9298 18.5695 19.8806 18.0128 20.0942C17.6665 20.2271 17.3163 20.4153 16.9724 20.6537C16.3344 21.0962 15.8271 21.6882 15.3204 22.3074C15.1539 22.5105 14.954 22.6244 14.7415 22.6366C14.5329 22.6488 14.3253 22.561 14.1417 22.3836C14.0457 22.2911 13.9498 22.1989 13.8535 22.1063C13.3986 21.6696 12.9285 21.2179 12.4949 20.7469C9.72611 17.7383 7.65757 14.331 6.34635 10.6191C6.17806 10.1427 6.3394 9.78975 6.81333 9.59851C6.95519 9.54121 7.09776 9.48526 7.23997 9.42898C7.5696 9.29911 7.91036 9.16484 8.23721 9.01802C8.71357 8.80372 9.25357 8.56129 9.74663 8.27612C10.2665 7.97537 10.5613 7.50982 10.5992 6.92898C10.6173 6.65128 10.6037 6.38579 10.5582 6.1403C10.3391 4.95421 10.0345 3.82374 9.65344 2.78041C9.4848 2.31859 9.25322 1.71639 8.95628 1.15082C8.60439 0.480468 8.03693 0.0983315 7.26883 0.0149193C7.17669 0.00474704 7.08385 0 6.99031 0C6.65964 0 6.31958 0.0627287 5.9583 0.189882C4.42802 0.728332 3.16861 1.68011 2.21518 3.01844C1.34938 4.23402 0.934561 5.6561 0.982197 7.24466V7.24703V7.40911C0.982197 7.54711 0.98185 7.68512 0.982893 7.82312Z" fill="#FAFAFB"/>
</svg>
