<svg width="318" height="335" viewBox="0 0 318 335" fill="none" xmlns="http://www.w3.org/2000/svg">
<path d="M16.2818 227.978C15.9764 227.796 15.6053 227.75 15.2632 227.851C14.9212 227.951 14.6356 228.193 14.4783 228.513C12.1724 233.216 9.75655 237.824 7.29641 242.208C5.48681 245.434 3.04806 249.647 0.232112 253.641C-0.0229116 254.004 -0.0702513 254.425 0.102309 254.798C0.294722 255.212 0.734523 255.507 1.22166 255.552C1.26289 255.555 1.30413 255.558 1.34536 255.558C1.77141 255.558 2.15319 255.358 2.40668 254.999C7.10705 248.332 10.9828 241.173 15.3564 232.475C15.8267 231.539 16.3032 230.583 16.7705 229.636C17.0637 229.044 16.8483 228.316 16.2818 227.978Z" fill="#303436"/>
<path d="M72.7942 14.7642C72.4919 14.5693 72.1177 14.5099 71.7696 14.6013L27.817 26.1122C22.967 27.3832 19.8731 29.5706 18.0833 33.0002C15.7102 37.5455 16.9166 41.9781 18.0833 46.2646C18.2055 46.7137 18.3277 47.1643 18.4468 47.6148L47.2812 157.014C47.3851 157.41 47.663 157.724 48.0448 157.877C48.2005 157.94 48.3639 157.972 48.5258 157.972C48.7579 157.972 48.9885 157.908 49.1947 157.781C49.6818 157.485 49.9109 156.915 49.7658 156.364L19.7753 42.5748C18.9202 39.328 19.0988 36.6063 20.3236 34.2529C21.675 31.6561 24.0542 29.7792 27.0244 28.9678C27.4596 28.8491 27.8979 28.7365 28.3347 28.6238C28.5561 28.5675 28.776 28.5097 28.9974 28.4518L72.3911 17.087C73.0447 16.915 73.4738 16.2772 73.3654 15.6333C73.3043 15.2756 73.0966 14.959 72.7942 14.7642Z" fill="#303436"/>
<path d="M317.481 301.171C297.803 281.984 292.078 276.777 289.421 273.299C287.605 270.926 283.051 263.498 277.285 254.095L277.116 253.819C275.114 250.554 272.844 246.854 270.513 243.08C270.308 242.75 269.987 242.518 269.608 242.429C269.23 242.339 268.839 242.401 268.507 242.605C267.825 243.025 267.611 243.922 268.031 244.604C270.39 248.425 272.686 252.166 274.71 255.468L274.802 255.617C280.61 265.088 285.197 272.568 287.103 275.06C289.884 278.7 294.598 283.746 314.658 303.305L317.481 301.171Z" fill="#303436"/>
<path d="M258.024 223.197C249.297 209.618 242.416 199.728 236.987 192.96C231.501 186.121 227.5 182.498 224.757 181.886C214.27 179.542 209.274 181.58 207.614 182.565L207.611 182.567C203.876 182.098 199.804 182.3 195.509 183.168C191.346 183.756 188.107 184.734 185.879 186.077C185.485 186.018 184.906 185.937 184.176 185.85C180.902 185.406 177.701 185.244 174.675 185.369C172.938 185.406 171.3 185.514 169.756 185.692L168.256 179.91C168.262 179.906 168.268 179.904 168.276 179.9C172.563 177.037 176.139 173.555 178.906 169.553C180.757 166.876 183.478 161.664 180.9 156.837C179.241 153.727 175.608 152.034 170.394 151.943C167.426 151.891 164.293 152.124 160.685 152.683L156.905 137.006C161.372 133.841 166.03 129.853 168.513 124.694C170.313 120.952 170.287 117.113 168.441 113.886C166.092 109.782 162.004 107.954 157.506 108.996C154.943 109.588 152.561 110.808 150.369 112.299L149.36 108.221C150.831 107.463 152.129 106.638 153.187 105.925C155.676 104.251 158.848 101.934 161.314 98.8607C163.993 95.521 165.213 92.2741 164.939 89.2084C164.787 87.502 164.17 85.7986 163.156 84.2825C162.94 83.9613 162.595 83.7589 162.207 83.7269C161.813 83.6934 161.433 83.8396 161.161 84.1273C160.749 84.5641 160.694 85.2126 161.027 85.7058C161.697 86.7013 162.131 87.7577 162.316 88.8446C162.864 92.0884 160.972 95.2363 159.288 97.308C157.011 100.107 154.112 102.22 151.842 103.748C149.357 105.42 146.016 107.411 142.18 107.977C138.764 108.3 135.761 107.049 134.143 104.631C132.403 102.031 133.161 99.0068 133.767 97.4359C134.64 95.1724 136.016 92.9119 137.783 90.7854C137.896 90.7245 138 90.6499 138.092 90.5601C138.232 90.4216 138.33 90.2572 138.389 90.0806C140.274 87.9495 142.548 85.9691 145.099 84.2764C147.097 82.9506 149.583 81.3005 152.184 81.1681C153.68 81.092 155.256 81.4177 156.742 82.1119C157.223 82.3356 157.78 82.2458 158.162 81.882L158.174 81.8698C158.478 81.5806 158.619 81.1605 158.552 80.7464C158.483 80.3324 158.216 79.9808 157.835 79.8027C156.473 79.1679 155.047 78.7782 153.593 78.6443C150.25 78.3353 147.439 79.8346 145.066 81.2655C144.189 81.7937 143.34 82.3569 142.519 82.946L138.748 68.5231C139.043 68.0969 139.345 67.6661 139.649 67.2308C143.782 61.3262 148.465 54.633 146.164 47.0205C145.164 43.7082 142.566 41.09 139.219 40.0153C136.566 39.1644 133.817 39.3805 131.44 40.5846C131.235 39.8067 131.03 39.0289 130.826 38.2541L126.394 21.4398C126.174 20.6041 125.971 19.7639 125.757 18.8749C124.911 15.3586 124.036 11.7236 122.073 8.71876C117.722 2.05455 109.538 -1.08728 101.707 0.890062C100.391 1.2219 99.0578 1.57505 97.769 1.91755C97.1139 2.09108 96.4587 2.26461 95.8036 2.43662L32.6006 18.9876C31.7744 19.2037 30.9498 19.4199 30.1237 19.6345C28.4607 20.0683 26.7992 20.5021 25.1377 20.9405C18.7178 22.6378 13.7227 27.2805 11.7772 33.3602C10.1219 38.5327 11.3634 43.1708 12.6782 48.083C12.7821 48.4727 12.8874 48.8639 12.9913 49.2566L20.4358 77.4996C18.3315 76.4371 16.6914 77.0536 15.5644 77.9654C13.2555 79.8346 12.5606 83.115 11.9498 86.0087C11.8261 86.5963 11.7085 87.1504 11.5818 87.674C11.3787 88.5097 11.1802 89.3484 10.9801 90.1887C9.29114 97.2852 7.54416 104.624 3.76004 110.987C3.64245 111.183 3.58595 111.379 3.57526 111.567C3.50349 111.643 3.43782 111.731 3.37979 111.834C0.495129 117.016 2.98122 122.724 5.46885 127.117C8.9674 133.298 11.4474 138.473 13.2738 143.406C15.4041 149.162 16.8869 154.962 17.6825 160.647C18.0658 163.39 18.33 166.197 18.585 168.911C18.9103 172.371 19.2462 175.948 19.8357 179.448C20.984 186.275 22.8639 193.088 25.4233 199.702C25.5134 199.934 25.6554 200.124 25.8356 200.267C25.6126 202.275 24.8766 204.292 24.1634 206.245C24.0794 206.476 23.9955 206.704 23.913 206.933C22.9509 209.593 19.8891 216.754 18.8843 219.107C18.7453 219.431 18.7469 219.803 18.8889 220.127C19.0294 220.45 19.3012 220.703 19.6326 220.823C19.7776 220.875 19.9258 220.9 20.0708 220.9C20.5763 220.9 21.0528 220.604 21.2589 220.113L21.6941 219.086C22.9387 216.15 25.2553 210.683 26.0433 208.566L26.2189 208.097C27.1581 205.578 28.1293 202.975 28.4103 200.281C28.4576 199.83 28.2744 199.44 27.9445 199.21C27.9308 199.119 27.9079 199.028 27.8712 198.936C25.6875 193.294 24 187.5 22.8547 181.716C21.966 177.23 21.5155 172.611 21.0787 168.147C20.9245 166.571 20.7657 164.943 20.5885 163.338C19.3714 152.272 15.9447 141.3 10.4029 130.723C9.90809 129.78 9.33696 128.807 8.73223 127.776C6.01707 123.149 2.93999 117.903 5.60781 113.11C5.71471 112.918 5.7651 112.728 5.77427 112.544C5.84757 112.469 5.91476 112.384 5.97431 112.285C9.58893 106.205 11.3909 99.4574 13.0646 92.5024C13.286 91.5815 13.4983 90.6347 13.7029 89.7198C14.2359 87.333 14.7871 84.864 15.5843 82.5533C16.0134 81.3081 16.7876 79.7707 18.0352 79.5195C19.3821 79.2486 20.6114 80.5942 21.5307 81.6491L27.4116 103.965C26.9702 109.461 25.8967 114.917 24.8995 119.537C24.7208 120.362 25.2996 120.952 25.9349 121.088C26.0341 121.109 26.1319 121.12 26.2281 121.12C26.7961 121.12 27.2634 120.752 27.3886 120.167C28.0117 117.279 28.6638 114.066 29.1845 110.69L59.0971 224.182C59.3475 225.135 59.5888 226.115 59.8209 227.064C60.3477 229.213 60.8944 231.436 61.6122 233.559C62.9499 237.509 65.6696 240.948 69.2705 243.24C72.2926 245.164 75.7789 246.181 79.2699 246.181C79.951 246.181 80.632 246.143 81.3085 246.064C83.1288 245.854 84.9323 245.358 86.6778 244.877C87.1756 244.74 87.6734 244.603 88.1667 244.473L110.146 238.718L106.776 241.491C106.623 241.618 106.51 241.767 106.435 241.927C106.221 242.027 106.029 242.199 105.885 242.458C102.501 248.565 99.1037 254.797 95.8174 260.823C94.0719 264.023 92.2684 267.332 90.4878 270.584L90.3596 270.817C89.2937 272.762 88.1926 274.773 87.0992 276.746C86.6976 277.469 87.0717 278.184 87.6261 278.49C87.8246 278.6 88.0506 278.66 88.2782 278.66C88.6767 278.66 89.0768 278.47 89.3273 278.018C92.7098 271.913 96.1075 265.682 99.3923 259.656C101.138 256.455 102.943 253.144 104.723 249.892L104.868 249.627C105.928 247.693 107.025 245.693 108.11 243.73C108.141 243.674 108.167 243.619 108.188 243.563C108.303 243.514 108.416 243.447 108.524 243.359L116.042 237.171L146.654 229.155C149.233 232.273 153.37 237.389 157.535 243.024C162.316 249.69 168.467 259.021 170.628 265.65C170.965 267.223 171.219 268.73 171.384 270.13C171.359 270.462 171.309 270.759 171.236 271.019C171.219 271.08 171.199 271.141 171.178 271.202L171.139 271.311C169.843 274.761 163.67 274.864 158.723 274.343C152.888 273.73 146.274 271.995 142.384 270.696L142.265 270.663C141.314 270.433 132.693 268.398 123.071 267.947C117.464 267.684 112.634 268.019 108.714 268.941C103.78 270.103 100.257 272.209 98.2439 275.202L98.166 275.33C97.2116 277.125 94.2323 283.219 95.9411 286.282C96.1533 286.675 96.5061 286.984 96.9352 287.154L97.1169 287.259L97.3185 287.272C97.349 287.279 97.3796 287.287 97.4101 287.294C97.6682 287.358 98.0408 287.453 98.5188 287.578C101.188 288.263 108.139 290.074 115.019 292.111L115.111 292.137C120.935 293.864 125.38 295.356 128.324 296.569C134.471 299.105 137.701 300.101 140.822 301.064C144.799 302.29 148.554 303.448 158.084 307.669C160.639 308.8 163.35 310.033 166.219 311.336L166.263 311.356C171.037 313.525 175.974 315.769 181.084 317.961C187.571 320.745 193.108 322.908 198.012 324.573C203.43 326.415 208.078 327.66 212.226 328.382L212.693 328.462H212.694C214.342 328.735 215.921 328.922 217.39 329.018C220.304 329.21 223.92 331.059 227.845 334.367L227.927 334.437C228.003 334.501 228.065 334.553 228.106 334.588L228.452 334.886L230.355 332.687L230.009 332.388C229.958 332.346 229.879 332.277 229.778 332.193L229.728 332.151C225.259 328.385 221.173 326.356 217.583 326.12C216.188 326.028 214.678 325.849 213.095 325.584L212.795 325.43L212.559 325.493C208.605 324.794 204.153 323.594 198.951 321.826C194.116 320.183 188.649 318.046 182.235 315.294C177.138 313.108 172.202 310.864 167.425 308.694L167.4 308.681C164.532 307.378 161.823 306.148 159.266 305.014C149.581 300.725 145.745 299.542 141.682 298.288C138.625 297.345 135.462 296.37 129.436 293.884C126.394 292.63 121.842 291.101 115.897 289.339L115.821 289.317C108.927 287.278 101.933 285.454 99.2472 284.764C98.9036 284.676 98.6119 284.6 98.3737 284.541C98.0652 283.037 99.2945 279.426 100.701 276.756C104.575 271.101 115.15 270.442 123.343 270.885C132.501 271.381 140.949 273.334 141.52 273.468C142.339 273.736 148.894 275.844 155.788 276.886C163.302 278.02 168.597 277.5 171.553 275.344C171.431 276.972 171.152 277.721 171.152 277.721L170.756 278.642L173.357 279.778L173.764 278.855C173.957 278.42 174.882 275.969 174.281 270.337C174.384 268.743 174.047 266.767 173.277 264.463C172.184 259.927 168.198 252.868 161.433 243.49C155.861 235.558 150.499 229.091 150.444 229.024L150.426 229.003C147.975 226.189 90.3886 160.044 88.3163 158.17C88.243 158.105 88.1728 158.036 88.1025 157.968L88.0124 157.881C87.0794 156.826 86.3784 156.039 85.9295 155.538C83.9565 152.888 82.8173 149.818 82.8051 147.112C82.8051 146.962 82.8066 146.81 82.8127 146.672C82.8448 146.18 82.9043 145.696 82.9853 145.244C83.0616 144.866 83.1639 144.498 83.2861 144.149C84.3184 142.167 85.566 140.717 86.9939 139.838C88.747 138.96 90.9475 138.829 93.5328 139.447C95.5135 139.922 97.4682 140.867 99.1846 142.183L132.02 171.216L157.484 193.775L157.512 193.75L169.169 204.016L171.055 201.888L159.836 192.009C162.067 190.777 166.353 188.943 172.805 188.362C178.776 188.031 184.277 188.773 185.621 188.974L199.81 201.165L201.67 199.016L188.872 188.019C190.347 187.461 192.436 186.763 194.924 186.193C200.249 185.331 205.998 185.436 207.473 185.48L220.333 196.822L222.22 194.696L210.57 184.419C212.702 183.724 216.897 183.101 224.117 184.715C225.438 185.01 228.837 187.047 236.754 197.373C241.81 203.969 247.966 212.927 255.569 224.759C256.847 226.747 258.196 228.865 259.578 231.052C260.005 231.729 260.906 231.933 261.586 231.507C261.915 231.3 262.145 230.979 262.23 230.6C262.317 230.221 262.25 229.833 262.042 229.504C260.677 227.344 259.324 225.22 258.024 223.197ZM79.954 148.294C80.1037 151.535 81.2169 154.401 83.2647 156.813C84.1672 158.099 85.2102 159.28 86.3647 160.324C86.3891 160.346 86.4243 160.381 86.4686 160.426C95.512 170.657 121.178 199.944 135.673 216.494C137.379 218.451 139.045 220.363 140.657 222.213L84.9827 236.794L84.4131 236.944C81.6674 237.671 79.0744 238.357 76.2554 237.514C72.6866 236.447 70.1287 233.617 69.0552 229.543L59.9446 194.974C59.8408 194.581 59.5643 194.268 59.1872 194.114C58.81 193.96 58.3915 193.992 58.0418 194.202C57.5547 194.493 57.3165 195.078 57.46 195.626L63.8219 219.763C64.141 220.972 64.4571 222.182 64.7748 223.391C65.3978 225.767 66.0407 228.225 66.6882 230.638C68.142 236.054 72.5736 239.905 77.9795 240.449C78.346 240.485 78.711 240.502 79.0744 240.502C81.1146 240.502 83.0845 239.966 84.998 239.445C85.3584 239.348 85.7188 239.249 86.0791 239.155L142.537 224.368C143.316 225.261 144.079 226.138 144.825 226.994L87.0427 242.124C86.635 242.231 86.2257 242.342 85.8165 242.453C83.7534 243.013 81.6185 243.595 79.4806 243.627C72.1628 243.732 65.6773 238.806 63.7196 231.635C63.5485 231.008 63.3821 230.367 63.2202 229.747C63.1393 229.435 63.0568 229.122 62.9743 228.81L29.9893 103.669C29.9771 103.522 29.9404 103.385 29.8808 103.26L14.2679 44.0172C13.3425 40.5054 13.2829 37.4291 14.0847 34.6099C15.6499 29.1117 20.135 24.8983 26.083 23.3411L83.1823 8.38844C85.3126 7.83132 87.4398 7.26658 89.5685 6.70336C93.7512 5.5952 98.0759 4.44898 102.34 3.37278C110.097 1.41218 118.232 5.39427 121.26 12.6354C122.321 15.1729 122.981 17.9966 123.618 20.7274C123.881 21.8493 124.151 23.0092 124.444 24.1189C124.966 26.1023 125.49 28.0858 126.014 30.0692C127.094 34.1624 128.204 38.3667 129.302 42.5498C129.296 42.6426 129.296 42.7355 129.308 42.8314C129.337 43.0506 129.418 43.2561 129.532 43.4311C129.729 44.1831 129.926 44.9351 130.122 45.6855L140.308 84.6479C139.419 85.3937 138.574 86.1731 137.779 86.9814L124.734 37.4854C124.104 35.0925 123.474 32.6996 122.847 30.3051C121.608 25.5863 120.327 20.7061 119.047 15.9127C118.217 12.7998 116.34 10.0857 113.761 8.26971C111.116 6.40805 107.903 5.62868 104.711 6.07621C103.231 6.28323 101.761 6.69727 100.338 7.09761C99.826 7.2407 99.2976 7.38988 98.7845 7.52535L83.2647 11.5896C82.8906 11.6871 82.5836 11.9458 82.4233 12.2959C82.263 12.6476 82.2691 13.0464 82.4401 13.3935C82.7089 13.9369 83.3304 14.22 83.9183 14.0663L99.3892 10.0142C99.9145 9.87716 100.448 9.72798 100.964 9.58337C102.141 9.25458 103.358 8.91512 104.56 8.68679C108.992 7.84349 113.554 10.0659 115.654 14.0876C116.132 15.0024 116.41 15.9842 116.699 17.0802L135.726 89.2677C133.915 91.481 132.464 93.8465 131.473 96.2653C129.961 99.9491 130.224 103.607 132.194 106.304C134.188 109.035 137.43 110.583 141.039 110.583C141.143 110.583 141.248 110.582 141.354 110.579L143.282 118.04C142.473 118.773 141.674 119.508 140.903 120.232C140.79 120.339 140.701 120.458 140.636 120.586C140.457 120.633 140.28 120.721 140.117 120.86C139.48 121.4 138.805 121.942 138.09 122.514C134.121 125.7 129.621 129.311 129.216 134.587C128.984 137.601 130.516 141.042 133.213 143.569C135.377 145.597 137.925 146.705 140.353 146.705C140.709 146.705 141.063 146.681 141.412 146.634C142.992 146.414 144.267 145.649 145.439 144.883C146.874 143.944 148.319 142.924 149.618 141.986L152.833 154.181C148.873 154.946 144.316 156.744 142.105 159.791C140.902 161.449 140.48 163.332 140.853 165.387C141.523 169.091 143.834 171.724 147.718 173.213C151.266 174.572 155.467 174.736 158.318 174.743H158.321C158.408 174.743 158.491 174.732 158.571 174.718L161.815 187.549C160.173 188.194 158.733 188.98 157.503 189.907L102.019 140.75C101.165 139.994 100.243 139.313 99.2854 138.732C97.149 137.374 92.9129 135.24 88.55 136.19C87.8063 136.351 87.0748 136.605 86.3739 136.943C85.2912 137.382 84.3077 138.004 83.4526 138.793C81.11 140.953 79.8792 143.834 79.8944 147.127C79.8975 147.5 79.9174 147.892 79.954 148.294ZM134.871 53.6908C133.966 50.2262 133.04 46.681 132.11 43.1389C134.181 41.9454 136.676 41.7141 138.976 42.5421C141.69 43.5194 143.586 46.0584 144.049 49.3342C144.893 55.3119 141.363 60.3748 137.898 65.2671L134.871 53.6908ZM161.114 111.347C163.121 111.626 164.781 112.815 166.05 114.883C169.027 119.738 166.674 125.496 159.057 132.002C156.275 134.378 153.303 136.385 150.763 138.035C150.559 138.167 150.405 138.342 150.304 138.542C150.096 138.56 149.888 138.636 149.698 138.774C147.793 140.16 146.068 141.405 144.25 142.603C142.905 143.489 141.847 144.119 140.483 144.152C137.021 144.236 133.802 141.114 132.408 137.989C129.891 132.343 135.488 127.863 139.985 124.262C140.66 123.721 141.299 123.21 141.877 122.72C142 122.616 142.096 122.497 142.167 122.37C142.36 122.315 142.54 122.211 142.699 122.062C143.646 121.172 144.632 120.266 145.632 119.369C145.752 119.263 145.843 119.143 145.912 119.015C146.132 118.975 146.352 118.872 146.553 118.687C150.585 114.976 156.383 110.691 161.114 111.347ZM161.241 174.794C162.253 174.797 163.266 174.8 164.278 174.802L167.199 186.065C166.169 186.252 165.187 186.474 164.258 186.734L161.241 174.794ZM166.934 174.81C167.479 174.811 168.024 174.813 168.571 174.814H168.574C169.035 174.814 169.426 174.596 169.647 174.216C169.887 173.805 169.887 173.274 169.65 172.86C169.429 172.476 169.037 172.255 168.572 172.254C165.468 172.246 162.363 172.237 159.259 172.228H159.254C159.111 172.228 158.973 172.252 158.846 172.292C158.688 172.222 158.51 172.184 158.321 172.182C151.709 172.169 144.765 171.316 143.414 165.11C143.108 163.71 143.356 162.423 144.151 161.286C146.068 158.545 150.883 156.989 154.749 156.447C154.9 156.426 155.039 156.38 155.163 156.316C160.033 155.266 164.486 154.677 168.763 154.516C171.993 154.395 176.509 154.598 178.462 157.741C180.725 161.385 178.474 165.847 176.188 168.949C173.847 172.124 170.952 174.924 167.574 177.276L166.934 174.81ZM155.352 153.66L151.845 140.348C151.932 140.315 152.017 140.275 152.1 140.222C152.909 139.697 153.761 139.143 154.639 138.557L158.147 153.109C157.246 153.273 156.316 153.458 155.352 153.66ZM145.463 116.215L143.921 110.244C144.982 110.009 146.007 109.682 146.982 109.297L148.132 113.944C147.201 114.682 146.312 115.451 145.463 116.215Z" fill="#303436"/>
</svg>
