<svg width="341" height="347" viewBox="0 0 341 347" fill="none" xmlns="http://www.w3.org/2000/svg">
<path d="M199.983 69.68L201.262 68.8944L200.544 67.7275L199.317 68.3368L199.983 69.68ZM195.472 71.919L194.806 70.5758L194.805 70.5762L195.472 71.919ZM171.281 80.8928L171.635 82.3499L171.635 82.3499L171.281 80.8928ZM149.235 83.7694L149.202 82.27L149.201 82.2701L149.235 83.7694ZM107.373 78.8131L107.077 80.2833L107.077 80.2834L107.373 78.8131ZM102.399 77.8119L102.696 76.3416L101.339 76.0686L100.957 77.3985L102.399 77.8119ZM87.4856 174.377C87.5334 175.204 88.2427 175.835 89.0699 175.787C89.8971 175.739 90.5289 175.029 90.4811 174.202L87.4856 174.377ZM103.691 234.146L105.042 233.492L105.041 233.492L103.691 234.146ZM139.138 276.587L138.386 277.885L138.389 277.886L139.138 276.587ZM140.328 277.272L139.579 278.571L139.901 278.757L140.273 278.77L140.328 277.272ZM141.7 277.321L141.645 278.82L141.649 278.82L141.7 277.321ZM194.288 260.118L193.491 258.848L193.491 258.848L194.288 260.118ZM238.543 217.164L239.766 218.031L239.766 218.031L238.543 217.164ZM278.402 128.266L279.844 128.68L280.226 127.35L278.931 126.863L278.402 128.266ZM273.653 126.48L273.124 127.884L273.124 127.884L273.653 126.48ZM235.531 108.512L236.355 107.258L236.355 107.258L235.531 108.512ZM218.369 94.3954L217.294 95.4431L217.294 95.4432L218.369 94.3954ZM202.619 73.9676L203.897 73.1824L203.897 73.182L202.619 73.9676ZM90.2252 187.619L91.7059 187.377C91.5741 186.569 90.8183 186.016 90.0079 186.135C89.1974 186.254 88.6319 187.001 88.7374 187.813L90.2252 187.619ZM90.499 164.482C90.4817 163.654 89.7962 162.997 88.9678 163.015C88.1394 163.032 87.4818 163.718 87.4991 164.546L90.499 164.482ZM87.3973 151.828C87.3586 152.656 87.9981 153.358 88.8258 153.396C89.6535 153.434 90.3558 152.794 90.3946 151.967L87.3973 151.828ZM199.317 68.3368L194.806 70.5758L196.139 73.2622L200.65 71.0232L199.317 68.3368ZM194.805 70.5762C186.703 74.6037 178.89 77.4965 170.926 79.4357L171.635 82.3499C179.835 80.3533 187.857 77.3793 196.14 73.2617L194.805 70.5762ZM170.927 79.4356C163.798 81.1708 156.694 82.1 149.202 82.27L149.268 85.2687C156.973 85.0938 164.292 84.1372 171.635 82.3499L170.927 79.4356ZM149.201 82.2701C135.125 82.5961 121.591 80.1398 107.67 77.3427L107.077 80.2834C120.998 83.0805 134.825 85.6033 149.269 85.2687L149.201 82.2701ZM107.67 77.3428L102.696 76.3416L102.102 79.2821L107.077 80.2833L107.67 77.3428ZM100.957 77.3985L99.5584 82.2654L102.442 83.0921L103.841 78.2252L100.957 77.3985ZM102.341 234.801C117.128 265.322 137.375 277.3 138.386 277.885L139.891 275.289C139.212 274.896 119.487 263.309 105.042 233.492L102.341 234.801ZM138.389 277.886L139.579 278.571L141.077 275.972L139.888 275.287L138.389 277.886ZM140.273 278.77L141.645 278.82L141.755 275.822L140.383 275.773L140.273 278.77ZM141.649 278.82C142.816 278.859 166.342 279.43 195.085 261.388L193.491 258.848C165.411 276.474 142.536 275.849 141.752 275.822L141.649 278.82ZM195.085 261.388C211.746 250.931 226.774 236.333 239.766 218.031L237.319 216.296C224.522 234.323 209.772 248.629 193.491 258.848L195.085 261.388ZM239.766 218.031C255.839 195.389 268.843 166.956 278.445 133.547L275.561 132.72C266.03 165.884 253.153 193.991 237.319 216.296L239.766 218.031ZM278.445 133.547L279.844 128.68L276.96 127.853L275.561 132.72L278.445 133.547ZM278.931 126.863L274.182 125.076L273.124 127.884L277.873 129.67L278.931 126.863ZM274.182 125.076C260.891 120.077 248.117 114.987 236.355 107.258L234.706 109.765C246.775 117.696 259.831 122.884 273.124 127.884L274.182 125.076ZM236.355 107.258C230.094 103.146 224.565 98.595 219.443 93.3477L217.294 95.4432C222.571 100.848 228.268 105.536 234.706 109.765L236.355 107.258ZM219.443 93.3477C213.714 87.4796 208.631 80.8898 203.897 73.1824L201.34 74.7528C206.179 82.6315 211.397 89.401 217.294 95.4431L219.443 93.3477ZM203.897 73.182L201.262 68.8944L198.705 70.4657L201.34 74.7533L203.897 73.182ZM90.5755 199.083C93.1095 211.909 97.04 223.861 102.341 234.801L105.041 233.492C99.861 222.801 96.0076 211.095 93.5191 198.5L90.5755 199.083ZM88.7374 187.813C89.2344 191.639 89.8473 195.397 90.5755 199.083L93.5191 198.5C92.804 194.881 92.2017 191.188 91.7129 187.425L88.7374 187.813ZM93.528 198.549L91.7059 187.377L88.7444 187.861L90.5666 199.034L93.528 198.549ZM87.4991 164.546C87.5245 165.764 87.4861 167.552 87.4575 169.399C87.4295 171.209 87.4108 173.084 87.4856 174.377L90.4811 174.202C90.4139 173.04 90.4292 171.281 90.4577 169.444C90.4855 167.643 90.5259 165.771 90.499 164.482L87.4991 164.546ZM99.5584 82.2654C92.4835 106.883 88.4107 130.186 87.3973 151.828L90.3946 151.967C91.3953 130.595 95.4205 107.525 102.442 83.0921L99.5584 82.2654Z" fill="#303436"/>
<path d="M169.924 70.1229C162.693 71.9016 155.488 72.8588 147.898 73.0434C133.652 73.3964 119.99 70.9181 106.088 68.1315" stroke="#303436" stroke-width="3" stroke-miterlimit="10" stroke-linecap="round"/>
<path d="M150.291 62.6831C140.004 63.1702 130.057 62.0489 120.111 60.3746" stroke="#303436" stroke-width="3" stroke-miterlimit="10" stroke-linecap="round"/>
<mask id="path-4-inside-1_2401_1346" fill="white">
<path fill-rule="evenodd" clip-rule="evenodd" d="M181.747 124.438C170.194 121.126 158.144 127.795 154.829 139.33C154.6 140.126 153.769 140.586 152.973 140.358C152.176 140.13 151.716 139.299 151.945 138.503C155.718 125.373 169.433 117.787 182.576 121.555C183.372 121.783 183.832 122.613 183.603 123.41C183.375 124.206 182.544 124.666 181.747 124.438ZM181.64 164.191C187.39 162.875 192.268 158.559 194.011 152.495C196.563 143.616 191.424 134.352 182.534 131.803C173.644 129.255 164.368 134.387 161.816 143.266C160.074 149.33 161.917 155.573 166.093 159.734L141.336 190.567L186.256 203.444L181.64 164.191Z"/>
</mask>
<path d="M154.829 139.33L151.946 138.501L151.946 138.501L154.829 139.33ZM181.747 124.438L182.574 121.554L182.574 121.554L181.747 124.438ZM152.973 140.358L152.146 143.242L152.146 143.242L152.973 140.358ZM151.945 138.503L149.062 137.675L149.062 137.675L151.945 138.503ZM182.576 121.555L183.403 118.671L183.403 118.671L182.576 121.555ZM183.603 123.41L186.487 124.238L186.487 124.238L183.603 123.41ZM181.64 164.191L180.971 161.266L178.346 161.867L178.661 164.541L181.64 164.191ZM194.011 152.495L191.128 151.666L191.128 151.666L194.011 152.495ZM182.534 131.803L181.707 134.687L181.707 134.687L182.534 131.803ZM161.816 143.266L164.7 144.094L164.7 144.094L161.816 143.266ZM166.093 159.734L168.433 161.612L170.12 159.511L168.211 157.609L166.093 159.734ZM141.336 190.567L138.997 188.689L136.171 192.207L140.509 193.451L141.336 190.567ZM186.256 203.444L185.429 206.328L189.762 207.57L189.235 203.094L186.256 203.444ZM157.712 140.159C160.569 130.218 170.957 124.466 180.921 127.322L182.574 121.554C169.432 117.787 155.719 125.372 151.946 138.501L157.712 140.159ZM152.146 143.242C154.534 143.927 157.026 142.546 157.712 140.159L151.946 138.501C152.174 137.706 153.004 137.246 153.799 137.474L152.146 143.242ZM149.062 137.675C148.375 140.064 149.756 142.557 152.146 143.242L153.799 137.474C154.596 137.703 155.057 138.535 154.828 139.332L149.062 137.675ZM183.403 118.671C168.671 114.448 153.293 122.95 149.062 137.675L154.828 139.332C158.143 127.797 170.196 121.126 181.749 124.438L183.403 118.671ZM186.487 124.238C187.173 121.849 185.792 119.356 183.403 118.671L181.749 124.438C180.952 124.21 180.491 123.378 180.72 122.581L186.487 124.238ZM180.921 127.322C183.309 128.006 185.801 126.626 186.487 124.238L180.72 122.581C180.949 121.786 181.778 121.326 182.574 121.554L180.921 127.322ZM182.309 167.115C189.079 165.566 194.838 160.48 196.894 153.324L191.128 151.666C189.699 156.637 185.701 160.184 180.971 161.266L182.309 167.115ZM196.894 153.324C199.905 142.848 193.842 131.924 183.361 128.919L181.707 134.687C189.007 136.78 193.221 144.383 191.128 151.666L196.894 153.324ZM183.361 128.919C172.881 125.915 161.943 131.963 158.933 142.437L164.7 144.094C166.793 136.81 174.406 132.594 181.707 134.687L183.361 128.919ZM158.933 142.437C156.876 149.594 159.057 156.958 163.976 161.859L168.211 157.609C164.777 154.187 163.271 149.065 164.7 144.094L158.933 142.437ZM143.675 192.445L168.433 161.612L163.754 157.856L138.997 188.689L143.675 192.445ZM187.083 200.56L142.163 187.683L140.509 193.451L185.429 206.328L187.083 200.56ZM178.661 164.541L183.276 203.794L189.235 203.094L184.62 163.84L178.661 164.541Z" fill="#303436" mask="url(#path-4-inside-1_2401_1346)"/>
<path d="M189.566 178.105L192.29 203.38" stroke="#303436" stroke-width="3" stroke-linecap="round"/>
<path d="M210.13 109.622C217.569 116.742 237.056 132.398 255.489 138.062" stroke="#303436" stroke-width="3" stroke-linecap="round"/>
<path d="M287.346 142.843C284.728 152.414 277.913 174.381 271.588 185.678" stroke="#303436" stroke-width="3" stroke-linecap="round"/>
<path d="M223.265 227.585C215.521 237.463 200.088 253.106 183.526 261.109" stroke="#303436" stroke-width="3" stroke-linecap="round" stroke-linejoin="round"/>
<path d="M229.769 218.291C233.676 213.029 237.217 207.531 239.447 203.263" stroke="#303436" stroke-width="3" stroke-linecap="round" stroke-linejoin="round"/>
</svg>
