<svg width="100" height="101" viewBox="0 0 100 101" fill="none" xmlns="http://www.w3.org/2000/svg">
<path d="M52.2716 67.9878C33.5464 67.9878 22.8659 54.7547 22.4209 32.7346H31.8006C32.1087 48.8968 39.0236 55.7427 44.5008 57.1543V32.7346H53.3328V46.6736C58.7415 46.0737 64.4241 39.7217 66.3411 32.7346H75.1731C74.4507 36.3583 73.0107 39.7894 70.9432 42.8133C68.8758 45.8371 66.2252 48.3886 63.1575 50.3083C66.5818 52.0623 69.6064 54.545 72.0317 57.5925C74.4569 60.64 76.2276 64.1831 77.227 67.9878H67.505C66.6079 64.6831 64.7845 61.7249 62.2634 59.4838C59.7423 57.2428 56.6357 55.8186 53.3328 55.3898V67.9878H52.2716Z" fill="#577BFA"/>
</svg>
