<svg width="53" height="34" viewBox="0 0 53 34" fill="none" xmlns="http://www.w3.org/2000/svg">
<path d="M28.8763 33.5728C11.3673 33.5728 1.38047 21.199 0.964355 0.609131H9.73486C10.0229 15.7216 16.4888 22.1229 21.6102 23.4428V0.609131H29.8686V13.6428C34.926 13.0819 40.2396 7.14247 42.0321 0.609131H50.2904C49.615 3.9975 48.2685 7.20575 46.3353 10.0332C44.4021 12.8607 41.9238 15.2465 39.0552 17.0415C42.2572 18.6816 45.0853 21.003 47.353 23.8526C49.6208 26.7022 51.2765 30.0151 52.211 33.5728H43.1204C42.2815 30.4827 40.5766 27.7166 38.2192 25.6211C35.8619 23.5256 32.957 22.1939 29.8686 21.793V33.5728H28.8763V33.5728Z" fill="#577BFA"/>
</svg>
