<svg width="102" height="101" viewBox="0 0 102 101" fill="none" xmlns="http://www.w3.org/2000/svg">
<path d="M71.4243 30.374C66.4292 25.4165 59.7691 22.6624 52.739 22.6624C38.1238 22.6624 26.2836 34.4134 26.2836 48.9187C26.2836 53.5089 27.5787 58.0992 29.7987 61.955L26.0986 75.5422L40.1588 71.87C44.0439 73.8897 48.2989 74.9914 52.739 74.9914C67.3542 74.9914 79.1944 63.2403 79.1944 48.7351C79.0094 41.9415 76.4193 35.3315 71.4243 30.374ZM65.5042 58.2828C64.9492 59.7517 62.3591 61.2206 61.0641 61.4042C59.9541 61.5878 58.4741 61.5878 56.9941 61.2206C56.069 60.8533 54.774 60.4861 53.294 59.7517C46.6339 56.9975 42.3789 50.3875 42.0089 49.8367C41.6389 49.4695 39.2338 46.3481 39.2338 43.0431C39.2338 39.7381 40.8988 38.2692 41.4538 37.5348C42.0089 36.8004 42.7489 36.8004 43.3039 36.8004C43.6739 36.8004 44.2289 36.8004 44.5989 36.8004C44.9689 36.8004 45.5239 36.6168 46.0789 37.902C46.6339 39.1873 47.9289 42.4923 48.1139 42.6759C48.2989 43.0431 48.2989 43.4103 48.1139 43.7776C47.9289 44.1448 47.7439 44.512 47.3739 44.8792C47.0039 45.2464 46.6339 45.7973 46.4489 45.9809C46.0789 46.3481 45.7089 46.7153 46.0789 47.2662C46.4489 48.0006 47.7439 50.0203 49.779 51.8564C52.369 54.0598 54.404 54.7942 55.144 55.1614C55.884 55.5286 56.254 55.345 56.624 54.9778C56.9941 54.6106 58.2891 53.1417 58.6591 52.4073C59.0291 51.6728 59.5841 51.8564 60.1391 52.04C60.6941 52.2237 64.0242 53.8761 64.5792 54.2434C65.3192 54.6106 65.6892 54.7942 65.8742 54.9778C66.0592 55.5286 66.0592 56.8139 65.5042 58.2828Z" fill="#577BFA"/>
</svg>
