<svg width="51" height="50" viewBox="0 0 51 50" fill="none" xmlns="http://www.w3.org/2000/svg">
<path d="M42.7657 7.40171C38.095 2.7662 31.8675 0.190918 25.2939 0.190918C11.628 0.190918 0.556774 11.1788 0.556774 24.742C0.556774 29.0341 1.76769 33.3262 3.84353 36.9316L0.383789 49.6364L13.5308 46.2027C17.1636 48.0912 21.1423 49.1213 25.2939 49.1213C38.9599 49.1213 50.0311 38.1335 50.0311 24.5703C49.8581 18.2179 47.4363 12.0372 42.7657 7.40171ZM37.2301 33.4979C36.7111 34.8714 34.2893 36.2449 33.0784 36.4166C32.0404 36.5883 30.6566 36.5883 29.2727 36.2449C28.4077 35.9015 27.1968 35.5582 25.8129 34.8714C19.5854 32.2961 15.6067 26.1155 15.2607 25.6004C14.9147 25.257 12.6659 22.3384 12.6659 19.248C12.6659 16.1577 14.2228 14.7842 14.7417 14.0975C15.2607 13.4107 15.9526 13.4107 16.4716 13.4107C16.8176 13.4107 17.3365 13.4107 17.6825 13.4107C18.0285 13.4107 18.5474 13.239 19.0664 14.4408C19.5854 15.6426 20.7963 18.733 20.9693 18.9047C21.1423 19.248 21.1423 19.5914 20.9693 19.9348C20.7963 20.2781 20.6233 20.6215 20.2773 20.9649C19.9313 21.3083 19.5854 21.8233 19.4124 21.995C19.0664 22.3384 18.7204 22.6817 19.0664 23.1968C19.4124 23.8835 20.6233 25.7721 22.5262 27.4889C24.948 29.5492 26.8508 30.2359 27.5428 30.5793C28.2347 30.9227 28.5807 30.751 28.9267 30.4076C29.2727 30.0642 30.4836 28.6907 30.8295 28.004C31.1755 27.3173 31.6945 27.4889 32.2134 27.6606C32.7324 27.8323 35.8462 29.3775 36.3651 29.7209C37.0571 30.0642 37.4031 30.2359 37.576 30.4076C37.749 30.9227 37.749 32.1244 37.2301 33.4979Z" fill="#577BFA"/>
</svg>
