<svg width="23" height="15" viewBox="0 0 23 15" fill="none" xmlns="http://www.w3.org/2000/svg">
<path d="M14.0661 14.5329L15.9389 12.5531C14.8232 11.3315 13.2293 10.5732 11.5159 10.5732C9.80253 10.5732 8.24851 11.2894 7.13281 12.4688L9.04544 14.4487C9.68298 13.7747 10.5596 13.3956 11.5159 13.3956C12.5121 13.3535 13.4286 13.8168 14.0661 14.5329Z" fill="#41454C"/>
<path d="M11.5156 0C7.01298 0 2.94864 1.93773 0 5.09707L2.07202 7.24542C4.50265 4.67582 7.80991 3.07509 11.5156 3.07509C15.1815 3.07509 18.5286 4.6337 20.9194 7.2033L22.9516 5.01282C20.0029 1.8956 15.9784 0 11.5156 0Z" fill="#41454C"/>
<path d="M3.70703 8.88816L5.53997 10.7838C7.05414 9.18303 9.166 8.17205 11.5169 8.17205C13.8679 8.17205 15.9797 9.18303 17.5338 10.8259L19.3268 8.88816C17.3345 6.78194 14.5851 5.47607 11.5169 5.47607C8.44876 5.47607 5.69935 6.78194 3.70703 8.88816Z" fill="#41454C"/>
</svg>
