<svg width="35" height="24" viewBox="0 0 35 24" fill="none" xmlns="http://www.w3.org/2000/svg">
<path fill-rule="evenodd" clip-rule="evenodd" d="M3.59941 23.2909C2.97536 23.1052 2.40596 22.7749 1.93925 22.3278C1.47254 21.8807 1.12223 21.3299 0.917871 20.722C-0.249898 17.5798 -0.595905 4.45909 1.65313 1.86892C2.40165 1.02632 3.45846 0.50755 4.59418 0.425215C10.6277 -0.211713 29.2687 -0.126788 31.4096 0.637525C32.0118 0.829317 32.5619 1.15241 33.0188 1.5826C33.4757 2.01278 33.8275 2.5389 34.0479 3.12154C35.3238 6.36987 35.3671 18.1743 33.8749 21.2952C33.4791 22.1076 32.8164 22.7657 31.9935 23.1635C29.7445 24.2675 6.58371 24.2463 3.59941 23.2909V23.2909ZM13.1794 17.1339L23.9921 11.6139L13.1794 6.0514V17.1339Z" fill="#E5EBEE"/>
</svg>
