<svg width="56" height="40" viewBox="0 0 56 40" fill="none" xmlns="http://www.w3.org/2000/svg">
<path fill-rule="evenodd" clip-rule="evenodd" d="M5.75906 38.8182C4.76058 38.5087 3.84953 37.9581 3.1028 37.213C2.35607 36.4678 1.79557 35.5498 1.46859 34.5366C-0.399837 29.2996 -0.953447 7.43181 2.64501 3.11486C3.84265 1.71053 5.53354 0.845916 7.35069 0.708691C17.0042 -0.352854 46.8299 -0.211314 50.2554 1.06254C51.2189 1.38219 52.0991 1.92068 52.8301 2.63766C53.5612 3.35463 54.1241 4.23151 54.4767 5.20257C56.5181 10.6165 56.5873 30.2904 54.1999 35.492C53.5665 36.846 52.5063 37.9428 51.1896 38.6059C47.5911 40.4459 10.5339 40.4105 5.75906 38.8182ZM21.0871 28.5566L38.3874 19.3565L21.0871 10.0857V28.5566Z" fill="#577BFA"/>
</svg>
